<?xml version="1.0" encoding="UTF-8" standalone="no"?>
<!DOCTYPE svg PUBLIC "-//W3C//DTD SVG 1.1//EN" "http://www.w3.org/Graphics/SVG/1.1/DTD/svg11.dtd">
<svg xmlns="http://www.w3.org/2000/svg">
<metadata>
This is a custom SVG webfont generated by Font Squirrel.
Copyright   : Copyright c 2007 by Dominik Huber  Moir All rights reserved
Foundry     : Dominik Huber  Moir
</metadata>
<defs>
<font id="M3MonoRegular" horiz-adv-x="1126">
<font-face units-per-em="2048" ascent="1536" descent="-512"/>
<missing-glyph horiz-adv-x="500"/>
<glyph unicode=" "/>
<glyph unicode="!" d="M436 41v170q0 16 12.5 28.5t28.5 12.5h170q16 0 28.5 -12.5t12.5 -28.5v-170q0 -16 -12 -28.5t-29 -12.5h-170q-16 0 -28.5 12.5t-12.5 28.5zM463 430v963q0 16 12 28.5t29 12.5h114q16 0 28.5 -12.5t12.5 -28.5v-963q0 -16 -12 -28.5t-29 -12.5h-114q-16 0 -28.5 12.5 t-12.5 28.5z"/>
<glyph unicode="&quot;" d="M260 956l59 220q6 27 -18 26q-16 0 -28.5 12.5t-12.5 28.5v170q0 16 12.5 28.5t28.5 12.5h170q16 0 28.5 -12t12.5 -29v-162q0 -39 -20 -71l-125 -224q-23 -41 -66 -41q-20 0 -33.5 10.5t-7.5 30.5zM614 956l60 220q6 27 -19 26q-16 0 -28.5 12.5t-12.5 28.5v170 q0 16 12.5 28.5t28.5 12.5h170q16 0 28.5 -12t12.5 -29v-162q0 -39 -20 -71l-125 -224q-23 -41 -66 -41q-20 0 -33.5 10.5t-7.5 30.5z"/>
<glyph unicode="#" d="M55 375l13 76q8 41 49 41h102q20 0 25 20l65 369q4 20 -16 20h-103q-16 0 -26 12.5t-8 28.5l12 76q8 41 49 41h102q20 0 25 20l55 314q8 41 47 41h86q16 0 26.5 -12.5t8.5 -28.5l-55 -314q-4 -20 16 -20h197q20 0 25 20l55 314q8 41 47 41h86q16 0 26.5 -12.5t8.5 -28.5 l-55 -314q-4 -20 16 -20h102q16 0 26.5 -12.5t6.5 -28.5l-12 -76q-8 -41 -47 -41h-103q-20 0 -24 -20l-66 -369q-4 -20 17 -20h102q16 0 26.5 -12.5t6.5 -28.5l-13 -76q-8 -41 -47 -41h-102q-20 0 -25 -21l-49 -272q-8 -41 -47 -41h-86q-16 0 -26.5 12.5t-8.5 28.5l49 272 q4 20 -16 21h-186q-31 0 -35 -21l-49 -272q-8 -41 -47 -41h-86q-16 0 -26.5 12.5t-8.5 28.5l49 272q4 20 -16 21h-103q-16 0 -26.5 12.5t-8.5 28.5zM412 512q-4 -20 16 -20h197q20 0 24 20l66 369q4 20 -17 20h-196q-20 0 -25 -20z"/>
<glyph unicode="$" d="M102 410v32q0 16 12.5 28.5t28.5 12.5h115q16 0 28.5 -12t12.5 -29v-32q0 -100 75 -166t189 -66q115 4 188.5 68.5t75.5 163.5q0 41 -9 72.5t-19.5 54t-42 43t-48 31t-67.5 24.5t-71.5 19t-86.5 20q-156 35 -249 132t-93 259q0 145 89 244.5t225 132.5q20 6 20 20v74 q0 16 12.5 28.5t28.5 12.5h92q16 0 28.5 -12.5t12.5 -28.5v-74q0 -14 21 -20q137 -33 225 -138.5t88 -238.5v-27q0 -16 -12.5 -28.5t-28.5 -12.5h-113q-16 0 -28.5 12.5t-12.5 28.5v27q0 94 -67.5 142t-157.5 48q-100 0 -161.5 -51t-63.5 -139q2 -29 8 -54.5t20.5 -45 t24.5 -33.5t36 -27.5t38 -20.5t45 -16.5t43 -12.5t48 -11t44 -10q176 -39 277.5 -149t101.5 -275q0 -164 -101.5 -275.5t-252.5 -142.5q-20 -6 -21 -21v-73q0 -16 -12 -28.5t-29 -12.5h-92q-16 0 -28.5 12t-12.5 29v73q0 14 -20 21q-156 33 -254.5 149.5t-98.5 268.5z"/>
<glyph unicode="%" d="M72 993q-12 102 0 205q12 88 73.5 151.5t157.5 63.5q92 0 154.5 -58.5t74.5 -156.5q12 -102 0 -205q-10 -90 -71.5 -152.5t-157.5 -62.5q-92 0 -155.5 58.5t-75.5 156.5zM88 18.5q-12 18.5 0 38.5l793 1346q18 31 45 31h78q20 0 31.5 -18.5t0.5 -39.5l-790 -1345 q-18 -31 -43 -31h-82q-21 0 -33 18.5zM217 1008q4 -33 26.5 -55.5t59.5 -22.5q72 0 86 78q10 86 0 176q-4 31 -26.5 52t-59.5 21q-76 0 -86 -73q-10 -90 0 -176zM592 236q-12 102 0 204q12 88 73.5 151.5t157.5 63.5q92 0 154.5 -58t75.5 -157q12 -102 0 -204 q-10 -90 -71.5 -153t-158.5 -63q-92 0 -155.5 59t-75.5 157zM737 250q4 -33 26.5 -55.5t59.5 -22.5q72 0 86 78q10 86 0 176q-4 31 -26.5 52.5t-59.5 21.5q-76 0 -86 -74q-10 -90 0 -176z"/>
<glyph unicode="&amp;" d="M57 416q0 176 168 340q20 18 0 49q-94 133 -94 254q0 168 103.5 271.5t281.5 103.5q162 0 262.5 -104.5t100.5 -270.5v-31q0 -16 -12.5 -28.5t-28.5 -12.5h-105q-16 0 -28.5 12.5t-12.5 28.5v31q0 92 -46 146.5t-132 54.5q-100 0 -149.5 -54.5t-49.5 -146.5 q0 -23 11.5 -53.5t27 -57t39 -60.5t38.5 -53.5t39 -48t28 -32.5l272 -334q12 -12 18 2q8 49 9 192q0 16 12 28.5t29 12.5h92q16 0 28.5 -12t12.5 -29q0 -229 -35 -323q-8 -23 4 -35l158 -180q18 -20 7 -48t-44 -28h-100q-25 0 -46 20l-75 82q-14 14 -29 0 q-129 -119 -307 -118q-190 0 -318.5 127t-128.5 305zM248 416q0 -102 72.5 -175t183.5 -73q104 0 178 63q12 12 4 21l-317 385q-6 8 -15 0q-106 -106 -106 -221z"/>
<glyph unicode="'" d="M430 922.5q-10 21.5 2 46.5l94 172q6 27 -18 26h-35q-16 0 -28.5 12.5t-12.5 28.5v185q0 16 12.5 28.5t28.5 12.5h184q16 0 28.5 -12.5t12.5 -28.5v-185q0 -70 -41 -127l-106 -149q-20 -31 -53 -31h-29q-29 0 -39 21.5z"/>
<glyph unicode="(" d="M356 646.5q0 275.5 17 397.5q20 178 144 304.5t317 126.5h86q16 0 28.5 -12.5t12.5 -28.5v-99q0 -16 -12.5 -28.5t-28.5 -12.5h-86q-100 0 -179.5 -69.5t-97.5 -180.5q-20 -127 -20 -399t20 -399q14 -98 89 -174t188 -76h98q16 0 28.5 -12.5t12.5 -28.5v-98 q0 -16 -12.5 -28.5t-28.5 -12.5h-98q-184 0 -310.5 116.5t-150.5 313.5q-17 125 -17 400.5z"/>
<glyph unicode=")" d="M152 -45q0 16 12 28.5t29 12.5h98q113 0 187.5 75.5t88.5 174.5q20 127 20.5 399.5t-20.5 398.5q-18 111 -97 180.5t-179 69.5h-86q-16 0 -28.5 12.5t-12.5 28.5v99q0 16 12 28.5t29 12.5h86q193 0 316.5 -126t144.5 -305q14 -123 14 -398t-14 -400q-25 -197 -151 -313.5 t-310 -116.5h-98q-16 0 -28.5 12t-12.5 29v98z"/>
<glyph unicode="*" d="M298 1267.5q-5 16.5 5 30.5l43 76q20 35 55 15l80 -52l-2 97q0 16 12.5 28.5t28.5 12.5h86q16 0 28.5 -12.5t12.5 -28.5l-4 -97l82 52q14 8 30.5 4t24.5 -21l43 -74q23 -33 -14 -55l-86 -45l86 -45q14 -8 19.5 -24.5t-5.5 -30.5l-43 -76q-20 -35 -55 -14l-82 49l4 -94 q0 -16 -12 -28.5t-29 -12.5h-86q-16 0 -28.5 12t-12.5 29l2 96l-80 -51q-14 -8 -30.5 -4t-24.5 20l-43 74q-23 33 14 55l84 45l-84 45q-14 8 -19 24.5z"/>
<glyph unicode="+" d="M113 459v106q0 16 12 28.5t29 12.5h295q20 0 20 21v295q0 16 12.5 28.5t28.5 12.5h106q16 0 28.5 -12.5t12.5 -28.5v-295q0 -20 21 -21h295q16 0 28.5 -12t12.5 -29v-106q0 -16 -12.5 -28.5t-28.5 -12.5h-295q-20 0 -21 -21v-295q0 -16 -12 -28.5t-29 -12.5h-106 q-16 0 -28.5 12.5t-12.5 28.5v295q0 20 -20 21h-295q-16 0 -28.5 12.5t-12.5 28.5z"/>
<glyph unicode="," d="M426 -244.5q-10 21.5 2 45.5l94 172q6 27 -18 27h-35q-16 0 -28.5 12.5t-12.5 28.5v184q0 16 12.5 28.5t28.5 12.5h184q16 0 28.5 -12t12.5 -29v-184q0 -70 -41 -127l-106 -150q-20 -31 -53 -30h-29q-29 0 -39 21.5z"/>
<glyph unicode="-" d="M242 477v139q0 16 12 28.5t29 12.5h559q16 0 28.5 -12t12.5 -29v-139q0 -16 -12.5 -28.5t-28.5 -12.5h-559q-16 0 -28.5 12.5t-12.5 28.5z"/>
<glyph unicode="." d="M428 41v184q0 16 12.5 28.5t28.5 12.5h184q16 0 28.5 -12t12.5 -29v-184q0 -16 -12 -28.5t-29 -12.5h-184q-16 0 -28.5 12.5t-12.5 28.5z"/>
<glyph unicode="/" d="M201 33l544 1390q10 31 39 31h107q20 0 31.5 -18.5t1.5 -38.5l-541 -1391q-10 -31 -43 -31h-107q-20 0 -30 17.5t-2 40.5z"/>
<glyph unicode="0" d="M106 718q0 183 17 306q23 182 135.5 304t304.5 122q184 0 300 -113.5t141 -312.5q14 -127 14 -307t-14 -307q-20 -182 -134 -304t-307 -122q-184 0 -300 113.5t-140 312.5q-17 125 -17 308zM291 717q0 -178 16 -307q14 -102 78 -172t178 -70q104 0 172 64.5t84 177.5 q18 129 18.5 307t-18.5 307q-14 102 -76.5 171t-179.5 71q-102 0 -171.5 -64.5t-84.5 -177.5q-16 -129 -16 -307z"/>
<glyph unicode="1" d="M174 41v100q0 16 12.5 28.5t28.5 12.5h301q20 0 21 21v921q0 8 -7.5 11.5t-11.5 -2.5l-293 -326q-10 -12 -26.5 -8t-16.5 22v160q0 37 41 84l295 350q18 18 41 19h127q16 0 28.5 -12.5t12.5 -28.5v-1190q0 -20 21 -21h245q16 0 28.5 -12t12.5 -29v-100q0 -16 -12 -28.5 t-29 -12.5h-778q-16 0 -28.5 12.5t-12.5 28.5z"/>
<glyph unicode="2" d="M152 41v133q0 33 18 51l463 533q127 160 127 301q0 88 -57.5 147.5t-145.5 59.5q-80 0 -140.5 -62.5t-60.5 -144.5v-31q0 -16 -12 -28.5t-29 -12.5h-106q-41 0 -41 41v31q0 164 112.5 277.5t276.5 113.5t274.5 -112.5t110.5 -278.5q0 -217 -156 -404l-385 -440 q-8 -10 -3 -21.5t20 -11.5h516q41 0 41 -41v-100q0 -41 -41 -41h-741q-16 0 -28.5 12.5t-12.5 28.5z"/>
<glyph unicode="3" d="M131 406v14q0 16 12.5 28.5t28.5 12.5h113q16 0 28.5 -12.5t12.5 -28.5v-14q0 -94 66.5 -161t170.5 -67q102 0 169 66.5t67 161.5q0 102 -54.5 174.5t-177.5 72.5h-24q-16 0 -28.5 12.5t-12.5 28.5v109q0 16 12 28.5t29 12.5h24q98 0 149.5 64.5t51.5 150.5 q0 80 -58.5 138t-146.5 58q-90 0 -148.5 -58t-58.5 -138v-31q0 -16 -12 -28.5t-29 -12.5h-110q-16 0 -28.5 12.5t-12.5 28.5v31q0 164 115.5 277.5t283.5 113.5t284 -113.5t116 -277.5q0 -174 -119 -281q-29 -25 -2 -49q152 -131 151 -323q0 -176 -126 -299t-304 -123 q-180 0 -306 123t-126 299z"/>
<glyph unicode="4" d="M96 307v90q0 25 33 78l530 930q16 29 43 29h127q16 0 28.5 -12.5t12.5 -28.5v-932q0 -20 21 -21h98q16 0 28.5 -12t12.5 -29v-92q0 -16 -12 -28.5t-29 -12.5h-98q-20 0 -21 -20v-205q0 -16 -12 -28.5t-29 -12.5h-96q-16 0 -28.5 12.5t-12.5 28.5v205q0 20 -20 20h-535 q-16 0 -28.5 12.5t-12.5 28.5zM317 457q-10 -16 9 -17h346q20 0 20 21v643q0 8 -6 9t-10 -5z"/>
<glyph unicode="5" d="M143 358q0 41 41 41h105q16 0 28.5 -12t12.5 -29q0 -82 68.5 -136t162.5 -54q111 0 175.5 84t64.5 217t-64.5 217t-175.5 84q-61 0 -110.5 -34t-73.5 -89q-10 -23 -39 -22h-111q-16 0 -28.5 12t-12.5 29v727q0 16 12.5 28.5t28.5 12.5h662q16 0 28.5 -12.5t12.5 -28.5 v-103q0 -16 -12.5 -28.5t-28.5 -12.5h-508q-20 0 -21 -20v-307q0 -18 12.5 -24.5t33.5 7.5q61 49 155 49q186 0 304 -142t118 -343q0 -203 -115.5 -344t-306.5 -141q-166 0 -292 108t-126 266z"/>
<glyph unicode="6" d="M131 717q0 180 14 307q20 184 133 305t285 121q164 0 278.5 -113.5t114.5 -277.5q0 -16 -12 -28.5t-29 -12.5h-106q-16 0 -28.5 12t-12.5 29q0 84 -54.5 145.5t-150.5 61.5q-100 0 -158.5 -62.5t-74.5 -167.5q-16 -66 -13 -176q0 -12 10.5 -17t22.5 3q106 80 225 80 q170 0 289 -122t131 -298q4 -49 0 -107q-10 -176 -128.5 -295.5t-291.5 -119.5q-174 0 -290.5 120.5t-139.5 305.5q-14 127 -14 307zM346 397q12 -98 72.5 -161.5t157 -63.5t157 63.5t72.5 161.5q6 59 0 111q-12 98 -72.5 163.5t-157.5 65.5q-98 0 -157.5 -59.5 t-71.5 -169.5q-6 -52 0 -111z"/>
<glyph unicode="7" d="M154 1290v103q0 16 12 28.5t29 12.5h737q16 0 28.5 -12.5t12.5 -28.5v-138q0 -18 -10 -41l-496 -1183q-14 -31 -39 -31h-123q-25 0 -34 16.5t-3 32.5l502 1180q8 20 -14 20h-561q-16 0 -28.5 12.5t-12.5 28.5z"/>
<glyph unicode="8" d="M117 406q0 193 151 323q25 23 -2 49q-117 117 -116 281q0 166 116.5 278.5t296.5 112.5q178 0 297 -112.5t119 -278.5t-119 -281q-27 -27 -2 -49q152 -131 152 -323q0 -178 -128 -300t-318.5 -122t-318.5 122t-128 300zM307 405.5q0 -100.5 72 -167t184 -66.5 q111 0 183.5 66.5t72.5 167t-72.5 169t-183.5 68.5q-113 0 -184.5 -68.5t-71.5 -169zM334 1059q0 -90 63.5 -150.5t166 -60.5t166 60.5t63.5 150.5t-63.5 148.5t-166 58.5t-166 -58.5t-63.5 -148.5z"/>
<glyph unicode="9" d="M131 928q-4 49 0 106q10 176 129 296t291 120q174 0 290.5 -121t139.5 -305q14 -127 14 -307t-14 -307q-20 -182 -135 -304t-287 -122q-166 0 -291 114.5t-125 276.5q0 16 12.5 28.5t28.5 12.5h107q16 0 28.5 -12.5t12.5 -28.5q0 -78 70.5 -142.5t156.5 -64.5 q197 0 248 242q14 70 14 170q0 14 -11 18t-26 -6q-104 -84 -233 -84q-170 0 -289 122t-131 298zM322 926q12 -98 72.5 -164t156.5 -66q98 0 157.5 59.5t71.5 170.5q6 51 0 110q-12 98 -72.5 162t-156.5 64t-156.5 -63.5t-72.5 -162.5q-6 -59 0 -110z"/>
<glyph unicode=":" d="M430 41v184q0 16 12.5 28.5t28.5 12.5h184q16 0 28.5 -12t12.5 -29v-184q0 -16 -12 -28.5t-29 -12.5h-184q-16 0 -28.5 12.5t-12.5 28.5zM430 778v185q0 16 12.5 28.5t28.5 12.5h184q16 0 28.5 -12.5t12.5 -28.5v-185q0 -16 -12 -28.5t-29 -12.5h-184q-16 0 -28.5 12.5 t-12.5 28.5z"/>
<glyph unicode=";" d="M428 -244.5q-10 21.5 2 45.5l94 172q6 27 -18 27h-35q-16 0 -28.5 12.5t-12.5 28.5v184q0 16 12.5 28.5t28.5 12.5h184q16 0 28.5 -12t12.5 -29v-184q0 -70 -41 -127l-106 -150q-20 -31 -53 -30h-29q-29 0 -39 21.5zM430 778v185q0 16 12.5 28.5t28.5 12.5h184 q16 0 28.5 -12.5t12.5 -28.5v-185q0 -16 -12 -28.5t-29 -12.5h-184q-16 0 -28.5 12.5t-12.5 28.5z"/>
<glyph unicode="&lt;" d="M154 463v100q0 29 30 45l742 416q16 6 31.5 -5t15.5 -34v-123q0 -25 -31 -43l-547 -299q-6 -2 -6 -8t6 -8l547 -299q31 -18 31 -43v-123q0 -23 -15.5 -34t-31.5 -5l-742 418q-30 16 -30 45z"/>
<glyph unicode="=" d="M113 270v107q0 16 12 28.5t29 12.5h819q16 0 28.5 -12.5t12.5 -28.5v-107q0 -16 -12.5 -28.5t-28.5 -12.5h-819q-16 0 -28.5 12.5t-12.5 28.5zM113 647v107q0 16 12 28.5t29 12.5h819q16 0 28.5 -12.5t12.5 -28.5v-107q0 -16 -12.5 -28.5t-28.5 -12.5h-819 q-16 0 -28.5 12.5t-12.5 28.5z"/>
<glyph unicode="&gt;" d="M154 39v123q0 25 30 43l547 299q6 2 6 8t-6 8l-547 299q-31 18 -30 43v123q0 23 15 34t32 5l741 -416q31 -16 31 -45v-100q0 -29 -31 -45l-741 -418q-16 -6 -31.5 5t-15.5 34z"/>
<glyph unicode="?" d="M178 1028v31q0 166 109.5 280.5t273.5 114.5q166 0 275.5 -110.5t109.5 -284.5q0 -197 -194 -346l-34 -23q-28 -18 -41 -29.5t-27.5 -35t-14.5 -52.5v-143q0 -16 -12.5 -28.5t-28.5 -12.5h-105q-16 0 -28 12.5t-12 28.5v172q0 82 36.5 125t94 81t94.5 75q84 84 84 176 q0 86 -53.5 146.5t-143.5 60.5q-84 0 -140 -63.5t-56 -143.5v-31q0 -16 -12.5 -28.5t-28.5 -12.5h-105q-16 0 -28.5 12.5t-12.5 28.5zM418 41v170q0 16 12 28.5t29 12.5h170q16 0 28.5 -12.5t12.5 -28.5v-170q0 -16 -12.5 -28.5t-28.5 -12.5h-170q-16 0 -28.5 12.5 t-12.5 28.5z"/>
<glyph unicode="@" d="M78 365q-25 188 0 376q29 211 162 329t331 118q203 0 345.5 -120t142.5 -327v-327q0 -78 -56.5 -133.5t-134.5 -55.5q-53 0 -84 21q-39 25 -79 0q-55 -31 -134 -31q-117 0 -192.5 71.5t-81.5 180.5q-4 92 0 184q6 106 83 179t191 73q117 0 191 -70.5t74 -181.5v-245 q0 -45 38 -46q41 0 41 46v335q0 139 -105 221t-243 82q-129 0 -227 -80.5t-117 -222.5q-25 -188 0 -376q18 -141 116.5 -222.5t227.5 -81.5h211q16 0 28.5 -12t12.5 -29v-61q0 -16 -12 -28.5t-29 -12.5h-207q-199 0 -331.5 118t-161.5 329zM446 465q2 -45 36 -76t89.5 -31 t89 31t33.5 76v186q0 47 -33.5 78t-89 31t-89 -32t-36.5 -77q-8 -96 0 -186z"/>
<glyph unicode="A" d="M72 41l381 1362q6 31 39 31h143q33 0 39 -31l381 -1362q1 -4 1 -8q0 -11 -8 -21q-11 -12 -34 -12h-113q-33 0 -39 31l-90 313q-6 29 -39 29h-340q-33 0 -39 -29l-90 -313q-6 -31 -39 -31h-112q-23 0 -34 12q-8 9 -8 21q0 4 1 8zM420 586q-1 -5 -1 -9q0 -14 17 -14h254 q18 0 18 14q0 4 -1 9l-134 571q-4 12 -8 12h-4q-4 0 -8 -12z"/>
<glyph unicode="B" d="M137 41v1352q0 16 12.5 28.5t28.5 12.5h379q168 0 284.5 -108.5t116.5 -272.5q0 -76 -30.5 -152t-85.5 -125q-29 -25 0 -45q63 -51 104 -139t41 -174q0 -176 -126 -297t-304 -121h-379q-16 0 -28.5 12.5t-12.5 28.5zM332 215q0 -20 20 -20h205q96 0 166 65.5t70 157.5 q0 104 -69 172.5t-167 68.5h-205q-20 0 -20 -20v-424zM332 864q0 -20 20 -20h205q96 0 151.5 58.5t55.5 150.5q0 86 -61.5 136t-145.5 50h-205q-20 0 -20 -20v-355z"/>
<glyph unicode="C" d="M102 718q0 183 17 306q20 178 144 302t316.5 124t326.5 -116.5t134 -309.5v-29q0 -16 -12 -28.5t-29 -12.5h-112q-16 0 -28.5 12.5t-12.5 28.5v29q0 94 -74 161.5t-192 69.5q-104 0 -178 -61t-89 -170q-14 -127 -14 -307t14 -307q12 -96 83 -164t184 -68 q109 0 187.5 62.5t78.5 169.5v28q0 16 12 28.5t29 12.5h112q16 0 28.5 -12t12.5 -29v-28q0 -174 -131 -300t-329 -126q-186 0 -311.5 114.5t-149.5 311.5q-17 125 -17 308z"/>
<glyph unicode="D" d="M145 41v1352q0 16 12.5 28.5t28.5 12.5h389q174 0 291 -123t140 -307q17 -136 17 -279.5t-17 -294.5q-20 -182 -138 -306t-293 -124h-389q-16 0 -28.5 12.5t-12.5 28.5zM340 215q0 -20 20 -20h215q90 0 158 69.5t78 165.5q16 123 16 287t-16 287q-10 96 -77.5 165.5 t-158.5 69.5h-215q-20 0 -20 -20v-1004z"/>
<glyph unicode="E" d="M219 41v1352q0 16 12.5 28.5t28.5 12.5h682q16 0 28.5 -12.5t12.5 -28.5v-113q0 -16 -12.5 -28.5t-28.5 -12.5h-508q-20 0 -20 -20v-369q0 -20 20 -21h486q16 0 28.5 -12t12.5 -29v-112q0 -16 -12.5 -28.5t-28.5 -12.5h-486q-20 0 -20 -21v-399q0 -20 20 -20h512 q16 0 28.5 -12.5t12.5 -28.5v-113q0 -16 -12 -28.5t-29 -12.5h-686q-16 0 -28.5 12.5t-12.5 28.5z"/>
<glyph unicode="F" d="M221 41v1352q0 16 12.5 28.5t28.5 12.5h682q16 0 28.5 -12.5t12.5 -28.5v-113q0 -16 -12 -28.5t-29 -12.5h-508q-20 0 -20 -20v-369q0 -20 20 -21h486q16 0 28.5 -12t12.5 -29v-112q0 -16 -12.5 -28.5t-28.5 -12.5h-486q-20 0 -20 -21v-573q0 -16 -12.5 -28.5 t-28.5 -12.5h-113q-16 0 -28.5 12.5t-12.5 28.5z"/>
<glyph unicode="G" d="M94 718q0 183 17 306q20 178 144 302t316.5 124t326.5 -116.5t134 -309.5v-29q0 -16 -12 -28.5t-29 -12.5h-112q-16 0 -28.5 12.5t-12.5 28.5v29q0 94 -74 161.5t-193 69.5q-104 0 -178 -61t-88 -170q-14 -127 -14 -307t14 -307q12 -96 83 -164t183.5 -68t189.5 59.5 t77 172.5v172q0 20 -21 20h-186q-16 0 -28.5 12.5t-12.5 28.5v113q0 16 12 28.5t29 12.5h360q16 0 28.5 -12.5t12.5 -28.5v-346q0 -180 -130 -303t-331 -123q-186 0 -311 114.5t-149 311.5q-17 125 -17 308z"/>
<glyph unicode="H" d="M123 41v1352q0 16 12 28.5t29 12.5h112q16 0 28.5 -12.5t12.5 -28.5v-543q0 -20 21 -21h450q20 0 21 21v543q0 16 12.5 28.5t28.5 12.5h113q16 0 28.5 -12.5t12.5 -28.5v-1352q0 -16 -12.5 -28.5t-28.5 -12.5h-113q-16 0 -28.5 12.5t-12.5 28.5v573q0 20 -21 21h-450 q-20 0 -21 -21v-573q0 -16 -12 -28.5t-29 -12.5h-112q-16 0 -28.5 12.5t-12.5 28.5z"/>
<glyph unicode="I" d="M158 41v98q0 16 12 28.5t29 12.5h245q20 0 21 21v1034q0 20 -21 20h-225q-16 0 -28.5 12.5t-12.5 28.5v97q0 16 12.5 28.5t28.5 12.5h686q16 0 28.5 -12.5t12.5 -28.5v-97q0 -16 -12 -28.5t-29 -12.5h-225q-20 0 -21 -20v-1034q0 -20 21 -21h246q16 0 28.5 -12t12.5 -29 v-98q0 -16 -12.5 -28.5t-28.5 -12.5h-727q-16 0 -28.5 12.5t-12.5 28.5z"/>
<glyph unicode="J" d="M61 410v61q0 16 12.5 28.5t28.5 12.5h113q16 0 28.5 -12.5t12.5 -28.5v-61q8 -113 83 -172.5t183 -59.5q119 0 191.5 73t74.5 202v940q0 16 12.5 28.5t28.5 12.5h113q16 0 28.5 -12.5t12.5 -28.5v-983q-12 -201 -140 -313.5t-321 -112.5q-197 0 -329 125t-132 301z"/>
<glyph unicode="K" d="M170 41v1352q0 16 12.5 28.5t28.5 12.5h113q16 0 28.5 -12.5t12.5 -28.5v-492q0 -8 6 -8t10 4l397 516q16 20 45 21h113q29 0 41 -27t-6 -47l-467 -596q-25 -25 -2 -49l524 -639q11 -13 11 -28q0 -9 -4 -20q-11 -28 -44 -28h-129q-25 0 -45 20l-434 543q-4 4 -10 4t-6 -8 v-518q0 -16 -12.5 -28.5t-28.5 -12.5h-113q-16 0 -28.5 12.5t-12.5 28.5z"/>
<glyph unicode="L" d="M246 41v1352q0 16 12 28.5t29 12.5h112q16 0 28.5 -12.5t12.5 -28.5v-1178q0 -20 21 -20h500q16 0 28 -12.5t12 -28.5v-113q0 -16 -12 -28.5t-28 -12.5h-674q-16 0 -28.5 12.5t-12.5 28.5z"/>
<glyph unicode="M" d="M104 41v1352q0 16 12.5 28.5t28.5 12.5h203q31 0 43 -35l162 -590q2 -6 9 -7t11 7l162 590q12 35 43 35h203q16 0 28.5 -12.5t12.5 -28.5v-1352q0 -16 -12.5 -28.5t-28.5 -12.5h-98q-16 0 -28.5 12.5t-12.5 28.5v1069q0 10 -9.5 11t-11.5 -7l-162 -567q-14 -35 -43 -35 h-106q-29 0 -43 35l-162 567q-2 8 -11 7t-9 -11v-1069q0 -16 -12.5 -28.5t-28.5 -12.5h-99q-16 0 -28.5 12.5t-12.5 28.5z"/>
<glyph unicode="N" d="M133 41v1352q0 16 12.5 28.5t28.5 12.5h170q25 0 43 -35l404 -1010q4 -6 10 -5t6 9v1000q0 16 12 28.5t29 12.5h104q16 0 28.5 -12.5t12.5 -28.5v-1352q0 -16 -12 -28.5t-29 -12.5h-170q-25 0 -43 35l-403 1014q-4 6 -10.5 5t-6.5 -10v-1003q0 -16 -12 -28.5t-28 -12.5 h-105q-16 0 -28.5 12.5t-12.5 28.5z"/>
<glyph unicode="O" d="M86 718q0 183 16 306q20 178 144.5 302t316.5 124q186 0 311 -114.5t150 -311.5q14 -127 14 -307t-14 -307q-20 -178 -143 -302t-318 -124q-186 0 -311 114.5t-150 311.5q-16 125 -16 308zM283 717q0 -180 14 -307q12 -96 83 -164t183 -68q104 0 177 61.5t89 170.5 q16 127 16.5 307t-16.5 307q-12 98 -81.5 163.5t-184.5 67.5q-104 0 -178 -61t-88 -170q-14 -127 -14 -307z"/>
<glyph unicode="P" d="M205 41v1352q0 16 12 28.5t29 12.5h368q178 0 304 -126t126 -304.5t-125.5 -304.5t-304.5 -126h-194q-20 0 -21 -20v-512q0 -16 -12 -28.5t-29 -12.5h-112q-16 0 -28.5 12.5t-12.5 28.5zM399 788q0 -20 21 -20h194q96 0 166 69.5t70 166t-69.5 166t-166.5 69.5h-194 q-20 0 -21 -20v-431z"/>
<glyph unicode="Q" d="M86 718q0 183 16 306q20 178 144.5 302t316.5 124q186 0 311 -114.5t150 -311.5q14 -127 14 -307t-14 -307q-18 -170 -131 -289q-12 -12 -6 -29l108 -219q10 -20 -1 -38.5t-31 -18.5h-125q-25 0 -41 30l-76 146q-10 16 -49 4q-49 -12 -109 -12q-186 0 -311 114.5 t-150 311.5q-16 125 -16 308zM283 717q0 -180 14 -307q12 -96 83 -164t183 -68q104 0 177 61.5t89 170.5q16 127 16.5 307t-16.5 307q-12 98 -81.5 163.5t-184.5 67.5q-104 0 -178 -61t-88 -170q-14 -127 -14 -307z"/>
<glyph unicode="R" d="M184 41v1352q0 16 12.5 28.5t28.5 12.5h369q178 0 304 -126t126 -304q0 -115 -58.5 -212.5t-154.5 -154.5q-41 -24 -41 -53q0 -12 6 -25l242 -498q6 -12 6 -22t-5 -20q-11 -19 -40 -19h-115q-39 0 -59 41l-242 508q-12 25 -39 24h-125q-20 0 -20 -20v-512 q0 -16 -12.5 -28.5t-28.5 -12.5h-113q-16 0 -28.5 12.5t-12.5 28.5zM379 788q0 -20 20 -20h195q96 0 165.5 69.5t69.5 166t-69.5 166t-165.5 69.5h-195q-20 0 -20 -20v-431z"/>
<glyph unicode="S" d="M102 410v32q0 16 12.5 28.5t28.5 12.5h115q16 0 28.5 -12t12.5 -29v-32q0 -100 75 -166t189 -66q115 4 188.5 68.5t75.5 163.5q0 41 -9 72.5t-19.5 54t-42 43t-48 31t-67.5 24.5t-71.5 19t-86.5 20q-156 35 -249 132t-93 259q0 176 127 280.5t295 104.5q180 0 300 -112.5 t120 -272.5v-27q0 -16 -12.5 -28.5t-28.5 -12.5h-113q-16 0 -28.5 12.5t-12.5 28.5v27q0 94 -67.5 142t-157.5 48q-100 0 -161.5 -51t-63.5 -139q2 -29 8 -54.5t20.5 -45t24.5 -33.5t36 -27.5t38 -20.5t45 -16.5t43 -12.5t48 -11t44 -10q379 -86 379 -424q0 -190 -137 -308 t-324 -118q-197 0 -329 125t-132 301z"/>
<glyph unicode="T" d="M133 1280v113q0 16 12.5 28.5t28.5 12.5h778q16 0 28.5 -12.5t12.5 -28.5v-113q0 -16 -12 -28.5t-29 -12.5h-270q-20 0 -20 -20v-1178q0 -16 -12.5 -28.5t-28.5 -12.5h-113q-16 0 -28.5 12.5t-12.5 28.5v1178q0 20 -21 20h-272q-16 0 -28.5 12.5t-12.5 28.5z"/>
<glyph unicode="U" d="M102 410v983q0 16 12.5 28.5t28.5 12.5h113q16 0 28.5 -12.5t12.5 -28.5v-983q0 -115 78 -173.5t188 -58.5q115 0 189.5 65.5t76.5 166.5v983q0 16 12.5 28.5t28.5 12.5h113q16 0 28.5 -12.5t12.5 -28.5v-983q0 -182 -136 -304t-325 -122q-199 0 -330 121t-131 305z"/>
<glyph unicode="V" d="M61 1384q-2 6 -2 12q0 11 8 21q11 16 33 17h123q33 0 39 -31l285 -1092q2 -12 12 -12h4q10 0 12 12l285 1092q8 31 39 31h125q23 0 33 -15q7 -10 7 -22q0 -5 -1 -11l-383 -1355q-8 -31 -39 -31h-160q-31 0 -39 31z"/>
<glyph unicode="W" d="M53 1393q-4 41 41 41h101q33 0 38 -31l84 -1034q2 -8 12.5 -8.5t12.5 8.5l125 624q6 31 39 31h119q33 0 39 -31l110 -624q2 -8 12.5 -8.5t12.5 8.5l92 1034q6 31 39 31h100q45 0 41 -41l-147 -1362q-6 -31 -39 -31h-187q-33 0 -39 31l-86 618q-2 12 -8 6q-4 -2 -4 -6 l-115 -618q-6 -31 -38 -31h-187q-33 0 -39 31z"/>
<glyph unicode="X" d="M88 57l350 684q10 16 2 29l-321 606q-10 20 1 39t32 19h131q25 0 39 -31l231 -445q8 -20 16 0l232 445q14 31 39 31h131q20 0 31.5 -18.5t1.5 -39.5l-322 -606q-8 -12 2 -29l352 -684q5 -10 5 -19q0 -10 -6 -20q-11 -18 -31 -18h-140q-27 0 -41 31l-254 508q-8 20 -16 0 l-254 -508q-14 -31 -43 -31h-135q-20 0 -32 18q-6 10 -6 20q0 9 5 19z"/>
<glyph unicode="Y" d="M119 1376q-4 10 -4 19q0 11 6 21q10 17 31 18h135q29 0 39 -31l231 -637q8 -20 16 0l228 637q10 31 39 31h135q20 0 31 -18q6 -10 5 -21q0 -9 -3 -19l-344 -882v-453q0 -16 -12.5 -28.5t-28.5 -12.5h-115q-16 0 -28.5 12.5t-12.5 28.5v451z"/>
<glyph unicode="Z" d="M139 41v154q0 16 11 32l602 998q12 20 -13 20h-538q-16 0 -28.5 12.5t-12.5 28.5v107q0 16 12 28.5t29 12.5h721q16 0 28.5 -12.5t12.5 -28.5v-148q0 -16 -11 -33l-594 -1001q-12 -20 13 -21h571q16 0 28.5 -12t12.5 -28v-109q0 -16 -12.5 -28.5t-28.5 -12.5h-762 q-16 0 -28.5 12.5t-12.5 28.5z"/>
<glyph unicode="[" d="M418 -143v1577q0 16 12 28.5t29 12.5h409q16 0 28.5 -12.5t12.5 -28.5v-97q0 -16 -12 -28.5t-29 -12.5h-252q-20 0 -20 -20v-1262q0 -20 20 -20h256q16 0 28.5 -12.5t12.5 -28.5v-96q0 -16 -12 -28.5t-29 -12.5h-413q-16 0 -28.5 12.5t-12.5 28.5z"/>
<glyph unicode="\" d="M203 1397q-10 20 1 38.5t32 18.5h106q29 0 39 -31l545 -1390q8 -23 -2.5 -40.5t-30.5 -17.5h-107q-33 0 -43 31z"/>
<glyph unicode="]" d="M213 -47q0 16 12.5 28.5t28.5 12.5h256q20 0 20 20v1262q0 20 -20 20h-252q-16 0 -28.5 12.5t-12.5 28.5v97q0 16 12.5 28.5t28.5 12.5h410q16 0 28.5 -12.5t12.5 -28.5v-1577q0 -16 -12.5 -28.5t-28.5 -12.5h-414q-16 0 -28.5 12t-12.5 29v96z"/>
<glyph unicode="^" d="M234.5 1215.5q-7.5 17.5 3.5 25.5l221 229q25 25 61 25h2h82h2q35 0 60 -25l221 -229q10 -8 3 -25.5t-26 -17.5h-121q-31 0 -63 33l-105 100q-14 14 -28 0l-103 -100q-33 -33 -63 -33h-121q-18 0 -25.5 17.5z"/>
<glyph unicode="_" d="M20 -41q0 16 12.5 28.5t28.5 12.5h1004q16 0 28.5 -12.5t12.5 -28.5v-72q0 -16 -12.5 -28.5t-28.5 -12.5h-1004q-16 0 -28.5 12.5t-12.5 28.5v72z"/>
<glyph unicode="`" d="M363.5 1478.5q7.5 16.5 25.5 16.5h162q31 0 53 -33l156 -223q8 -12 -1 -26.5t-28 -14.5h-82q-37 0 -61 25l-221 229q-11 10 -3.5 26.5z"/>
<glyph unicode="a" d="M172 307q0 133 91 222t247 89h250q20 0 20 21v68q0 80 -53 120.5t-137 40.5q-31 0 -59.5 -5t-60.5 -16t-51.5 -36t-19.5 -59.5t-47 -34.5h-92q-41 0 -41 41q0 133 113.5 209.5t257.5 76.5q156 0 265.5 -101t109.5 -267v-635q0 -16 -12.5 -28.5t-28.5 -12.5h-70 q-16 0 -29 14q-2 4 -10 17.5t-14 19.5t-17 6q-12 0 -40.5 -19.5t-81 -38.5t-117.5 -19q-180 0 -276.5 94t-96.5 233zM356 309q0 -76 47.5 -117.5t135.5 -41.5q137 0 197.5 53t60.5 162v65q0 20 -21 21h-266q-154 -1 -154 -142z"/>
<glyph unicode="b" d="M188 41v1366q0 16 12.5 28.5t28.5 12.5h103q16 0 28.5 -12.5t12.5 -28.5v-363q0 -51 45 -51q14 0 75.5 25.5t114.5 25.5q158 0 267.5 -112.5t121.5 -276.5q5 -72 5 -143.5t-5 -142.5q-12 -164 -121.5 -276.5t-267.5 -112.5q-88 0 -149.5 33.5t-79.5 33.5q-23 0 -51 -33 q-14 -14 -29 -14h-70q-16 0 -28.5 12.5t-12.5 28.5zM352 369q6 -86 69.5 -145.5t166 -59.5t166 59.5t69.5 145.5q5 72 5 143.5t-5 142.5q-6 86 -69.5 145.5t-166 59.5t-166 -59.5t-69.5 -145.5q-5 -72 -5 -143t5 -143z"/>
<glyph unicode="c" d="M164 369q-5 72 -5 143.5t5 142.5q12 168 121.5 278.5t287.5 110.5q172 0 284 -99t112 -249q0 -41 -35 -41h-111q-39 0 -39 33q0 74 -58 123t-153 49q-100 0 -159.5 -59.5t-65.5 -145.5q-5 -72 -5 -143.5t5 -142.5q6 -86 65.5 -145.5t159.5 -59.5q92 0 150.5 48t58.5 122 q0 35 39 35h107q16 0 28.5 -12.5t12.5 -28.5q0 -150 -112 -249t-284 -99q-178 0 -287.5 110.5t-121.5 278.5z"/>
<glyph unicode="d" d="M131 369q-5 72 -5 143.5t5 142.5q12 164 121.5 276.5t267.5 112.5q53 0 114.5 -25.5t76.5 -25.5q45 0 45 51v363q0 16 12 28.5t29 12.5h102q16 0 28.5 -12.5t12.5 -28.5v-1366q0 -16 -12.5 -28.5t-28.5 -12.5h-70q-14 0 -28 14q-29 33 -51 33q-18 0 -80 -33.5t-150 -33.5 q-158 0 -267.5 112.5t-121.5 276.5zM305 369q6 -86 69.5 -145.5t166 -59.5t166 59.5t69.5 145.5q5 72 5 143.5t-5 142.5q-6 86 -69.5 145.5t-166 59.5t-166 -59.5t-69.5 -145.5q-5 -72 -5 -143t5 -143z"/>
<glyph unicode="e" d="M152 369q-5 72 -5.5 143.5t5.5 142.5q12 166 126.5 277.5t292.5 111.5q172 0 291 -119.5t119 -289.5v-141q-4 -41 -41 -41h-586q-20 0 -20 -21q0 -135 63.5 -201.5t173.5 -66.5q78 0 135.5 36t75.5 93q10 35 47 35h105q36 0 36 -31q0 -130 -130 -231q-111 -86 -269 -86 q-178 0 -292.5 111.5t-126.5 277.5zM338 637q0 -20 20 -21h426q20 0 21 21q0 102 -66.5 162.5t-165.5 60.5q-104 0 -169.5 -63.5t-65.5 -159.5z"/>
<glyph unicode="f" d="M115 870v103q0 16 12 28.5t29 12.5h256q20 0 20 20v31q0 162 108.5 272.5t270.5 110.5h123q16 0 28.5 -12.5t12.5 -28.5v-96q0 -16 -12.5 -28.5t-28.5 -12.5h-123q-80 0 -137.5 -62.5t-57.5 -142.5v-31q0 -20 21 -20h332q16 0 28.5 -12.5t12.5 -28.5v-103 q0 -16 -12.5 -28.5t-28.5 -12.5h-332q-20 0 -21 -20v-768q0 -16 -12 -28.5t-29 -12.5h-102q-16 0 -28.5 12.5t-12.5 28.5v768q0 20 -20 20h-256q-16 0 -28.5 12.5t-12.5 28.5z"/>
<glyph unicode="g" d="M141 369q-5 72 -5 143.5t5 142.5q12 164 122 276.5t267 112.5q88 0 149.5 -33.5t80.5 -33.5q23 0 51 33q14 14 29 14h69q16 0 28.5 -12.5t12.5 -28.5v-1044q0 -152 -107.5 -260.5t-267.5 -108.5q-143 0 -247.5 73.5t-124.5 206.5q-1 6 -1 12q0 36 38 36h98q27 0 36 -8.5 t15 -26.5q2 -4 2 -6q41 -102 184 -103q78 0 132.5 51.5t58.5 133.5v45q0 47 -39 47h-6q-12 0 -73.5 -25.5t-117.5 -25.5q-158 0 -267.5 112.5t-121.5 276.5zM315 369q6 -86 70 -145.5t166 -59.5t165.5 59.5t69.5 145.5q5 72 5.5 143.5t-5.5 142.5q-6 86 -69.5 145.5 t-165.5 59.5t-165.5 -59.5t-70.5 -145.5q-5 -72 -5 -143t5 -143z"/>
<glyph unicode="h" d="M180 41v1366q0 16 12.5 28.5t28.5 12.5h103q16 0 28.5 -12.5t12.5 -28.5v-371q0 -16 12 -29.5t33 -13.5q14 0 74.5 25.5t113.5 25.5q162 0 275.5 -113.5t113.5 -275.5v-614q0 -16 -12 -28.5t-29 -12.5h-102q-16 0 -28.5 12.5t-12.5 28.5v614q0 82 -63.5 143.5 t-155.5 61.5q-94 0 -156.5 -56t-62.5 -138v-625q0 -16 -12.5 -28.5t-28.5 -12.5h-103q-16 0 -28.5 12.5t-12.5 28.5z"/>
<glyph unicode="i" d="M184 41v92q0 16 12.5 28.5t28.5 12.5h269q20 0 20 21v634q0 20 -20 21h-248q-16 0 -28.5 12t-12.5 29v92q0 16 12 28.5t29 12.5h416q16 0 28 -12.5t12 -28.5v-788q0 -20 21 -21h260q16 0 28.5 -12t12.5 -29v-92q0 -16 -12.5 -28.5t-28.5 -12.5h-758q-16 0 -28.5 12.5 t-12.5 28.5zM504 1274v141q0 12 9 22.5t24 10.5h139q14 0 23.5 -10.5t9.5 -22.5v-141q0 -33 -33 -33h-139q-33 0 -33 33z"/>
<glyph unicode="j" d="M190 -102q0 16 12.5 28.5t28.5 12.5h103q16 0 28.5 -12.5t12.5 -28.5q0 -59 38 -101.5t105 -42.5q66 0 101.5 44t35.5 106v925q0 20 -20 21h-297q-16 0 -28.5 12t-12.5 29v92q0 16 12.5 28.5t28.5 12.5h467q16 0 28.5 -12.5t12.5 -28.5v-1079q0 -135 -96.5 -234.5 t-231.5 -99.5t-231.5 96.5t-96.5 231.5zM649 1274v141q0 12 9.5 22.5t23.5 10.5h139q14 0 23.5 -10.5t9.5 -22.5v-141q0 -33 -33 -33h-139q-33 0 -33 33z"/>
<glyph unicode="k" d="M246 41v1366q0 16 12 28.5t29 12.5h102q16 0 28.5 -12.5t12.5 -28.5v-709q0 -20 16 -8l334 307q27 27 58 27h110q31 0 40 -26.5t-7 -41.5l-420 -395q-27 -27 0 -49l463 -444q13 -12 13 -26q0 -8 -5 -17q-12 -25 -41 -25h-129q-31 0 -61 31l-355 340q-4 4 -10 2t-6 -11 v-321q0 -16 -12 -28.5t-29 -12.5h-102q-16 0 -28.5 12.5t-12.5 28.5z"/>
<glyph unicode="l" d="M186 41v92q0 16 12.5 28.5t28.5 12.5h256q20 0 21 21v1062q0 20 -21 21h-215q-16 0 -28.5 12.5t-12.5 28.5v88q0 16 12.5 28.5t28.5 12.5h379q16 0 28.5 -12.5t12.5 -28.5v-1212q0 -20 21 -21h231q16 0 28.5 -12t12.5 -29v-92q0 -16 -12.5 -28.5t-28.5 -12.5h-713 q-16 0 -28.5 12.5t-12.5 28.5z"/>
<glyph unicode="m" d="M117 41v942q0 16 12 28.5t29 12.5h65q14 0 29 -14q12 -16 27 -17q2 0 44 25.5t99 25.5q88 0 141 -73q8 -12 21 -13q14 0 22 13q59 74 176 73q248 0 248 -292v-711q0 -16 -12 -28.5t-29 -12.5h-90q-16 0 -28.5 12.5t-12.5 28.5v711q0 39 -29.5 68.5t-68.5 29.5 t-65.5 -28.5t-26.5 -69.5v-711q0 -16 -12.5 -28.5t-28.5 -12.5h-99q-16 0 -28.5 12.5t-12.5 28.5v711q0 41 -27.5 69.5t-66.5 28.5t-67.5 -28.5t-28.5 -69.5v-711q0 -16 -12.5 -28.5t-28.5 -12.5h-98q-16 0 -28.5 12.5t-12.5 28.5z"/>
<glyph unicode="n" d="M164 41v942q0 16 12 28.5t29 12.5h90q14 0 29 -14q29 -33 51 -33q18 0 77.5 33.5t141.5 33.5q164 0 276.5 -110.5t112.5 -278.5v-614q0 -16 -12.5 -28.5t-28.5 -12.5h-102q-16 0 -28.5 12.5t-12.5 28.5v614q0 88 -64.5 146.5t-161 58.5t-161 -53t-64.5 -141v-625 q0 -16 -12 -28.5t-29 -12.5h-102q-16 0 -28.5 12.5t-12.5 28.5z"/>
<glyph unicode="o" d="M143 369q-5 72 -5 143.5t5 142.5q12 166 127 277.5t293 111.5t293 -111.5t127 -277.5q5 -72 5 -143.5t-5 -142.5q-12 -166 -127 -277.5t-293 -111.5t-293 111.5t-127 277.5zM328 369q6 -86 69.5 -145.5t166 -59.5t166 59.5t69.5 145.5q5 72 5 143.5t-5 142.5 q-6 86 -69.5 145.5t-166 59.5t-166 -59.5t-69.5 -145.5q-5 -72 -5 -143t5 -143z"/>
<glyph unicode="p" d="M176 -369v1352q0 16 12.5 28.5t28.5 12.5h70q14 0 28 -14q29 -33 52 -33q18 0 79.5 33.5t149.5 33.5q158 0 267.5 -112.5t121.5 -276.5q5 -72 5 -143.5t-5 -142.5q-12 -164 -121.5 -276.5t-267.5 -112.5q-53 0 -114.5 25.5t-75.5 25.5q-45 0 -46 -51v-349 q0 -16 -12 -28.5t-29 -12.5h-102q-16 0 -28.5 12.5t-12.5 28.5zM340 369q6 -86 69.5 -145.5t166 -59.5t166 59.5t69.5 145.5q5 72 5 143.5t-5 142.5q-6 86 -69.5 145.5t-166 59.5t-166 -59.5t-69.5 -145.5q-5 -72 -5 -143t5 -143z"/>
<glyph unicode="q" d="M141 369q-5 72 -5 143.5t5 142.5q12 164 122 276.5t267 112.5q88 0 149.5 -33.5t80.5 -33.5q23 0 51 33q14 14 29 14h69q16 0 28.5 -12.5t12.5 -28.5v-1352q0 -16 -12 -28.5t-29 -12.5h-102q-16 0 -28.5 12.5t-12.5 28.5v349q0 51 -45 51q-14 0 -75.5 -25.5t-115.5 -25.5 q-158 0 -267.5 112.5t-121.5 276.5zM315 369q6 -86 70 -145.5t166 -59.5t165.5 59.5t69.5 145.5q5 72 5.5 143.5t-5.5 142.5q-6 86 -69.5 145.5t-165.5 59.5t-165.5 -59.5t-70.5 -145.5q-5 -72 -5 -143t5 -143z"/>
<glyph unicode="r" d="M215 41v942q0 16 12.5 28.5t28.5 12.5h90q14 0 29 -14q29 -33 51 -33q18 0 85 33.5t155 33.5q152 0 259 -100t107 -248q0 -16 -12 -28.5t-29 -12.5h-104q-16 0 -28.5 12.5t-12.5 28.5q0 72 -57.5 118t-143.5 46q-100 0 -173 -54t-73 -140v-625q0 -16 -12 -28.5t-29 -12.5 h-102q-16 0 -28.5 12.5t-12.5 28.5z"/>
<glyph unicode="s" d="M158 307v27q0 16 12 28.5t29 12.5h102q16 0 28.5 -12.5t12.5 -28.5v-27q0 -82 66.5 -116.5t154.5 -34.5q219 0 219 151q0 61 -54 90t-165 52q-70 14 -105.5 23t-95 32.5t-90 51.5t-55 78t-24.5 114q0 133 111.5 214.5t259 81.5t256 -83.5t108.5 -223.5q0 -16 -12.5 -28.5 t-28.5 -12.5h-103q-16 0 -28.5 12.5t-12.5 28.5q0 57 -45 95t-135 38q-88 0 -134 -36.5t-46 -86t44 -73t136 -41.5q186 -39 248 -70q156 -78 156 -256q0 -156 -117 -241.5t-287 -85.5q-168 0 -286.5 83.5t-118.5 243.5z"/>
<glyph unicode="t" d="M102 870v103q0 16 12.5 28.5t28.5 12.5h205q20 0 21 20v318q0 16 12 28.5t29 12.5h102q16 0 28.5 -12.5t12.5 -28.5v-318q0 -20 20 -20h328q16 0 28.5 -12.5t12.5 -28.5v-103q0 -16 -12 -28.5t-29 -12.5h-328q-20 0 -20 -20v-502q0 -57 41 -100t102.5 -43t102.5 43 t41 100q0 16 12 28.5t29 12.5h102q16 0 28.5 -12t12.5 -29q0 -135 -96.5 -231t-231.5 -96t-231 96t-96 231v502q0 20 -21 20h-205q-16 0 -28.5 12.5t-12.5 28.5z"/>
<glyph unicode="u" d="M154 369v614q0 16 12 28.5t29 12.5h102q16 0 28.5 -12.5t12.5 -28.5v-614q0 -88 64.5 -146.5t160.5 -58.5t160.5 53t64.5 141v625q0 16 12.5 28.5t28.5 12.5h103q16 0 28.5 -12.5t12.5 -28.5v-942q0 -16 -12.5 -28.5t-28.5 -12.5h-90q-14 0 -29 14q-29 33 -51 33 q-18 0 -74.5 -33.5t-144.5 -33.5q-162 0 -275.5 113.5t-113.5 275.5z"/>
<glyph unicode="v" d="M106 977q-2 6 -2 11q0 10 8 21q11 15 33 15h127q29 0 39 -31l238 -682q4 -10 14 -10t15 10l237 682q10 31 39 31h127q23 0 34 -15q7 -10 7 -21q0 -6 -2 -11l-361 -946q-12 -31 -38 -31h-113q-27 0 -39 31z"/>
<glyph unicode="w" d="M86 977q-1 5 -1 10q0 12 7 23q10 14 33 14h100q33 0 39 -31l92 -610q4 -12 14.5 -12t14.5 12l102 385q8 31 39 31h74q31 0 39 -31l102 -385q4 -12 14.5 -12t14.5 12l92 610q6 31 39 31h100q23 0 33 -14q7 -10 8 -23q0 -5 -2 -10l-174 -946q-6 -31 -39 -31h-112 q-31 0 -39 31l-101 399q-2 10 -12 10t-12 -10l-100 -399q-8 -31 -39 -31h-113q-33 0 -39 31z"/>
<glyph unicode="x" d="M145 22q-4 8 -4 16q0 14 11 30l288 458q8 14 2 27l-256 403q-16 25 -6 46.5t39 21.5h115q33 0 45 -20l176 -297q8 -16 16 0l177 297q12 20 45 20h114q29 0 39 -21.5t-6 -46.5l-256 -403q-6 -12 2 -27l289 -458q10 -16 10 -30q0 -9 -4 -16q-10 -22 -39 -22h-119 q-33 0 -45 20l-207 349q-8 16 -16 0l-207 -349q-12 -20 -45 -20h-119q-29 0 -39 22z"/>
<glyph unicode="y" d="M109 977q-2 6 -3 11q0 10 8 21q11 15 33 15h125q29 0 39 -31l252 -665q8 -20 17 0l237 665q10 31 39 31h121q23 0 34 -15q7 -10 7 -21q0 -6 -2 -11l-520 -1356q-10 -31 -39 -31h-111q-23 0 -34 15.5t-5 32.5l152 417q6 16 2 27z"/>
<glyph unicode="z" d="M154 41v121q0 33 26 63l539 602q6 8 3 14.5t-13 6.5h-494q-16 0 -28.5 12t-12.5 29v94q0 16 12.5 28.5t28.5 12.5h696q16 0 28.5 -12.5t12.5 -28.5v-117q0 -35 -41 -84l-516 -585q-6 -8 -3 -14.5t14 -6.5h526q16 0 28.5 -12t12.5 -29v-94q0 -16 -12.5 -28.5t-28.5 -12.5 h-737q-16 0 -28.5 12.5t-12.5 28.5z"/>
<glyph unicode="{" d="M229 614v82q0 25 41 41l23 11q37 16 37 40v256q0 178 112.5 304.5t307.5 126.5h86q16 0 28.5 -12.5t12.5 -28.5v-99q0 -16 -12.5 -28.5t-28.5 -12.5h-86q-102 0 -169 -68.5t-67 -181.5v-256q0 -82 -84 -133q84 -51 84 -133v-276q0 -113 66.5 -181.5t169.5 -68.5h106 q16 0 28.5 -12.5t12.5 -28.5v-98q0 -16 -12.5 -28.5t-28.5 -12.5h-106q-195 0 -307.5 126t-112.5 304v276q0 25 -37 41l-23 10q-41 16 -41 41z"/>
<glyph unicode="|" d="M475 -102v1536q0 16 12.5 28.5t28.5 12.5h92q16 0 28.5 -12.5t12.5 -28.5v-1536q0 -16 -12 -28.5t-29 -12.5h-92q-16 0 -28.5 12.5t-12.5 28.5z"/>
<glyph unicode="}" d="M229 -45q0 16 12.5 28.5t28.5 12.5h107q102 0 168.5 68.5t66.5 181.5v276q0 82 84 133q-84 51 -84 133v256q0 113 -66.5 181.5t-168.5 68.5h-86q-16 0 -28.5 12.5t-12.5 28.5v99q0 16 12 28.5t29 12.5h86q195 0 307.5 -126t112.5 -305v-256q0 -25 37 -40l22 -11 q41 -16 41 -41v-82q0 -25 -41 -41l-22 -10q-37 -16 -37 -41v-276q0 -178 -113 -304t-307 -126h-107q-16 0 -28.5 12t-12.5 29v98z"/>
<glyph unicode="~" d="M143 446v103q0 55 54.5 90t132.5 35q104 0 229 -46t238 -46q35 0 72.5 16t54.5 37q10 12 24.5 16t24.5 -6t10 -29v-102q0 -55 -54.5 -90t-131.5 -35q-104 0 -229.5 46t-237.5 46q-35 0 -73 -16t-54 -37q-10 -12 -24.5 -16t-25 6t-10.5 28z"/>
<glyph unicode="¡" d="M434 813v170q0 16 12.5 28.5t28.5 12.5h170q16 0 28.5 -12.5t12.5 -28.5v-170q0 -16 -12 -28.5t-29 -12.5h-170q-16 0 -28.5 12.5t-12.5 28.5zM461 -369v963q0 16 12 28.5t29 12.5h114q16 0 28.5 -12.5t12.5 -28.5v-963q0 -16 -12 -28.5t-29 -12.5h-114q-16 0 -28.5 12.5 t-12.5 28.5z"/>
<glyph unicode="¢" d="M164 369q-10 143 0 286q10 141 91 243.5t214 133.5q23 6 23 21v73q0 16 12 28.5t28 12.5h93q16 0 28.5 -12t12.5 -29v-73q0 -14 20 -21q129 -31 206 -122t77 -214q0 -41 -35 -41h-111q-39 0 -39 33q0 74 -58 123t-153 49q-100 0 -159.5 -59.5t-65.5 -145.5 q-10 -143 0 -286q6 -86 65.5 -145.5t159.5 -59.5q92 0 150.5 48t58.5 122q0 35 39 35h107q16 0 28.5 -12.5t12.5 -28.5q0 -123 -77 -214t-206 -122q-20 -6 -20 -21v-73q0 -16 -12.5 -28.5t-28.5 -12.5h-93q-16 0 -28 12t-12 29v71q0 14 -21 21q-135 31 -216 134.5t-91 244.5 z"/>
<glyph unicode="£" d="M106 41v113q0 16 12.5 28.5t28.5 12.5h11q63 0 104 64.5t41 170.5v184q0 25 -20 25h-117q-16 0 -28.5 12.5t-12.5 28.5v104q0 16 12.5 28.5t28.5 12.5h117q20 0 20 21v260q0 145 101.5 246.5t244.5 101.5q145 0 246.5 -102.5t101.5 -245.5v-21q0 -16 -12 -28.5t-29 -12.5 h-110q-16 0 -28.5 12.5t-12.5 28.5v21q0 66 -45 110t-110.5 44t-108.5 -44.5t-43 -109.5v-260q0 -20 20 -21h279q16 0 28.5 -12t12.5 -29v-104q0 -16 -12.5 -28.5t-28.5 -12.5h-279q-20 0 -20 -25v-184q0 -162 -49 -219q-6 -6 -4.5 -11t12.5 -5h520q16 0 28.5 -12.5 t12.5 -28.5v-113q0 -16 -12.5 -28.5t-28.5 -12.5h-827q-18 0 -31 12.5t-13 28.5z"/>
<glyph unicode="¥" d="M119 1376q-8 23 2 40.5t31 17.5h135q29 0 39 -31l231 -637q8 -20 16 0l228 637q10 31 39 31h135q20 0 30.5 -17.5t2.5 -40.5l-168 -434q-8 -25 14 -24h78q16 0 28.5 -12.5t12.5 -28.5v-91q0 -16 -12.5 -28.5t-28.5 -12.5h-156q-14 0 -18 -10l-27 -76q-4 -8 0 -16t14 -8 h187q16 0 28.5 -12.5t12.5 -28.5v-88q0 -16 -12.5 -28.5t-28.5 -12.5h-248q-20 0 -20 -21v-403q0 -16 -12.5 -28.5t-28.5 -12.5h-115q-16 0 -28.5 12.5t-12.5 28.5v403q0 20 -21 21h-251q-16 0 -28.5 12t-12.5 29v88q0 16 12 28.5t29 12.5h188q10 0 14 8t0 16l-26 76 q-4 10 -19 10h-157q-16 0 -28.5 12.5t-12.5 28.5v91q0 16 12 28.5t29 12.5h79q23 0 15 24z"/>
<glyph unicode="¦" d="M475 41v547q0 16 12.5 28.5t28.5 12.5h94q16 0 28.5 -12.5t12.5 -28.5v-547q0 -16 -12 -28.5t-29 -12.5h-94q-16 0 -28.5 12.5t-12.5 28.5zM475 860v547q0 16 12.5 28.5t28.5 12.5h94q16 0 28.5 -12.5t12.5 -28.5v-547q0 -16 -12 -28.5t-29 -12.5h-94q-16 0 -28.5 12.5 t-12.5 28.5z"/>
<glyph unicode="§" d="M125 625q0 137 151 249q27 18 5 48q-66 90 -66 190q0 150 110.5 240t256.5 90q154 0 255 -93.5t101 -246.5v-37q0 -16 -12.5 -28.5t-28.5 -12.5h-111q-16 0 -28.5 12.5t-12.5 28.5v37q0 66 -45 108.5t-118 42.5q-72 0 -117 -34.5t-45 -98.5q0 -90 67 -145l387 -332 q129 -111 130 -272q0 -154 -142 -262q-25 -18 -2 -48q55 -70 55 -178q0 -145 -110.5 -233t-255.5 -88q-156 0 -260.5 88t-104.5 250v59q0 16 12.5 28.5t28.5 12.5h111q16 0 28.5 -12.5t12.5 -28.5v-59q0 -152 172 -152q160 0 160 135q0 68 -76 133q-164 135 -385 334 q-68 61 -95.5 123t-27.5 152zM381 496l307 -258q20 -16 41 0q154 125 23 258l-310 266q-20 16 -41 0q-161 -141 -20 -266z"/>
<glyph unicode="¨" d="M285 1274v141q0 12 9 22.5t23 10.5h140q14 0 23 -10.5t9 -22.5v-141q0 -33 -32 -33h-140q-32 0 -32 33zM635 1274v141q0 12 9 22.5t24 10.5h139q14 0 23.5 -10.5t9.5 -22.5v-141q0 -33 -33 -33h-139q-33 0 -33 33z"/>
<glyph unicode="©" d="M35 717q0 217 153.5 370.5t372.5 153.5q217 0 370.5 -153.5t153.5 -370.5q0 -219 -153.5 -373t-370.5 -154t-371.5 155t-154.5 372zM168 717q0 -164 114.5 -278.5t278.5 -114.5t277.5 114.5t113.5 278.5t-113.5 277.5t-277.5 113.5t-278.5 -113.5t-114.5 -277.5zM352 647 q18 -227 209 -227q96 0 148.5 57.5t52.5 147.5q0 23 -25 22h-75q-25 0 -25 -18q0 -41 -22.5 -67.5t-53.5 -26.5q-39 0 -62.5 31.5t-27.5 80.5q-4 63 0 127q4 49 27.5 81t62.5 32q33 0 55.5 -26.5t22.5 -69.5q0 -16 23 -17h81q18 0 19 23q0 90 -52.5 147t-148.5 57 q-195 0 -209 -227q-6 -64 0 -127z"/>
<glyph unicode="ª" d="M205 1081.5q0 69.5 46 119.5t132 50h125q10 0 10 11v18q0 61 -84 61q-88 0 -88 -38q0 -16 -22 -17h-76q-20 0 -21 21q0 68 60.5 105.5t146.5 37.5q84 0 145.5 -48t61.5 -136v-318q0 -20 -20 -20h-56q-8 0 -14 6q-16 23 -21 22q-2 0 -43 -19t-86 -19q-92 0 -144 47 t-52 116.5zM328 1085q0 -55 90 -55q43 0 75.5 21.5t32.5 62.5v19q0 10 -10 10h-113q-75 -1 -75 -58z"/>
<glyph unicode="«" d="M236 504q-18 29 0 57l196 330q18 31 51 31h92q31 0 41.5 -18.5t-8.5 -49.5l-174 -297q-16 -23 0 -49l174 -297q18 -31 8 -49.5t-41 -18.5h-92q-33 0 -51 31zM600 504q-18 29 0 57l197 330q18 31 51 31h92q31 0 41 -18.5t-8 -49.5l-174 -297q-16 -23 0 -49l174 -297 q18 -31 8 -49.5t-41 -18.5h-92q-33 0 -51 31z"/>
<glyph unicode="¬" d="M102 471v102q0 16 12.5 28.5t28.5 12.5h799q16 0 28.5 -12t12.5 -29v-348q0 -16 -12.5 -28.5t-28.5 -12.5h-102q-16 0 -28.5 12.5t-12.5 28.5v185q0 20 -21 20h-635q-16 0 -28.5 12.5t-12.5 28.5z"/>
<glyph unicode="­" d="M242 477v139q0 16 12 28.5t29 12.5h559q16 0 28.5 -12t12.5 -29v-139q0 -16 -12.5 -28.5t-28.5 -12.5h-559q-16 0 -28.5 12.5t-12.5 28.5z"/>
<glyph unicode="®" d="M41 717q0 217 153.5 370.5t372.5 153.5t372 -153.5t153 -370.5q0 -219 -154 -373t-371 -154q-219 0 -372.5 155t-153.5 372zM174 717q0 -164 114.5 -278.5t278.5 -114.5t277.5 114.5t113.5 278.5t-114.5 277.5t-276.5 113.5q-164 0 -278.5 -113.5t-114.5 -277.5zM385 465 v506q0 23 18 22h207q74 0 125 -52t51 -126q0 -98 -84 -151q-20 -12 -21 -13.5t1 -19.5l88 -156q8 -12 2 -22.5t-20 -10.5h-66q-20 0 -33 23l-84 156q-4 14 -18 14h-43q-12 0 -12 -10v-160q0 -23 -21 -23h-72q-18 0 -18 23zM496 758q0 -8 12 -8h102q31 0 48.5 19t17.5 46 t-17.5 46.5t-48.5 19.5h-102q-12 0 -12 -13v-110z"/>
<glyph unicode="°" d="M156 1198q0 127 89 215t216 88q125 0 214 -89t89 -214q0 -127 -88 -216t-215 -89t-216 89t-89 216zM322 1198q0 -57 40.5 -98t98 -41t98.5 41t41 98t-41 98t-98.5 41t-98 -41t-40.5 -98z"/>
<glyph unicode="±" d="M113 803v106q0 16 12 28.5t29 12.5h295q20 0 20 21v295q0 16 12.5 28.5t28.5 12.5h106q16 0 28.5 -12.5t12.5 -28.5v-295q0 -20 21 -21h295q16 0 28.5 -12t12.5 -29v-106q0 -16 -12.5 -28.5t-28.5 -12.5h-295q-20 0 -21 -21v-295q0 -16 -12 -28t-29 -12h-106 q-16 0 -28.5 12t-12.5 28v295q0 20 -20 21h-295q-16 0 -28.5 12.5t-12.5 28.5zM119 41v106q0 16 12 28.5t29 12.5h807q16 0 28.5 -12t12.5 -29v-106q0 -16 -12.5 -28.5t-28.5 -12.5h-807q-16 0 -28.5 12.5t-12.5 28.5z"/>
<glyph unicode="²" d="M92 737v90q0 16 10 27l242 250q66 82 66 135q0 39 -26 60.5t-58 21.5q-29 0 -54.5 -20.5t-25.5 -57.5v-24q0 -20 -21 -21h-94q-20 0 -20 21v34q0 82 65.5 139.5t149.5 57.5t150.5 -57.5t66.5 -139.5q0 -113 -99 -221l-153 -168q-4 -4 -2 -10t10 -6h236q20 0 20 -21v-90 q0 -20 -20 -20h-422q-21 0 -21 20z"/>
<glyph unicode="³" d="M102 918v26q0 20 21 21h98q20 0 21 -21v-26q0 -35 30.5 -57.5t67.5 -22.5q43 0 69.5 27.5t26.5 64.5q0 39 -23.5 69.5t-70.5 30.5h-12q-20 0 -21 21v86q0 20 21 20h12q80 0 80 96q0 29 -23.5 52.5t-58.5 23.5q-33 0 -58.5 -22.5t-25.5 -53.5v-34q0 -20 -20 -21h-97 q-20 0 -20 21v34q0 82 67.5 139.5t153.5 57.5t152.5 -57.5t66.5 -139.5q0 -100 -65 -147q-12 -10 0 -19q82 -57 81 -157q0 -94 -63 -158.5t-172 -64.5q-92 0 -165 61.5t-73 149.5z"/>
<glyph unicode="´" d="M365 1239l155 223q23 33 53 33h162q18 0 25.5 -16.5t-2.5 -26.5l-221 -229q-25 -25 -62 -25h-82q-18 0 -27 14.5t-1 26.5z"/>
<glyph unicode="µ" d="M154 -369v1352q0 16 12 28.5t29 12.5h102q16 0 28.5 -12.5t12.5 -28.5v-614q0 -88 64.5 -146.5t160.5 -58.5t160.5 53t64.5 141v625q0 16 12.5 28.5t28.5 12.5h103q16 0 28.5 -12.5t12.5 -28.5v-942q0 -16 -12.5 -28.5t-28.5 -12.5h-90q-14 0 -29 14q-29 33 -51 33 q-18 0 -74.5 -33.5t-144.5 -33.5q-72 0 -160 59q-14 10 -31.5 3t-17.5 -30v-381q0 -16 -12.5 -28.5t-28.5 -12.5h-98q-16 0 -28.5 12.5t-12.5 28.5z"/>
<glyph unicode="μ" d="M154 -369v1352q0 16 12 28.5t29 12.5h102q16 0 28.5 -12.5t12.5 -28.5v-614q0 -88 64.5 -146.5t160.5 -58.5t160.5 53t64.5 141v625q0 16 12.5 28.5t28.5 12.5h103q16 0 28.5 -12.5t12.5 -28.5v-942q0 -16 -12.5 -28.5t-28.5 -12.5h-90q-14 0 -29 14q-29 33 -51 33 q-18 0 -74.5 -33.5t-144.5 -33.5q-72 0 -160 59q-14 10 -31.5 3t-17.5 -30v-381q0 -16 -12.5 -28.5t-28.5 -12.5h-98q-16 0 -28.5 12.5t-12.5 28.5z"/>
<glyph unicode="¶" d="M102 1085q0 143 102.5 246t246.5 103h491q16 0 28.5 -12.5t12.5 -28.5v-1557q0 -16 -12.5 -28.5t-28.5 -12.5h-82q-16 0 -28.5 12.5t-12.5 28.5v1424q0 20 -20 20h-164q-20 0 -21 -20v-1424q0 -16 -12 -28.5t-29 -12.5h-81q-16 0 -28.5 12.5t-12.5 28.5v881q0 20 -21 20 q-135 0 -231.5 103.5t-96.5 244.5z"/>
<glyph unicode="·" d="M379 399v287q0 16 12 28.5t29 12.5h287q16 0 28.5 -12.5t12.5 -28.5v-287q0 -16 -12.5 -28.5t-28.5 -12.5h-287q-16 0 -28.5 12.5t-12.5 28.5z"/>
<glyph unicode="¸" d="M434 -373l78 248q8 33 39 33h108q41 0 33 -37l-57 -248q-8 -33 -39 -33h-129q-18 0 -27.5 11.5t-5.5 25.5z"/>
<glyph unicode="¹" d="M61 1102v119q0 16 21 43l176 161q6 10 21 11h104q20 0 20 -21v-678q0 -20 -20 -20h-96q-20 0 -21 20v508q0 4 -3 6t-5 -2l-174 -155q-6 -6 -14.5 -3t-8.5 11z"/>
<glyph unicode="º" d="M205 1130q-6 59 0 105q12 106 80.5 163.5t154.5 57.5t155 -57.5t81 -163.5q6 -45 0 -105q-12 -100 -82 -159.5t-154 -59.5t-153.5 59.5t-81.5 159.5zM328 1126q8 -39 37.5 -62.5t74.5 -23.5t75 23.5t38 62.5q8 61 0 107q-16 94 -112.5 94t-112.5 -94q-8 -46 0 -107z"/>
<glyph unicode="»" d="M145.5 161.5q-10.5 18.5 8.5 49.5l174 297q16 27 0 49l-174 297q-18 31 -8 49.5t40 18.5h93q33 0 51 -31l196 -330q18 -29 0 -57l-196 -330q-18 -31 -51 -31h-93q-30 0 -40.5 18.5zM510 161.5q-10 18.5 8 49.5l174 297q16 27 0 49l-174 297q-18 31 -8 49.5t41 18.5h92 q33 0 51 -31l197 -330q18 -29 0 -57l-197 -330q-18 -31 -51 -31h-92q-31 0 -41 18.5z"/>
<glyph unicode="¼" d="M51 1102v119q0 16 21 43l176 161q6 10 20 11h105q20 0 20 -21v-678q0 -20 -20 -20h-97q-20 0 -20 20v508q0 4 -3 6t-5 -2l-174 -155q-6 -6 -14.5 -3t-8.5 11zM143.5 18.5q12.5 -18.5 32.5 -18.5h55q25 0 43 31l668 1345q10 20 -1 39t-32 19h-57q-27 0 -45 -31l-664 -1346 q-12 -20 0.5 -38.5zM524 154v86q0 10 17 39l284 423q8 14 23 15h104q20 0 21 -21v-426q0 -10 10 -10h49q20 0 21 -20v-86q0 -20 -21 -21h-49q-10 0 -10 -10v-103q0 -20 -21 -20h-90q-20 0 -20 20v103q0 10 -11 10h-286q-21 1 -21 21zM676 268q-8 -8 4 -8h151q10 0 11 10v240 q0 4 -3 5t-5 -3z"/>
<glyph unicode="½" d="M51 1102v119q0 16 21 43l176 161q6 10 20 11h105q20 0 20 -21v-678q0 -20 -20 -20h-97q-20 0 -20 20v508q0 4 -3 6t-5 -2l-174 -155q-6 -6 -14.5 -3t-8.5 11zM143.5 18.5q12.5 -18.5 32.5 -18.5h55q25 0 43 31l668 1345q10 20 -1 39t-32 19h-57q-27 0 -45 -31l-664 -1346 q-12 -20 0.5 -38.5zM629 20q0 -20 20 -20h422q20 0 21 20v91q0 20 -21 20h-235q-8 0 -10.5 6t1.5 10l154 168q98 109 98 222q0 82 -66.5 139t-150.5 57t-149.5 -57.5t-65.5 -138.5v-35q0 -20 21 -21h94q20 0 20 21v24q0 37 26 57.5t54 20.5q33 0 58.5 -21.5t25.5 -60.5 q0 -53 -65 -135l-242 -250q-10 -10 -10 -26v-91z"/>
<glyph unicode="¾" d="M41 918v26q0 20 20 21h99q20 0 20 -21v-26q0 -35 31 -57.5t68 -22.5q43 0 69.5 27.5t26.5 64.5q0 39 -23.5 69.5t-70.5 30.5h-13q-20 0 -20 21v86q0 20 20 20h13q80 0 79 96q0 29 -23.5 52.5t-57.5 23.5q-33 0 -58.5 -22.5t-25.5 -53.5v-34q0 -20 -21 -21h-96 q-20 0 -21 21v34q0 82 68 139.5t154 57.5t152.5 -57.5t66.5 -139.5q0 -100 -66 -147q-12 -10 0 -19q82 -57 82 -157q0 -94 -63.5 -158.5t-171.5 -64.5q-92 0 -165 61.5t-73 149.5zM184.5 18.5q12.5 -18.5 32.5 -18.5h55q25 0 43 31l668 1345q10 20 -1 39t-32 19h-57 q-27 0 -45 -31l-664 -1346q-12 -20 0.5 -38.5zM565 154v86q0 10 17 39l284 423q8 14 23 15h104q20 0 21 -21v-426q0 -10 10 -10h49q20 0 21 -20v-86q0 -20 -21 -21h-49q-10 0 -10 -10v-103q0 -20 -21 -20h-90q-20 0 -20 20v103q0 10 -11 10h-286q-21 1 -21 21zM717 268 q-8 -8 4 -8h151q10 0 11 10v240q0 4 -3 5t-6 -3z"/>
<glyph unicode="¿" d="M178 -14q0 -174 109.5 -285t275.5 -111q164 0 273.5 115t109.5 281v30q0 16 -12 28.5t-29 12.5h-104q-16 0 -28.5 -12t-12.5 -29v-30q0 -80 -56.5 -143.5t-140.5 -63.5q-90 0 -143 60.5t-53 146.5q0 92 84 176q37 37 94 74.5t94 80.5t37 125v172q0 16 -12.5 28.5 t-28.5 12.5h-105q-16 0 -28.5 -12t-12.5 -29v-143q0 -29 -14 -52.5t-27.5 -34.5t-40.5 -30l-34 -22q-195 -149 -195 -346zM455 834v170q0 16 12 28t29 12h170q16 0 28.5 -12t12.5 -28v-170q0 -16 -12.5 -28.5t-28.5 -12.5h-170q-16 0 -28.5 12.5t-12.5 28.5z"/>
<glyph unicode="À" d="M72 41l381 1362q6 31 39 31h143q33 0 39 -31l381 -1362q4 -16 -7.5 -28.5t-33.5 -12.5h-113q-33 0 -39 31l-90 313q-6 29 -39 29h-340q-33 0 -39 -29l-90 -313q-6 -31 -39 -31h-112q-23 0 -34 12.5t-7 28.5zM261 1826.5q7 16.5 26 16.5h162q31 0 53 -33l155 -223 q8 -12 -1 -26.5t-27 -14.5h-82q-37 0 -62 25l-221 229q-10 10 -3 26.5zM420 586q-6 -23 16 -23h254q23 0 17 23l-134 571q-4 12 -8 12h-4q-4 0 -8 -12z"/>
<glyph unicode="Á" d="M72 41q-4 -16 7 -28.5t34 -12.5h112q33 0 39 31l90 313q6 29 39 29h340q33 0 39 -29l90 -313q6 -31 39 -31h113q23 0 34 12.5t7 28.5l-381 1362q-6 31 -39 31h-143q-33 0 -39 -31zM420 586l133 571q4 12 8 12h4q4 0 8 -12l134 -571q6 -23 -17 -23h-254q-22 0 -16 23z M467 1587l156 223q23 33 53 33h162q18 0 25 -16.5t-3 -26.5l-221 -229q-25 -25 -61 -25h-82q-18 0 -27.5 14.5t-1.5 26.5z"/>
<glyph unicode="Â" d="M72 41l381 1362q6 31 39 31h143q33 0 39 -31l381 -1362q4 -16 -7.5 -28.5t-33.5 -12.5h-113q-33 0 -39 31l-90 313q-6 29 -39 29h-340q-33 0 -39 -29l-90 -313q-6 -31 -39 -31h-112q-23 0 -34 12.5t-7 28.5zM234.5 1563.5q-7.5 17.5 3.5 25.5l221 230q25 25 61 24h2h82h2 q35 0 60 -24l221 -230q10 -8 3 -25.5t-26 -17.5h-121q-31 0 -63 33l-105 100q-14 14 -28 0l-103 -100q-33 -33 -63 -33h-121q-18 0 -25.5 17.5zM420 586q-6 -23 16 -23h254q23 0 17 23l-134 571q-4 12 -8 12h-4q-4 0 -8 -12z"/>
<glyph unicode="Ã" d="M72 41l381 1362q6 31 39 31h143q33 0 39 -31l381 -1362q4 -16 -7.5 -28.5t-33.5 -12.5h-113q-33 0 -39 31l-90 313q-6 29 -39 29h-340q-33 0 -39 -29l-90 -313q-6 -31 -39 -31h-112q-23 0 -34 12.5t-7 28.5zM274 1614v82q0 41 43 72.5t103 31.5q63 0 139 -25.5t148 -25.5 q59 0 94 43q12 16 31.5 8t19.5 -37v-82q0 -41 -43 -72.5t-102 -31.5q-63 0 -139 25.5t-148 25.5q-57 0 -94 -43q-12 -16 -32 -7t-20 36zM420 586q-6 -23 16 -23h254q23 0 17 23l-134 571q-4 12 -8 12h-4q-4 0 -8 -12z"/>
<glyph unicode="Ä" d="M72 41q-4 -16 7 -28.5t34 -12.5h112q33 0 39 31l90 313q6 29 39 29h340q33 0 39 -29l90 -313q6 -31 39 -31h113q23 0 34 12.5t7 28.5l-381 1362q-6 31 -39 31h-143q-33 0 -39 -31zM285 1622v141q0 12 9 22.5t23 10.5h140q14 0 23 -10t9 -23v-141q0 -33 -32 -33h-140 q-32 0 -32 33zM420 586l133 571q4 12 8 12h4q4 0 8 -12l134 -571q6 -23 -17 -23h-254q-22 0 -16 23zM635 1622v141q0 12 9 22.5t24 10.5h139q14 0 23.5 -10t9.5 -23v-141q0 -33 -33 -33h-139q-33 0 -33 33z"/>
<glyph unicode="Å" d="M72 41q-4 -16 7 -28.5t34 -12.5h112q33 0 39 31l90 313q6 29 39 29h340q33 0 39 -29l90 -313q6 -31 39 -31h113q23 0 34 12.5t7 28.5l-381 1362q-6 31 -39 31h-143q-33 0 -39 -31zM338 1720.5q0 94.5 65.5 160t159.5 65.5t159.5 -65.5t65.5 -160t-65.5 -160t-159.5 -65.5 t-159.5 65.5t-65.5 160zM420 586l133 571q4 12 8 12h4q4 0 8 -12l134 -571q6 -23 -17 -23h-254q-22 0 -16 23zM481 1720.5q0 -34.5 23.5 -58.5t58.5 -24t58.5 24t23.5 58.5t-23.5 58t-58.5 23.5t-58.5 -23.5t-23.5 -58z"/>
<glyph unicode="Æ" d="M29 41l374 1339q4 18 22.5 36t47.5 18h574q16 0 28 -12.5t12 -28.5v-113q0 -16 -12 -28.5t-28 -12.5h-242q-20 0 -21 -20v-369q0 -20 21 -21h219q16 0 28.5 -12t12.5 -29v-112q0 -16 -12.5 -28.5t-28.5 -12.5h-219q-20 0 -21 -21v-399q0 -20 21 -20h246q16 0 28.5 -12.5 t12.5 -28.5v-113q0 -16 -12.5 -28.5t-28.5 -12.5h-420q-16 0 -28.5 12.5t-12.5 28.5v299q0 33 -39 33h-207q-27 0 -33 -29l-90 -313q-6 -31 -39 -31h-112q-23 0 -34 12.5t-7 28.5zM377 586q-6 -23 16 -23h176q20 0 21 23v633q0 20 -21 20h-6q-23 0 -26 -20z"/>
<glyph unicode="Ç" d="M102 718q0 183 17 306q20 178 144 302t316.5 124t326.5 -116.5t134 -309.5v-29q0 -16 -12 -28.5t-29 -12.5h-112q-16 0 -28.5 12.5t-12.5 28.5v29q0 94 -74 161.5t-192 69.5q-104 0 -178 -61t-89 -170q-14 -127 -14 -307t14 -307q12 -96 83 -164t184 -68 q109 0 187.5 62.5t78.5 169.5v28q0 16 12 28.5t29 12.5h112q16 0 28.5 -12t12.5 -29v-28q0 -174 -131 -300t-329 -126q-186 0 -311.5 114.5t-149.5 311.5q-17 125 -17 308zM434 -373l78 248q8 33 39 33h108q41 0 33 -37l-57 -248q-8 -33 -39 -33h-129q-18 0 -27.5 11.5 t-5.5 25.5z"/>
<glyph unicode="È" d="M219 41v1352q0 16 12.5 28.5t28.5 12.5h682q16 0 28.5 -12.5t12.5 -28.5v-113q0 -16 -12.5 -28.5t-28.5 -12.5h-508q-20 0 -20 -20v-369q0 -20 20 -21h486q16 0 28.5 -12t12.5 -29v-112q0 -16 -12.5 -28.5t-28.5 -12.5h-486q-20 0 -20 -21v-399q0 -20 20 -20h512 q16 0 28.5 -12.5t12.5 -28.5v-113q0 -16 -12 -28.5t-29 -12.5h-686q-16 0 -28.5 12.5t-12.5 28.5zM302 1826.5q7 16.5 26 16.5h161q31 0 54 -33l155 -223q8 -12 -1 -26.5t-27 -14.5h-82q-37 0 -62 25l-221 229q-10 10 -3 26.5z"/>
<glyph unicode="É" d="M219 41q0 -16 12.5 -28.5t28.5 -12.5h686q16 0 28.5 12.5t12.5 28.5v113q0 16 -12 28.5t-29 12.5h-512q-20 0 -20 20v399q0 20 20 21h486q16 0 28.5 12t12.5 29v112q0 16 -12.5 28.5t-28.5 12.5h-486q-20 0 -20 21v369q0 20 20 20h508q16 0 28.5 12.5t12.5 28.5v113 q0 16 -12.5 28.5t-28.5 12.5h-682q-16 0 -28.5 -12.5t-12.5 -28.5v-1352zM467 1587l156 223q23 33 53 33h162q18 0 25 -16.5t-3 -26.5l-221 -229q-25 -25 -61 -25h-82q-18 0 -27.5 14.5t-1.5 26.5z"/>
<glyph unicode="Ê" d="M219 41v1352q0 16 12.5 28.5t28.5 12.5h682q16 0 28.5 -12.5t12.5 -28.5v-113q0 -16 -12.5 -28.5t-28.5 -12.5h-508q-20 0 -20 -20v-369q0 -20 20 -21h486q16 0 28.5 -12t12.5 -29v-112q0 -16 -12.5 -28.5t-28.5 -12.5h-486q-20 0 -20 -21v-399q0 -20 20 -20h512 q16 0 28.5 -12.5t12.5 -28.5v-113q0 -16 -12 -28.5t-29 -12.5h-686q-16 0 -28.5 12.5t-12.5 28.5zM275.5 1563.5q-7.5 17.5 3.5 25.5l221 230q25 25 61 24h2h82h2q35 0 60 -24l221 -230q10 -8 3 -25.5t-26 -17.5h-121q-31 0 -63 33l-105 100q-14 14 -28 0l-103 -100 q-33 -33 -63 -33h-121q-18 0 -25.5 17.5z"/>
<glyph unicode="Ë" d="M219 41q0 -16 12.5 -28.5t28.5 -12.5h686q16 0 28.5 12.5t12.5 28.5v113q0 16 -12 28.5t-29 12.5h-512q-20 0 -20 20v399q0 20 20 21h486q16 0 28.5 12t12.5 29v112q0 16 -12.5 28.5t-28.5 12.5h-486q-20 0 -20 21v369q0 20 20 20h508q16 0 28.5 12.5t12.5 28.5v113 q0 16 -12.5 28.5t-28.5 12.5h-682q-16 0 -28.5 -12.5t-12.5 -28.5v-1352zM326 1622v141q0 12 9 22.5t23 10.5h140q14 0 23 -10t9 -23v-141q0 -33 -32 -33h-140q-32 0 -32 33zM676 1622v141q0 12 9 22.5t24 10.5h139q14 0 23.5 -10t9.5 -23v-141q0 -33 -33 -33h-139 q-33 0 -33 33z"/>
<glyph unicode="Ì" d="M158 41v98q0 16 12 28.5t29 12.5h245q20 0 21 21v1034q0 20 -21 20h-225q-16 0 -28.5 12.5t-12.5 28.5v97q0 16 12.5 28.5t28.5 12.5h686q16 0 28.5 -12.5t12.5 -28.5v-97q0 -16 -12 -28.5t-29 -12.5h-225q-20 0 -21 -20v-1034q0 -20 21 -21h246q16 0 28.5 -12t12.5 -29 v-98q0 -16 -12.5 -28.5t-28.5 -12.5h-727q-16 0 -28.5 12.5t-12.5 28.5zM261 1826.5q7 16.5 26 16.5h162q31 0 53 -33l155 -223q8 -12 -1 -26.5t-27 -14.5h-82q-37 0 -62 25l-221 229q-10 10 -3 26.5z"/>
<glyph unicode="Í" d="M158 41v98q0 16 12 28.5t29 12.5h245q20 0 21 21v1034q0 20 -21 20h-225q-16 0 -28.5 12.5t-12.5 28.5v97q0 16 12.5 28.5t28.5 12.5h686q16 0 28.5 -12.5t12.5 -28.5v-97q0 -16 -12 -28.5t-29 -12.5h-225q-20 0 -21 -20v-1034q0 -20 21 -21h246q16 0 28.5 -12t12.5 -29 v-98q0 -16 -12.5 -28.5t-28.5 -12.5h-727q-16 0 -28.5 12.5t-12.5 28.5zM467 1587l156 223q23 33 53 33h162q18 0 25 -16.5t-3 -26.5l-221 -229q-25 -25 -61 -25h-82q-18 0 -27.5 14.5t-1.5 26.5z"/>
<glyph unicode="Î" d="M158 41v98q0 16 12 28.5t29 12.5h245q20 0 21 21v1034q0 20 -21 20h-225q-16 0 -28.5 12.5t-12.5 28.5v97q0 16 12.5 28.5t28.5 12.5h686q16 0 28.5 -12.5t12.5 -28.5v-97q0 -16 -12 -28.5t-29 -12.5h-225q-20 0 -21 -20v-1034q0 -20 21 -21h246q16 0 28.5 -12t12.5 -29 v-98q0 -16 -12.5 -28.5t-28.5 -12.5h-727q-16 0 -28.5 12.5t-12.5 28.5zM232.5 1563.5q-7.5 17.5 3.5 25.5l221 230q25 25 61 24h2h82h2q35 0 60 -24l221 -230q10 -8 3 -25.5t-26 -17.5h-121q-31 0 -63 33l-105 100q-14 14 -28 0l-103 -100q-33 -33 -63 -33h-121 q-18 0 -25.5 17.5z"/>
<glyph unicode="Ï" d="M158 41v98q0 16 12 28.5t29 12.5h245q20 0 21 21v1034q0 20 -21 20h-225q-16 0 -28.5 12.5t-12.5 28.5v97q0 16 12.5 28.5t28.5 12.5h686q16 0 28.5 -12.5t12.5 -28.5v-97q0 -16 -12 -28.5t-29 -12.5h-225q-20 0 -21 -20v-1034q0 -20 21 -21h246q16 0 28.5 -12t12.5 -29 v-98q0 -16 -12.5 -28.5t-28.5 -12.5h-727q-16 0 -28.5 12.5t-12.5 28.5zM285 1622v141q0 12 9 22.5t23 10.5h140q14 0 23 -10t9 -23v-141q0 -33 -32 -33h-140q-32 0 -32 33zM635 1622v141q0 12 9 22.5t24 10.5h139q14 0 23.5 -10t9.5 -23v-141q0 -33 -33 -33h-139 q-33 0 -33 33z"/>
<glyph unicode="Ð" d="M47 666v112q0 16 12.5 28.5t28.5 12.5h66q20 0 20 21v553q0 16 12.5 28.5t28.5 12.5h389q174 0 291 -123t139 -307q35 -272 0 -574q-20 -182 -138 -306t-292 -124h-389q-16 0 -28.5 12.5t-12.5 28.5v563q0 20 -20 21h-66q-16 0 -28.5 12.5t-12.5 28.5zM369 215 q0 -20 20 -20h215q90 0 157.5 69.5t78.5 165.5q16 123 16 287t-16 287q-10 96 -78 165.5t-158 69.5h-215q-20 0 -20 -20v-379q0 -20 20 -21h205q16 0 28.5 -12t12.5 -29v-112q0 -16 -12.5 -28.5t-28.5 -12.5h-205q-20 0 -20 -21v-389z"/>
<glyph unicode="Ñ" d="M133 41v1352q0 16 12.5 28.5t28.5 12.5h170q25 0 43 -35l404 -1010q4 -6 10 -5t6 9v1000q0 16 12 28.5t29 12.5h104q16 0 28.5 -12.5t12.5 -28.5v-1352q0 -16 -12 -28.5t-29 -12.5h-170q-25 0 -43 35l-403 1014q-4 6 -10.5 5t-6.5 -10v-1003q0 -16 -12 -28.5t-28 -12.5 h-105q-16 0 -28.5 12.5t-12.5 28.5zM274 1614v82q0 41 43 72.5t103 31.5q63 0 139 -25.5t148 -25.5q59 0 94 43q12 16 31.5 8t19.5 -37v-82q0 -41 -43 -72.5t-102 -31.5q-63 0 -139 25.5t-148 25.5q-57 0 -94 -43q-12 -16 -32 -7t-20 36z"/>
<glyph unicode="Ò" d="M86 718q0 183 16 306q20 178 144.5 302t316.5 124q186 0 311 -114.5t150 -311.5q14 -127 14 -307t-14 -307q-20 -178 -143 -302t-318 -124q-186 0 -311 114.5t-150 311.5q-16 125 -16 308zM261 1826.5q7 16.5 26 16.5h162q31 0 53 -33l155 -223q8 -12 -1 -26.5t-27 -14.5 h-82q-37 0 -62 25l-221 229q-10 10 -3 26.5zM283 717q0 -180 14 -307q12 -96 83 -164t183 -68q104 0 177 61.5t89 170.5q16 127 16.5 307t-16.5 307q-12 98 -81.5 163.5t-184.5 67.5q-104 0 -178 -61t-88 -170q-14 -127 -14 -307z"/>
<glyph unicode="Ó" d="M86 718q0 183 16 306q20 178 144.5 302t316.5 124q186 0 311 -114.5t150 -311.5q14 -127 14 -307t-14 -307q-20 -178 -143 -302t-318 -124q-186 0 -311 114.5t-150 311.5q-16 125 -16 308zM283 717q0 -180 14 -307q12 -96 83 -164t183 -68q104 0 177 61.5t89 170.5 q16 127 16.5 307t-16.5 307q-12 98 -81.5 163.5t-184.5 67.5q-104 0 -178 -61t-88 -170q-14 -127 -14 -307zM467 1587l156 223q23 33 53 33h162q18 0 25 -16.5t-3 -26.5l-221 -229q-25 -25 -61 -25h-82q-18 0 -27.5 14.5t-1.5 26.5z"/>
<glyph unicode="Ô" d="M86 718q0 183 16 306q20 178 144.5 302t316.5 124q186 0 311 -114.5t150 -311.5q14 -127 14 -307t-14 -307q-20 -178 -143 -302t-318 -124q-186 0 -311 114.5t-150 311.5q-16 125 -16 308zM234.5 1563.5q-7.5 17.5 3.5 25.5l221 230q25 25 61 24h2h82h2q35 0 60 -24 l221 -230q10 -8 3 -25.5t-26 -17.5h-121q-31 0 -63 33l-105 100q-14 14 -28 0l-103 -100q-33 -33 -63 -33h-121q-18 0 -25.5 17.5zM283 717q0 -180 14 -307q12 -96 83 -164t183 -68q104 0 177 61.5t89 170.5q16 127 16.5 307t-16.5 307q-12 98 -81.5 163.5t-184.5 67.5 q-104 0 -178 -61t-88 -170q-14 -127 -14 -307z"/>
<glyph unicode="Õ" d="M86 718q0 183 16 306q20 178 144.5 302t316.5 124q186 0 311 -114.5t150 -311.5q14 -127 14 -307t-14 -307q-20 -178 -143 -302t-318 -124q-186 0 -311 114.5t-150 311.5q-16 125 -16 308zM274 1614v82q0 41 43 72.5t103 31.5q63 0 139 -25.5t148 -25.5q59 0 94 43 q12 16 31.5 8t19.5 -37v-82q0 -41 -43 -72.5t-102 -31.5q-63 0 -139 25.5t-148 25.5q-57 0 -94 -43q-12 -16 -32 -7t-20 36zM283 717q0 -180 14 -307q12 -96 83 -164t183 -68q104 0 177 61.5t89 170.5q16 127 16.5 307t-16.5 307q-12 98 -81.5 163.5t-184.5 67.5 q-104 0 -178 -61t-88 -170q-14 -127 -14 -307z"/>
<glyph unicode="Ö" d="M86 718q0 183 16 306q20 178 144.5 302t316.5 124q186 0 311 -114.5t150 -311.5q14 -127 14 -307t-14 -307q-20 -178 -143 -302t-318 -124q-186 0 -311 114.5t-150 311.5q-16 125 -16 308zM283 717q0 -180 14 -307q12 -96 83 -164t183 -68q104 0 177 61.5t89 170.5 q16 127 16.5 307t-16.5 307q-12 98 -81.5 163.5t-184.5 67.5q-104 0 -178 -61t-88 -170q-14 -127 -14 -307zM285 1622v141q0 12 9 22.5t23 10.5h140q14 0 23 -10t9 -23v-141q0 -33 -32 -33h-140q-32 0 -32 33zM635 1622v141q0 12 9 22.5t24 10.5h139q14 0 23.5 -10t9.5 -23 v-141q0 -33 -33 -33h-139q-33 0 -33 33z"/>
<glyph unicode="×" d="M174 758q-29 29 0 57l76 76q29 29 57 0l232 -232q14 -14 28 0l230 230q29 29 57 0l76 -76q29 -29 0 -57l-230 -230q-14 -14 0 -28l232 -232q29 -29 0 -57l-76 -76q-29 -29 -57 0l-232 232q-14 14 -28 0l-230 -230q-29 -29 -57 0l-76 76q-29 29 0 57l230 230q14 14 0 28z "/>
<glyph unicode="Ø" d="M70 57l84 136q12 18 0 36q-39 86 -52 181q-16 125 -16 308t16 306q20 178 144.5 302t316.5 124q160 0 275 -84q12 -12 22 4l23 33q18 31 39 31h106q20 0 31.5 -18.5t1.5 -39.5l-92 -145q-6 -10 0 -23q39 -80 55 -184q14 -127 14 -307t-14 -307q-20 -178 -143 -302 t-318 -124q-158 0 -270 79q-14 8 -23 -4l-18 -28q-18 -31 -43 -31h-107q-20 0 -30 17t-2 40zM291 459q0 -12 5 -15.5t15 11.5l430 716q10 18 -2 25q-70 57 -176 59q-104 0 -178 -61t-88 -170q-33 -262 -6 -565zM395 262q-12 -23 4 -35q66 -49 164 -49q104 0 177 61.5 t89 170.5q35 260 7 563q0 4 -2.5 7t-7.5 2t-9 -9z"/>
<glyph unicode="Ù" d="M102 410v983q0 16 12.5 28.5t28.5 12.5h113q16 0 28.5 -12.5t12.5 -28.5v-983q0 -115 78 -173.5t188 -58.5q115 0 189.5 65.5t76.5 166.5v983q0 16 12.5 28.5t28.5 12.5h113q16 0 28.5 -12.5t12.5 -28.5v-983q0 -182 -136 -304t-325 -122q-199 0 -330 121t-131 305z M261 1826.5q7 16.5 26 16.5h162q31 0 53 -33l155 -223q8 -12 -1 -26.5t-27 -14.5h-82q-37 0 -62 25l-221 229q-10 10 -3 26.5z"/>
<glyph unicode="Ú" d="M102 410q0 -184 131.5 -305t329.5 -121q188 0 324.5 121.5t136.5 304.5v983q0 16 -12.5 28.5t-28.5 12.5h-113q-16 0 -28.5 -12.5t-12.5 -28.5v-983q-2 -100 -76.5 -166t-189.5 -66q-111 0 -188.5 58.5t-77.5 173.5v983q0 16 -12.5 28.5t-28.5 12.5h-113 q-16 0 -28.5 -12.5t-12.5 -28.5v-983zM467 1587l156 223q23 33 53 33h162q18 0 25 -16.5t-3 -26.5l-221 -229q-25 -25 -61 -25h-82q-18 0 -27.5 14.5t-1.5 26.5z"/>
<glyph unicode="Û" d="M102 410v983q0 16 12.5 28.5t28.5 12.5h113q16 0 28.5 -12.5t12.5 -28.5v-983q0 -115 78 -173.5t188 -58.5q115 0 189.5 65.5t76.5 166.5v983q0 16 12.5 28.5t28.5 12.5h113q16 0 28.5 -12.5t12.5 -28.5v-983q0 -182 -136 -304t-325 -122q-199 0 -330 121t-131 305z M234.5 1563.5q-7.5 17.5 3.5 25.5l221 230q25 25 61 24h2h82h2q35 0 60 -24l221 -230q10 -8 3 -25.5t-26 -17.5h-121q-31 0 -63 33l-105 100q-14 14 -28 0l-103 -100q-33 -33 -63 -33h-121q-18 0 -25.5 17.5z"/>
<glyph unicode="Ü" d="M102 410q0 -184 131.5 -305t329.5 -121q188 0 324.5 121.5t136.5 304.5v983q0 16 -12.5 28.5t-28.5 12.5h-113q-16 0 -28.5 -12.5t-12.5 -28.5v-983q-2 -100 -76.5 -166t-189.5 -66q-111 0 -188.5 58.5t-77.5 173.5v983q0 16 -12.5 28.5t-28.5 12.5h-113 q-16 0 -28.5 -12.5t-12.5 -28.5v-983zM285 1622v141q0 12 9 22.5t23 10.5h140q14 0 23 -10t9 -23v-141q0 -33 -32 -33h-140q-32 0 -32 33zM635 1622v141q0 12 9 22.5t24 10.5h139q14 0 23.5 -10t9.5 -23v-141q0 -33 -33 -33h-139q-33 0 -33 33z"/>
<glyph unicode="Ý" d="M119 1376l348 -884v-451q0 -16 12.5 -28.5t28.5 -12.5h115q16 0 28.5 12.5t12.5 28.5v453l344 882q8 23 -2.5 40.5t-30.5 17.5h-135q-29 0 -39 -31l-228 -637q-8 -20 -16 0l-231 637q-10 31 -39 31h-135q-20 0 -30.5 -17.5t-2.5 -40.5zM467 1587l156 223q23 33 53 33h162 q18 0 25 -16.5t-3 -26.5l-221 -229q-25 -25 -61 -25h-82q-18 0 -27.5 14.5t-1.5 26.5z"/>
<glyph unicode="Þ" d="M174 41v1352q0 16 12.5 28.5t28.5 12.5h113q16 0 28.5 -12.5t12.5 -28.5v-164q0 -20 20 -21h174q178 0 304 -126t126 -304v-102q0 -178 -126 -304t-304 -126h-174q-20 0 -20 -21v-184q0 -16 -12.5 -28.5t-28.5 -12.5h-113q-16 0 -28.5 12.5t-12.5 28.5zM369 461 q0 -20 20 -21h174q96 0 166 70t70 166v102q0 96 -70 166t-166 70h-174q-20 0 -20 -21v-532z"/>
<glyph unicode="ß" d="M145 41v1018q0 164 118 279.5t286 115.5t283.5 -115.5t115.5 -279.5q0 -162 -119 -281q-27 -27 -2 -49q152 -131 152 -323q0 -174 -125 -290t-305 -116h-41q-16 0 -28.5 12.5t-12.5 28.5v102q0 16 12.5 28.5t28.5 12.5h41q104 0 175 64.5t71 157.5q0 100 -59.5 175.5 t-182.5 75.5h-25q-16 0 -28.5 12.5t-12.5 28.5v101q0 16 12.5 28.5t28.5 12.5h25q100 0 155.5 63.5t55.5 155.5q0 88 -59.5 149.5t-155.5 61.5t-155.5 -61.5t-59.5 -149.5v-1018q0 -16 -12.5 -28.5t-28.5 -12.5h-107q-16 0 -28.5 12.5t-12.5 28.5z"/>
<glyph unicode="à" d="M172 307q0 133 91 222t247 89h250q20 0 20 21v68q0 80 -53 120.5t-137 40.5q-31 0 -59.5 -5t-60.5 -16t-51.5 -36t-19.5 -59.5t-47 -34.5h-92q-41 0 -41 41q0 133 113.5 209.5t257.5 76.5q156 0 265.5 -101t109.5 -267v-635q0 -16 -12.5 -28.5t-28.5 -12.5h-70 q-16 0 -29 14q-2 4 -10 17.5t-14 19.5t-17 6q-12 0 -40.5 -19.5t-81 -38.5t-117.5 -19q-180 0 -276.5 94t-96.5 233zM302 1478.5q7 16.5 26 16.5h161q31 0 54 -33l155 -223q8 -12 -1 -26.5t-27 -14.5h-82q-37 0 -62 25l-221 229q-10 10 -3 26.5zM356 309q0 -76 47.5 -117.5 t135.5 -41.5q137 0 197.5 53t60.5 162v65q0 20 -21 21h-266q-154 -1 -154 -142z"/>
<glyph unicode="á" d="M172 307q0 133 91 222t247 89h250q20 0 20 21v68q0 80 -53 120.5t-137 40.5q-31 0 -59.5 -5t-60.5 -16t-51.5 -36t-19.5 -59.5t-47 -34.5h-92q-41 0 -41 41q0 133 113.5 209.5t257.5 76.5q156 0 265.5 -101t109.5 -267v-635q0 -16 -12.5 -28.5t-28.5 -12.5h-70 q-16 0 -29 14q-2 4 -10 17.5t-14 19.5t-17 6q-12 0 -40.5 -19.5t-81 -38.5t-117.5 -19q-180 0 -276.5 94t-96.5 233zM356 309q0 -76 47.5 -117.5t135.5 -41.5q137 0 197.5 53t60.5 162v65q0 20 -21 21h-266q-154 -1 -154 -142zM508 1239l156 223q23 33 53 33h162 q18 0 25 -16.5t-3 -26.5l-221 -229q-25 -25 -62 -25h-81q-18 0 -27.5 14.5t-1.5 26.5z"/>
<glyph unicode="â" d="M172 307q0 133 91 222t247 89h250q20 0 20 21v68q0 80 -53 120.5t-137 40.5q-31 0 -59.5 -5t-60.5 -16t-51.5 -36t-19.5 -59.5t-47 -34.5h-92q-41 0 -41 41q0 133 113.5 209.5t257.5 76.5q156 0 265.5 -101t109.5 -267v-635q0 -16 -12.5 -28.5t-28.5 -12.5h-70 q-16 0 -29 14q-2 4 -10 17.5t-14 19.5t-17 6q-12 0 -40.5 -19.5t-81 -38.5t-117.5 -19q-180 0 -276.5 94t-96.5 233zM275.5 1215.5q-7.5 17.5 3.5 25.5l221 229q25 25 61 25h2h82h2q35 0 60 -25l221 -229q10 -8 3 -25.5t-26 -17.5h-121q-31 0 -63 33l-105 100q-14 14 -28 0 l-103 -100q-33 -33 -63 -33h-121q-18 0 -25.5 17.5zM356 309q0 -76 47.5 -117.5t135.5 -41.5q137 0 197.5 53t60.5 162v65q0 20 -21 21h-266q-154 -1 -154 -142z"/>
<glyph unicode="ã" d="M172 307q0 133 91 222t247 89h250q20 0 20 21v68q0 80 -53 120.5t-137 40.5q-31 0 -59.5 -5t-60.5 -16t-51.5 -36t-19.5 -59.5t-47 -34.5h-92q-41 0 -41 41q0 133 113.5 209.5t257.5 76.5q156 0 265.5 -101t109.5 -267v-635q0 -16 -12.5 -28.5t-28.5 -12.5h-70 q-16 0 -29 14q-2 4 -10 17.5t-14 19.5t-17 6q-12 0 -40.5 -19.5t-81 -38.5t-117.5 -19q-180 0 -276.5 94t-96.5 233zM315 1266v82q0 41 43 72.5t103 31.5q63 0 139 -25.5t148 -25.5q59 0 94 43q12 16 31.5 8t19.5 -37v-82q0 -41 -43 -72.5t-102 -31.5q-63 0 -139.5 25.5 t-147.5 25.5q-57 0 -94 -43q-12 -16 -32 -7t-20 36zM356 309q0 -76 47.5 -117.5t135.5 -41.5q137 0 197.5 53t60.5 162v65q0 20 -21 21h-266q-154 -1 -154 -142z"/>
<glyph unicode="ä" d="M172 307q0 133 91 222t247 89h250q20 0 20 21v68q0 80 -53 120.5t-137 40.5q-31 0 -59.5 -5t-60.5 -16t-51.5 -36t-19.5 -59.5t-47 -34.5h-92q-41 0 -41 41q0 133 113.5 209.5t257.5 76.5q156 0 265.5 -101t109.5 -267v-635q0 -16 -12.5 -28.5t-28.5 -12.5h-70 q-16 0 -29 14q-2 4 -10 17.5t-14 19.5t-17 6q-12 0 -40.5 -19.5t-81 -38.5t-117.5 -19q-180 0 -276.5 94t-96.5 233zM326 1274v141q0 12 9 22.5t23 10.5h140q14 0 23 -10.5t9 -22.5v-141q0 -33 -32 -33h-140q-32 0 -32 33zM356 309q0 -76 47.5 -117.5t135.5 -41.5 q137 0 197.5 53t60.5 162v65q0 20 -21 21h-266q-154 -1 -154 -142zM676 1274v141q0 12 9 22.5t24 10.5h139q14 0 23.5 -10.5t9.5 -22.5v-141q0 -33 -33 -33h-139q-33 0 -33 33z"/>
<glyph unicode="å" d="M172 307q0 133 91 222t247 89h250q20 0 20 21v68q0 80 -53 120.5t-137 40.5q-31 0 -59.5 -5t-60.5 -16t-51.5 -36t-19.5 -59.5t-47 -34.5h-92q-41 0 -41 41q0 133 113.5 209.5t257.5 76.5q156 0 265.5 -101t109.5 -267v-635q0 -16 -12.5 -28.5t-28.5 -12.5h-70 q-16 0 -29 14q-2 4 -10 17.5t-14 19.5t-17 6q-12 0 -40.5 -19.5t-81 -38.5t-117.5 -19q-180 0 -276.5 94t-96.5 233zM356 309q0 -76 47.5 -117.5t135.5 -41.5q137 0 197.5 53t60.5 162v65q0 20 -21 21h-266q-154 -1 -154 -142zM381 1372q0 94 65.5 159.5t159.5 65.5 t159.5 -65.5t65.5 -159.5t-65.5 -159.5t-159.5 -65.5t-159.5 65.5t-65.5 159.5zM524 1372q0 -35 23.5 -58.5t58.5 -23.5t58.5 23.5t23.5 58.5t-23.5 58.5t-58.5 23.5t-58.5 -23.5t-23.5 -58.5z"/>
<glyph unicode="æ" d="M43 307q0 133 81 221t224 88h88q20 0 21 21v111q0 53 -29 86.5t-76 33.5t-74.5 -34.5t-27.5 -81.5q0 -35 -47 -35h-92q-41 0 -41 41q0 119 73.5 202.5t198.5 83.5q127 0 197 -79q10 -14 28.5 -14.5t32.5 14.5q78 80 188 79q137 0 217 -128t80 -322v-100q-4 -41 -41 -41 h-380q-20 0 -21 -21q0 -279 145 -278q47 0 81 43t38 96q2 35 47 35h84q35 0 35 -41q0 -119 -81 -213t-204 -94q-109 0 -194 63q-39 27 -78 -2q-84 -61 -172 -61q-156 0 -228.5 92t-72.5 235zM227 309q0 -76 32 -117.5t89 -41.5q125 0 125 215v67q0 20 -20 21h-107 q-119 -1 -119 -144zM647 637q0 -20 21 -21h221q20 0 20 21q0 104 -33.5 168.5t-84.5 64.5q-72 0 -108 -66.5t-36 -166.5z"/>
<glyph unicode="ç" d="M164 369q-10 143 0 286q12 168 121.5 278.5t287.5 110.5q172 0 284 -99t112 -249q0 -41 -35 -41h-111q-39 0 -39 33q0 74 -58 123t-153 49q-100 0 -159.5 -59.5t-65.5 -145.5q-10 -143 0 -286q6 -86 65.5 -145.5t159.5 -59.5q92 0 150.5 48t58.5 122q0 35 39 35h107 q16 0 28.5 -12.5t12.5 -28.5q0 -150 -112 -249t-284 -99q-178 0 -287.5 110.5t-121.5 278.5zM434 -373l78 248q8 33 39 33h108q41 0 33 -37l-57 -248q-8 -33 -39 -33h-129q-18 0 -27.5 11.5t-5.5 25.5z"/>
<glyph unicode="è" d="M152 369q-10 143 0 286q12 166 126.5 277.5t292.5 111.5q172 0 291 -119.5t119 -289.5v-141q-4 -41 -41 -41h-586q-20 0 -20 -21q0 -135 63.5 -201.5t173.5 -66.5q78 0 135.5 36t75.5 93q10 35 47 35h105q41 0 35 -41q-18 -135 -129 -221t-269 -86q-178 0 -292.5 111.5 t-126.5 277.5zM261 1478.5q7 16.5 26 16.5h162q31 0 53 -33l155 -223q8 -12 -1 -26.5t-27 -14.5h-82q-37 0 -62 25l-221 229q-10 10 -3 26.5zM338 637q0 -20 20 -21h426q20 0 21 21q0 102 -66.5 162.5t-165.5 60.5q-104 0 -169.5 -63.5t-65.5 -159.5z"/>
<glyph unicode="é" d="M152 369q12 -166 126.5 -277.5t292.5 -111.5q158 0 268.5 86t129.5 221q6 41 -35 41h-105q-37 0 -47 -35q-18 -57 -75.5 -93t-135.5 -36q-111 0 -174 66.5t-63 201.5q0 20 20 21h586q37 0 41 41v141q0 170 -119 289.5t-291 119.5q-178 0 -292.5 -111.5t-126.5 -277.5 q-10 -143 0 -286zM338 637q0 96 65.5 159.5t169.5 63.5q98 0 165 -60.5t67 -162.5q0 -20 -21 -21h-426q-20 1 -20 21zM467 1239l156 223q23 33 53 33h162q18 0 25 -16.5t-3 -26.5l-221 -229q-25 -25 -61 -25h-82q-18 0 -27.5 14.5t-1.5 26.5z"/>
<glyph unicode="ê" d="M152 369q-10 143 0 286q12 166 126.5 277.5t292.5 111.5q172 0 291 -119.5t119 -289.5v-141q-4 -41 -41 -41h-586q-20 0 -20 -21q0 -135 63.5 -201.5t173.5 -66.5q78 0 135.5 36t75.5 93q10 35 47 35h105q41 0 35 -41q-18 -135 -129 -221t-269 -86q-178 0 -292.5 111.5 t-126.5 277.5zM255 1215.5q-7 17.5 3 25.5l221 229q25 25 62 25h2h82h2q35 0 59 -25l221 -229q10 -8 3 -25.5t-25 -17.5h-121q-31 0 -64 33l-104 100q-14 14 -29 0l-102 -100q-33 -33 -64 -33h-120q-19 0 -26 17.5zM338 637q0 -20 20 -21h426q20 0 21 21q0 102 -66.5 162.5 t-165.5 60.5q-104 0 -169.5 -63.5t-65.5 -159.5z"/>
<glyph unicode="ë" d="M152 369q12 -166 126.5 -277.5t292.5 -111.5q158 0 268.5 86t129.5 221q6 41 -35 41h-105q-37 0 -47 -35q-18 -57 -75.5 -93t-135.5 -36q-111 0 -174 66.5t-63 201.5q0 20 20 21h586q37 0 41 41v141q0 170 -119 289.5t-291 119.5q-178 0 -292.5 -111.5t-126.5 -277.5 q-10 -143 0 -286zM297 1274v141q0 12 9 22.5t24 10.5h139q14 0 23.5 -10.5t9.5 -22.5v-141q0 -33 -33 -33h-139q-33 0 -33 33zM338 637q0 96 65.5 159.5t169.5 63.5q98 0 165 -60.5t67 -162.5q0 -20 -21 -21h-426q-20 1 -20 21zM647 1274v141q0 12 9.5 22.5t23.5 10.5h139 q14 0 23.5 -10.5t9.5 -22.5v-141q0 -33 -33 -33h-139q-33 0 -33 33z"/>
<glyph unicode="ì" d="M184 41v92q0 16 12.5 28.5t28.5 12.5h269q20 0 20 21v634q0 20 -20 21h-248q-16 0 -28.5 12t-12.5 29v92q0 16 12 28.5t29 12.5h416q16 0 28 -12.5t12 -28.5v-788q0 -20 21 -21h260q16 0 28.5 -12t12.5 -29v-92q0 -16 -12.5 -28.5t-28.5 -12.5h-758q-16 0 -28.5 12.5 t-12.5 28.5zM261 1478.5q7 16.5 26 16.5h162q31 0 53 -33l155 -223q8 -12 -1 -26.5t-27 -14.5h-82q-37 0 -62 25l-221 229q-10 10 -3 26.5z"/>
<glyph unicode="í" d="M184 41v92q0 16 12.5 28.5t28.5 12.5h269q20 0 20 21v634q0 20 -20 21h-248q-16 0 -28.5 12t-12.5 29v92q0 16 12 28.5t29 12.5h416q16 0 28 -12.5t12 -28.5v-788q0 -20 21 -21h260q16 0 28.5 -12t12.5 -29v-92q0 -16 -12.5 -28.5t-28.5 -12.5h-758q-16 0 -28.5 12.5 t-12.5 28.5zM467 1239l156 223q23 33 53 33h162q18 0 25 -16.5t-3 -26.5l-221 -229q-25 -25 -61 -25h-82q-18 0 -27.5 14.5t-1.5 26.5z"/>
<glyph unicode="î" d="M184 41v92q0 16 12.5 28.5t28.5 12.5h269q20 0 20 21v634q0 20 -20 21h-248q-16 0 -28.5 12t-12.5 29v92q0 16 12 28.5t29 12.5h416q16 0 28 -12.5t12 -28.5v-788q0 -20 21 -21h260q16 0 28.5 -12t12.5 -29v-92q0 -16 -12.5 -28.5t-28.5 -12.5h-758q-16 0 -28.5 12.5 t-12.5 28.5zM275.5 1215.5q-7.5 17.5 3.5 25.5l221 229q25 25 61 25h2h82h2q35 0 60 -25l221 -229q10 -8 3 -25.5t-26 -17.5h-121q-31 0 -63 33l-105 100q-14 14 -28 0l-103 -100q-33 -33 -63 -33h-121q-18 0 -25.5 17.5z"/>
<glyph unicode="ï" d="M184 41v92q0 16 12.5 28.5t28.5 12.5h269q20 0 20 21v634q0 20 -20 21h-248q-16 0 -28.5 12t-12.5 29v92q0 16 12 28.5t29 12.5h416q16 0 28 -12.5t12 -28.5v-788q0 -20 21 -21h260q16 0 28.5 -12t12.5 -29v-92q0 -16 -12.5 -28.5t-28.5 -12.5h-758q-16 0 -28.5 12.5 t-12.5 28.5zM326 1274v141q0 12 9 22.5t23 10.5h140q14 0 23 -10.5t9 -22.5v-141q0 -33 -32 -33h-140q-32 0 -32 33zM676 1274v141q0 12 9 22.5t24 10.5h139q14 0 23.5 -10.5t9.5 -22.5v-141q0 -33 -33 -33h-139q-33 0 -33 33z"/>
<glyph unicode="ð" d="M135 369q-6 92 0 184q12 166 127 277.5t293 111.5q92 0 178 -49q8 -4 13.5 -4t7.5 3t2 9q-12 129 -56 207q-10 18 -20 8l-150 -84q-14 -12 -35.5 -3t-21.5 32v63q0 33 31 58l49 24q12 8 8 19.5t-18 15.5q-31 8 -72 8h-74q-16 0 -28.5 12.5t-12.5 28.5v103q0 16 12.5 28.5 t28.5 12.5h74q166 0 270 -76q10 -4 19 2l145 84q14 10 32.5 1t18.5 -30v-84q0 -29 -26 -49l-64 -39q-16 -12 -10 -20q68 -125 102 -363q37 -246 7 -491q-20 -170 -127 -279.5t-283 -109.5q-178 0 -293 111.5t-127 277.5zM319 369q6 -86 70 -145.5t166 -59.5t165.5 59.5 t70.5 145.5q6 92 0 184q-6 86 -70 145.5t-166 59.5t-165.5 -59.5t-70.5 -145.5q-6 -92 0 -184z"/>
<glyph unicode="ñ" d="M164 41v942q0 16 12 28.5t29 12.5h90q14 0 29 -14q29 -33 51 -33q18 0 77.5 33.5t141.5 33.5q164 0 276.5 -110.5t112.5 -278.5v-614q0 -16 -12.5 -28.5t-28.5 -12.5h-102q-16 0 -28.5 12.5t-12.5 28.5v614q0 88 -64.5 146.5t-161 58.5t-161 -53t-64.5 -141v-625 q0 -16 -12 -28.5t-29 -12.5h-102q-16 0 -28.5 12.5t-12.5 28.5zM287 1266v82q0 41 43 72.5t102 31.5q63 0 139 -25.5t148 -25.5q59 0 94 43q12 16 31.5 8t19.5 -37v-82q0 -41 -43 -72.5t-102 -31.5q-63 0 -139 25.5t-148 25.5q-57 0 -94 -43q-12 -16 -31.5 -7t-19.5 36z"/>
<glyph unicode="ò" d="M143 369q-10 143 0 286q12 166 127 277.5t293 111.5t293 -111.5t127 -277.5q10 -143 0 -286q-12 -166 -127 -277.5t-293 -111.5t-293 111.5t-127 277.5zM261 1478.5q7 16.5 26 16.5h162q31 0 53 -33l155 -223q8 -12 -1 -26.5t-27 -14.5h-82q-37 0 -62 25l-221 229 q-10 10 -3 26.5zM328 369q6 -86 69.5 -145.5t166 -59.5t166 59.5t69.5 145.5q10 143 0 286q-6 86 -69.5 145.5t-166 59.5t-166 -59.5t-69.5 -145.5q-10 -143 0 -286z"/>
<glyph unicode="ó" d="M143 369q12 -166 127 -277.5t293 -111.5t293 111.5t127 277.5q10 143 0 286q-12 166 -127 277.5t-293 111.5t-292.5 -111.5t-127.5 -277.5q-10 -143 0 -286zM328 369q-10 143 0 286q6 86 69.5 145.5t166 59.5t166 -59.5t69.5 -145.5q10 -143 0 -286q-6 -86 -69.5 -145.5 t-166 -59.5t-166 59.5t-69.5 145.5zM467 1239l156 223q23 33 53 33h162q18 0 25 -16.5t-3 -26.5l-221 -229q-25 -25 -61 -25h-82q-18 0 -27.5 14.5t-1.5 26.5z"/>
<glyph unicode="ô" d="M143 369q-10 143 0 286q12 166 127 277.5t293 111.5t293 -111.5t127 -277.5q10 -143 0 -286q-12 -166 -127 -277.5t-293 -111.5t-293 111.5t-127 277.5zM234.5 1215.5q-7.5 17.5 3.5 25.5l221 229q25 25 61 25h2h82h2q35 0 60 -25l221 -229q10 -8 3 -25.5t-26 -17.5h-121 q-31 0 -63 33l-105 100q-14 14 -28 0l-103 -100q-33 -33 -63 -33h-121q-18 0 -25.5 17.5zM328 369q6 -86 69.5 -145.5t166 -59.5t166 59.5t69.5 145.5q10 143 0 286q-6 86 -69.5 145.5t-166 59.5t-166 -59.5t-69.5 -145.5q-10 -143 0 -286z"/>
<glyph unicode="õ" d="M143 369q-10 143 0 286q12 166 127 277.5t293 111.5t293 -111.5t127 -277.5q10 -143 0 -286q-12 -166 -127 -277.5t-293 -111.5t-293 111.5t-127 277.5zM274 1266v82q0 41 43 72.5t103 31.5q63 0 139 -25.5t148 -25.5q59 0 94 43q12 16 31.5 8t19.5 -37v-82 q0 -41 -43 -72.5t-102 -31.5q-63 0 -139 25.5t-148 25.5q-57 0 -94 -43q-12 -16 -32 -7t-20 36zM328 369q6 -86 69.5 -145.5t166 -59.5t166 59.5t69.5 145.5q10 143 0 286q-6 86 -69.5 145.5t-166 59.5t-166 -59.5t-69.5 -145.5q-10 -143 0 -286z"/>
<glyph unicode="ö" d="M143 369q12 -166 127 -277.5t293 -111.5t293 111.5t127 277.5q10 143 0 286q-12 166 -127 277.5t-293 111.5t-292.5 -111.5t-127.5 -277.5q-10 -143 0 -286zM285 1274v141q0 12 9 22.5t23 10.5h140q14 0 23 -10.5t9 -22.5v-141q0 -33 -32 -33h-140q-32 0 -32 33zM328 369 q-10 143 0 286q6 86 69.5 145.5t166 59.5t166 -59.5t69.5 -145.5q10 -143 0 -286q-6 -86 -69.5 -145.5t-166 -59.5t-166 59.5t-69.5 145.5zM635 1274v141q0 12 9 22.5t24 10.5h139q14 0 23.5 -10.5t9.5 -22.5v-141q0 -33 -33 -33h-139q-33 0 -33 33z"/>
<glyph unicode="÷" d="M133 455v112q0 16 12.5 28.5t28.5 12.5h778q16 0 28.5 -12t12.5 -29v-112q0 -16 -12 -28.5t-29 -12.5h-778q-16 0 -28.5 12.5t-12.5 28.5zM451 41v170q0 16 12 28.5t29 12.5h170q16 0 28 -12.5t12 -28.5v-170q0 -16 -12 -28.5t-28 -12.5h-170q-16 0 -28.5 12.5 t-12.5 28.5zM451 793v170q0 16 12 28.5t29 12.5h170q16 0 28 -12.5t12 -28.5v-170q0 -16 -12 -28.5t-28 -12.5h-170q-16 0 -28.5 12.5t-12.5 28.5z"/>
<glyph unicode="ø" d="M78 22.5q-12 22.5 4 43.5l100 118q8 10 2 23q-37 74 -43 162q-10 143 0 286q12 166 127 277.5t293 111.5q145 0 248 -73q10 -6 18 2l19 20q25 31 49 31h96q20 0 31.5 -21.5t-2.5 -39.5l-86 -105q-8 -10 -2 -29q43 -102 49 -174q10 -143 0 -286q-12 -166 -127 -277.5 t-293 -111.5q-152 0 -260 81q-12 6 -18 -2l-23 -28q-25 -31 -51 -31h-98q-21 0 -33 22.5zM326 381q0 -4 4 -6t10 2l352 430q10 14 -2 20q-59 33 -129 33q-102 0 -165.5 -59.5t-69.5 -145.5q-10 -133 0 -274zM418 225q-10 -14 2 -20q57 -41 141 -41q102 0 166 59.5t70 145.5 q10 143 0 286q0 8 -5.5 13.5t-13.5 -2.5z"/>
<glyph unicode="ù" d="M154 369v614q0 16 12 28.5t29 12.5h102q16 0 28.5 -12.5t12.5 -28.5v-614q0 -88 64.5 -146.5t160.5 -58.5t160.5 53t64.5 141v625q0 16 12.5 28.5t28.5 12.5h103q16 0 28.5 -12.5t12.5 -28.5v-942q0 -16 -12.5 -28.5t-28.5 -12.5h-90q-14 0 -29 14q-29 33 -51 33 q-18 0 -74.5 -33.5t-144.5 -33.5q-162 0 -275.5 113.5t-113.5 275.5zM261 1478.5q7 16.5 26 16.5h162q31 0 53 -33l155 -223q8 -12 -1 -26.5t-27 -14.5h-82q-37 0 -62 25l-221 229q-10 10 -3 26.5z"/>
<glyph unicode="ú" d="M154 369q0 -162 113.5 -275.5t275.5 -113.5q88 0 144 33.5t75 33.5q23 0 51 -33q14 -14 29 -14h90q16 0 28.5 12.5t12.5 28.5v942q0 16 -12.5 28.5t-28.5 12.5h-103q-16 0 -28.5 -12.5t-12.5 -28.5v-625q0 -88 -64.5 -141t-160.5 -53t-160.5 58.5t-64.5 146.5v614 q0 16 -12.5 28.5t-28.5 12.5h-102q-16 0 -28.5 -12.5t-12.5 -28.5v-614zM467 1239l156 223q23 33 53 33h162q18 0 25 -16.5t-3 -26.5l-221 -229q-25 -25 -61 -25h-82q-18 0 -27.5 14.5t-1.5 26.5z"/>
<glyph unicode="û" d="M154 369v614q0 16 12 28.5t29 12.5h102q16 0 28.5 -12.5t12.5 -28.5v-614q0 -88 64.5 -146.5t160.5 -58.5t160.5 53t64.5 141v625q0 16 12.5 28.5t28.5 12.5h103q16 0 28.5 -12.5t12.5 -28.5v-942q0 -16 -12.5 -28.5t-28.5 -12.5h-90q-14 0 -29 14q-29 33 -51 33 q-18 0 -74.5 -33.5t-144.5 -33.5q-162 0 -275.5 113.5t-113.5 275.5zM234.5 1215.5q-7.5 17.5 3.5 25.5l221 229q25 25 61 25h2h82h2q35 0 60 -25l221 -229q10 -8 3 -25.5t-26 -17.5h-121q-31 0 -63 33l-105 100q-14 14 -28 0l-103 -100q-33 -33 -63 -33h-121 q-18 0 -25.5 17.5z"/>
<glyph unicode="ü" d="M154 369q0 -162 113.5 -275.5t275.5 -113.5q88 0 144 33.5t75 33.5q23 0 51 -33q14 -14 29 -14h90q16 0 28.5 12.5t12.5 28.5v942q0 16 -12.5 28.5t-28.5 12.5h-103q-16 0 -28.5 -12.5t-12.5 -28.5v-625q0 -88 -64.5 -141t-160.5 -53t-160.5 58.5t-64.5 146.5v614 q0 16 -12.5 28.5t-28.5 12.5h-102q-16 0 -28.5 -12.5t-12.5 -28.5v-614zM289 1274v141q0 12 9 22.5t24 10.5h139q14 0 23.5 -10.5t9.5 -22.5v-141q0 -33 -33 -33h-139q-33 0 -33 33zM639 1274v141q0 12 9 22.5t24 10.5h139q14 0 23.5 -10.5t9.5 -22.5v-141q0 -33 -33 -33 h-139q-33 0 -33 33z"/>
<glyph unicode="ý" d="M109 977l352 -895q4 -10 -2 -27l-152 -417q-6 -16 5.5 -32t33.5 -16h111q29 0 39 31l520 1356q6 16 -5.5 31.5t-33.5 15.5h-121q-29 0 -39 -31l-237 -665q-8 -20 -17 0l-252 665q-10 31 -39 31h-125q-23 0 -33.5 -15.5t-4.5 -31.5zM467 1239l156 223q23 33 53 33h162 q18 0 25 -16.5t-3 -26.5l-221 -229q-25 -25 -61 -25h-82q-18 0 -27.5 14.5t-1.5 26.5z"/>
<glyph unicode="þ" d="M154 -369v1776q0 16 12 28.5t29 12.5h102q16 0 28.5 -12.5t12.5 -28.5v-371q0 -16 12 -29.5t33 -13.5q14 0 75.5 25.5t114.5 25.5q158 0 267.5 -112.5t122.5 -276.5q10 -143 0 -286q-12 -164 -122 -276.5t-268 -112.5q-53 0 -114.5 25.5t-75.5 25.5q-20 0 -32.5 -13.5 t-12.5 -29.5v-357q0 -16 -12.5 -28.5t-28.5 -12.5h-102q-16 0 -28.5 12.5t-12.5 28.5zM317 369q6 -86 70 -145.5t166 -59.5t165.5 59.5t69.5 145.5q10 143 0 286q-6 86 -69.5 145.5t-165.5 59.5t-165.5 -59.5t-70.5 -145.5q-10 -143 0 -286z"/>
<glyph unicode="ÿ" d="M109 977l352 -895q4 -10 -2 -27l-152 -417q-6 -16 5.5 -32t33.5 -16h111q29 0 39 31l520 1356q6 16 -5.5 31.5t-33.5 15.5h-121q-29 0 -39 -31l-237 -665q-8 -20 -17 0l-252 665q-10 31 -39 31h-125q-23 0 -33.5 -15.5t-4.5 -31.5zM285 1274v141q0 12 9 22.5t23 10.5h140 q14 0 23 -10.5t9 -22.5v-141q0 -33 -32 -33h-140q-32 0 -32 33zM635 1274v141q0 12 9 22.5t24 10.5h139q14 0 23.5 -10.5t9.5 -22.5v-141q0 -33 -33 -33h-139q-33 0 -33 33z"/>
<glyph unicode="Œ" d="M86 718q0 183 16 306q20 176 143.5 293t317.5 117h477q16 0 28.5 -12.5t12.5 -28.5v-113q0 -16 -12 -28.5t-29 -12.5h-262q-20 0 -20 -20v-369q0 -20 20 -21h240q16 0 28.5 -12t12.5 -29v-112q0 -16 -12.5 -28.5t-28.5 -12.5h-240q-20 0 -20 -21v-399q0 -20 20 -20h266 q16 0 28.5 -12.5t12.5 -28.5v-113q0 -16 -12 -28.5t-29 -12.5h-481q-188 0 -312 107.5t-149 302.5q-16 125 -16 308zM283 717q0 -180 14 -307q12 -90 75.5 -149.5t170.5 -65.5q20 0 20 20v1004q0 20 -20 20q-98 -4 -166 -58.5t-80 -156.5q-14 -127 -14 -307z"/>
<glyph unicode="œ" d="M31 522q0 233 81 381t234 141q29 0 52.5 -4t44 -15t29.5 -17.5t31.5 -24.5t28.5 -25q29 -29 62 0q78 86 203 86q137 0 217 -128t80 -322v-100q-4 -41 -41 -41h-381q-20 0 -21 -21q0 -279 146 -278q49 0 83.5 39.5t34.5 99.5q0 35 48 35h84q35 0 34 -41q0 -127 -79.5 -217 t-204.5 -90q-123 0 -209 79q-33 29 -62 0q-37 -29 -54 -41t-52 -25t-74 -13q-106 -4 -179 71.5t-104.5 196t-31.5 274.5zM184 522.5q0 -360.5 162 -360.5t162 360.5t-162 360.5t-162 -360.5zM655 637q0 -20 21 -21h221q20 0 21 21q0 104 -34 168.5t-85 64.5 q-72 0 -108 -66.5t-36 -166.5z"/>
<glyph unicode="Ÿ" d="M119 1376l348 -884v-451q0 -16 12.5 -28.5t28.5 -12.5h115q16 0 28.5 12.5t12.5 28.5v453l344 882q8 23 -2.5 40.5t-30.5 17.5h-135q-29 0 -39 -31l-228 -637q-8 -20 -16 0l-231 637q-10 31 -39 31h-135q-20 0 -30.5 -17.5t-2.5 -40.5zM285 1683v142q0 12 9 22.5t23 10.5 h140q14 0 23 -10.5t9 -22.5v-142q0 -33 -32 -32h-140q-32 -1 -32 32zM635 1683v142q0 12 9 22.5t24 10.5h139q14 0 23.5 -10.5t9.5 -22.5v-142q0 -33 -33 -32h-139q-33 -1 -33 32z"/>
<glyph unicode="ˆ" d="M234.5 1215.5q-7.5 17.5 3.5 25.5l221 229q25 25 61 25h2h82h2q35 0 60 -25l221 -229q10 -8 3 -25.5t-26 -17.5h-121q-31 0 -63 33l-105 100q-14 14 -28 0l-103 -100q-33 -33 -63 -33h-121q-18 0 -25.5 17.5z"/>
<glyph unicode="˜" d="M274 1266v82q0 41 43 72.5t103 31.5q63 0 139 -25.5t148 -25.5q59 0 94 43q12 16 31.5 8t19.5 -37v-82q0 -41 -43 -72.5t-102 -31.5q-63 0 -139 25.5t-148 25.5q-57 0 -94 -43q-12 -16 -32 -7t-20 36z"/>
<glyph unicode=" " horiz-adv-x="972"/>
<glyph unicode=" " horiz-adv-x="1945"/>
<glyph unicode=" " horiz-adv-x="972"/>
<glyph unicode=" " horiz-adv-x="1945"/>
<glyph unicode=" " horiz-adv-x="647"/>
<glyph unicode=" " horiz-adv-x="485"/>
<glyph unicode=" " horiz-adv-x="323"/>
<glyph unicode=" " horiz-adv-x="323"/>
<glyph unicode=" " horiz-adv-x="241"/>
<glyph unicode=" " horiz-adv-x="389"/>
<glyph unicode=" " horiz-adv-x="106"/>
<glyph unicode="‐" d="M242 477v139q0 16 12 28.5t29 12.5h559q16 0 28.5 -12t12.5 -29v-139q0 -16 -12.5 -28.5t-28.5 -12.5h-559q-16 0 -28.5 12.5t-12.5 28.5z"/>
<glyph unicode="‑" d="M242 477v139q0 16 12 28.5t29 12.5h559q16 0 28.5 -12t12.5 -29v-139q0 -16 -12.5 -28.5t-28.5 -12.5h-559q-16 0 -28.5 12.5t-12.5 28.5z"/>
<glyph unicode="‒" d="M242 477v139q0 16 12 28.5t29 12.5h559q16 0 28.5 -12t12.5 -29v-139q0 -16 -12.5 -28.5t-28.5 -12.5h-559q-16 0 -28.5 12.5t-12.5 28.5z"/>
<glyph unicode="–" d="M154 477v113q0 16 12 28.5t29 12.5h737q16 0 28.5 -12.5t12.5 -28.5v-113q0 -16 -12.5 -28.5t-28.5 -12.5h-737q-16 0 -28.5 12.5t-12.5 28.5z"/>
<glyph unicode="—" d="M61 477v113q0 16 12.5 28.5t28.5 12.5h922q16 0 28.5 -12.5t12.5 -28.5v-113q0 -16 -12.5 -28.5t-28.5 -12.5h-922q-16 0 -28.5 12.5t-12.5 28.5z"/>
<glyph unicode="‘" d="M430 942v184q0 70 41 127l107 150q20 31 53 31h28q29 0 39.5 -21.5t-2.5 -46.5l-94 -172q-6 -27 19 -27h34q16 0 28.5 -12t12.5 -29v-184q0 -16 -12 -28.5t-29 -12.5h-184q-16 0 -28.5 12.5t-12.5 28.5z"/>
<glyph unicode="’" d="M430 922.5q-10 21.5 2 46.5l94 172q6 27 -18 26h-35q-16 0 -28.5 12.5t-12.5 28.5v185q0 16 12.5 28.5t28.5 12.5h184q16 0 28.5 -12.5t12.5 -28.5v-185q0 -70 -41 -127l-106 -149q-20 -31 -53 -31h-29q-29 0 -39 21.5z"/>
<glyph unicode="‚" d="M440.5 -244.5q-10.5 21.5 1.5 45.5l95 172q6 27 -19 27h-35q-16 0 -28.5 12.5t-12.5 28.5v184q0 16 12.5 28.5t28.5 12.5h185q16 0 28.5 -12t12.5 -29v-184q0 -70 -41 -127l-107 -150q-20 -31 -53 -30h-29q-28 0 -38.5 21.5z"/>
<glyph unicode="“" d="M225 942v184q0 70 41 127l107 150q20 31 53 31h29q29 0 39 -21.5t-2 -46.5l-95 -172q-6 -27 19 -27h35q16 0 28.5 -12t12.5 -29v-184q0 -16 -12.5 -28.5t-28.5 -12.5h-185q-16 0 -28.5 12.5t-12.5 28.5zM635 942v184q0 70 41 127l106 150q20 31 54 31h28q29 0 39 -21.5 t-2 -46.5l-94 -172q-6 -27 18 -27h35q16 0 28.5 -12t12.5 -29v-184q0 -16 -12 -28.5t-29 -12.5h-184q-16 0 -28.5 12.5t-12.5 28.5z"/>
<glyph unicode="”" d="M221 922.5q-10 21.5 2 46.5l94 172q6 27 -18 26h-35q-16 0 -28.5 12.5t-12.5 28.5v185q0 16 12.5 28.5t28.5 12.5h185q16 0 28 -12.5t12 -28.5v-185q0 -70 -40 -127l-107 -149q-20 -31 -53 -31h-29q-29 0 -39 21.5zM631 922.5q-10 21.5 2 46.5l94 172q6 27 -18 26h-35 q-16 0 -28.5 12.5t-12.5 28.5v185q0 16 12 28.5t29 12.5h184q16 0 28.5 -12.5t12.5 -28.5v-185q0 -70 -41 -127l-106 -149q-20 -31 -54 -31h-28q-29 0 -39 21.5z"/>
<glyph unicode="„" d="M237.5 -244.5q-10.5 21.5 2.5 45.5l94 172q6 27 -19 27h-34q-16 0 -28.5 12.5t-12.5 28.5v184q0 16 12 28.5t29 12.5h184q16 0 28.5 -12t12.5 -29v-184q0 -70 -41 -127l-107 -150q-20 -31 -53 -30h-29q-28 0 -38.5 21.5zM647 -244.5q-10 21.5 2 45.5l94 172q6 27 -18 27 h-35q-16 0 -28.5 12.5t-12.5 28.5v184q0 16 12.5 28.5t28.5 12.5h184q16 0 28.5 -12t12.5 -29v-184q0 -70 -41 -127l-106 -150q-20 -31 -53 -30h-29q-29 0 -39 21.5z"/>
<glyph unicode="•" d="M338 420v368q0 16 12 28.5t29 12.5h369q16 0 28 -12t12 -29v-368q0 -16 -12 -28.5t-28 -12.5h-369q-16 0 -28.5 12.5t-12.5 28.5z"/>
<glyph unicode="…" horiz-adv-x="2252" d="M195 41v190q0 16 12 28.5t29 12.5h190q16 0 28.5 -12t12.5 -29v-190q0 -16 -12.5 -28.5t-28.5 -12.5h-190q-16 0 -28.5 12.5t-12.5 28.5zM948 41v190q0 16 12.5 28.5t28.5 12.5h191q16 0 28.5 -12t12.5 -29v-190q0 -16 -12.5 -28.5t-28.5 -12.5h-191q-16 0 -28.5 12.5 t-12.5 28.5zM1702 41v190q0 16 12 28.5t29 12.5h190q16 0 28.5 -12t12.5 -29v-190q0 -16 -12 -28.5t-29 -12.5h-190q-16 0 -28.5 12.5t-12.5 28.5z"/>
<glyph unicode=" " horiz-adv-x="389"/>
<glyph unicode="‹" d="M420 504q-18 29 0 57l196 330q18 31 52 31h92q31 0 41 -18.5t-8 -49.5l-175 -297q-16 -23 0 -49l175 -297q18 -31 8 -49.5t-41 -18.5h-92q-33 0 -52 31z"/>
<glyph unicode="›" d="M325.5 161.5q-10.5 18.5 8.5 49.5l174 297q16 27 0 49l-174 297q-18 31 -8 49.5t41 18.5h92q33 0 51 -31l197 -330q18 -29 0 -57l-197 -330q-18 -31 -51 -31h-92q-31 0 -41.5 18.5z"/>
<glyph unicode=" " horiz-adv-x="485"/>
<glyph unicode="€" d="M39 532v86q0 16 12 28.5t29 12.5h59q16 0 17 17q0 78 2 117q0 14 -15 14h-63q-16 0 -28.5 12t-12.5 29v86q0 16 12 28.5t29 12.5h70q18 0 18 14l4 35q20 178 144 302t316.5 124t327 -116.5t134.5 -309.5v-29q0 -16 -12.5 -28.5t-28.5 -12.5h-113q-16 0 -28.5 12.5 t-12.5 28.5v29q0 94 -73.5 161.5t-192.5 69.5q-106 0 -184 -62.5t-84 -168.5l-3 -35q0 -14 9 -14h344q16 0 28.5 -12.5t12.5 -28.5v-86q0 -16 -12.5 -28.5t-28.5 -12.5h-348q-14 0 -15 -16q-2 -37 -2 -111q0 -20 17 -21h348q16 0 28.5 -12t12.5 -29v-86q0 -16 -12.5 -28 t-28.5 -12h-340q-14 0 -15 -19q6 -61 7 -63q12 -96 82.5 -164t183.5 -68q109 0 187.5 62.5t78.5 169.5v28q0 16 12.5 28.5t28.5 12.5h113q16 0 28.5 -12t12.5 -29v-28q0 -174 -131.5 -300t-329.5 -126q-186 0 -311 114.5t-150 311.5q0 2 -6 63q0 18 -21 19h-65 q-16 0 -28.5 12t-12.5 28z"/>
<glyph unicode="™" d="M29 1315v98q0 20 20 21h430q20 0 21 -21v-98q0 -20 -21 -21h-135q-10 0 -10 -10v-547q0 -20 -21 -20h-98q-20 0 -20 20v547q0 10 -11 10h-135q-20 1 -20 21zM559 737q0 -20 21 -20h90q20 0 20 20v494q0 4 4 5t6 -3l60 -244q8 -16 22 -16h54q14 0 20 16l62 244q4 8 10 -2 v-494q0 -20 20 -20h90q20 0 21 20v676q0 20 -21 21h-143q-14 0 -21 -19l-61 -254q-2 -2 -5 -2t-5 2l-60 254q-6 18 -22 19h-141q-20 0 -21 -21v-676z"/>
<glyph unicode="" horiz-adv-x="1025" d="M0 1025h1025v-1025h-1025v1025z"/>
<glyph unicode="ﬁ" horiz-adv-x="2252" d="M1310 41v92q0 16 12.5 28.5t28.5 12.5h269q20 0 20 21v634q0 20 -20 21h-248q-16 0 -28.5 12t-12.5 29v92q0 16 12 28.5t29 12.5h416q16 0 28 -12.5t12 -28.5v-788q0 -20 21 -21h260q16 0 28.5 -12t12.5 -29v-92q0 -16 -12.5 -28.5t-28.5 -12.5h-758q-16 0 -28.5 12.5 t-12.5 28.5zM1630 1274v141q0 12 9 22.5t24 10.5h139q14 0 23.5 -10.5t9.5 -22.5v-141q0 -33 -33 -33h-139q-33 0 -33 33zM115 870v103q0 16 12 28.5t29 12.5h256q20 0 20 20v31q0 162 108.5 272.5t270.5 110.5h123q16 0 28.5 -12.5t12.5 -28.5v-96q0 -16 -12.5 -28.5 t-28.5 -12.5h-123q-80 0 -137.5 -62.5t-57.5 -142.5v-31q0 -20 21 -20h332q16 0 28.5 -12.5t12.5 -28.5v-103q0 -16 -12.5 -28.5t-28.5 -12.5h-332q-20 0 -21 -20v-768q0 -16 -12 -28.5t-29 -12.5h-102q-16 0 -28.5 12.5t-12.5 28.5v768q0 20 -20 20h-256q-16 0 -28.5 12.5 t-12.5 28.5z"/>
<glyph unicode="ﬂ" horiz-adv-x="2252" d="M1312 41v92q0 16 12.5 28.5t28.5 12.5h256q20 0 21 21v1062q0 20 -21 21h-215q-16 0 -28.5 12.5t-12.5 28.5v88q0 16 12.5 28.5t28.5 12.5h379q16 0 28.5 -12.5t12.5 -28.5v-1212q0 -20 21 -21h231q16 0 28.5 -12t12.5 -29v-92q0 -16 -12.5 -28.5t-28.5 -12.5h-713 q-16 0 -28.5 12.5t-12.5 28.5zM115 870v103q0 16 12 28.5t29 12.5h256q20 0 20 20v31q0 162 108.5 272.5t270.5 110.5h123q16 0 28.5 -12.5t12.5 -28.5v-96q0 -16 -12.5 -28.5t-28.5 -12.5h-123q-80 0 -137.5 -62.5t-57.5 -142.5v-31q0 -20 21 -20h332q16 0 28.5 -12.5 t12.5 -28.5v-103q0 -16 -12.5 -28.5t-28.5 -12.5h-332q-20 0 -21 -20v-768q0 -16 -12 -28.5t-29 -12.5h-102q-16 0 -28.5 12.5t-12.5 28.5v768q0 20 -20 20h-256q-16 0 -28.5 12.5t-12.5 28.5z"/>
<glyph unicode="ﬃ" horiz-adv-x="3379" d="M2437 41v92q0 16 12.5 28.5t28.5 12.5h269q20 0 20 21v634q0 20 -20 21h-248q-16 0 -28.5 12t-12.5 29v92q0 16 12 28.5t29 12.5h416q16 0 28 -12.5t12 -28.5v-788q0 -20 21 -21h260q16 0 28.5 -12t12.5 -29v-92q0 -16 -12.5 -28.5t-28.5 -12.5h-758q-16 0 -28.5 12.5 t-12.5 28.5zM2757 1274v141q0 12 9 22.5t24 10.5h139q14 0 23.5 -10.5t9.5 -22.5v-141q0 -33 -33 -33h-139q-33 0 -33 33zM1241 870v103q0 16 12 28.5t29 12.5h256q20 0 20 20v31q0 162 108.5 272.5t270.5 110.5h123q16 0 28.5 -12.5t12.5 -28.5v-96q0 -16 -12.5 -28.5 t-28.5 -12.5h-123q-80 0 -137.5 -62.5t-57.5 -142.5v-31q0 -20 21 -20h332q16 0 28.5 -12.5t12.5 -28.5v-103q0 -16 -12.5 -28.5t-28.5 -12.5h-332q-20 0 -21 -20v-768q0 -16 -12 -28.5t-29 -12.5h-102q-16 0 -28.5 12.5t-12.5 28.5v768q0 20 -20 20h-256q-16 0 -28.5 12.5 t-12.5 28.5zM115 870v103q0 16 12 28.5t29 12.5h256q20 0 20 20v31q0 162 108.5 272.5t270.5 110.5h123q16 0 28.5 -12.5t12.5 -28.5v-96q0 -16 -12.5 -28.5t-28.5 -12.5h-123q-80 0 -137.5 -62.5t-57.5 -142.5v-31q0 -20 21 -20h332q16 0 28.5 -12.5t12.5 -28.5v-103 q0 -16 -12.5 -28.5t-28.5 -12.5h-332q-20 0 -21 -20v-768q0 -16 -12 -28.5t-29 -12.5h-102q-16 0 -28.5 12.5t-12.5 28.5v768q0 20 -20 20h-256q-16 0 -28.5 12.5t-12.5 28.5z"/>
<glyph unicode="ﬄ" horiz-adv-x="3379" d="M2439 41v92q0 16 12.5 28.5t28.5 12.5h256q20 0 21 21v1062q0 20 -21 21h-215q-16 0 -28.5 12.5t-12.5 28.5v88q0 16 12.5 28.5t28.5 12.5h379q16 0 28.5 -12.5t12.5 -28.5v-1212q0 -20 21 -21h231q16 0 28.5 -12t12.5 -29v-92q0 -16 -12.5 -28.5t-28.5 -12.5h-713 q-16 0 -28.5 12.5t-12.5 28.5zM1241 870v103q0 16 12 28.5t29 12.5h256q20 0 20 20v31q0 162 108.5 272.5t270.5 110.5h123q16 0 28.5 -12.5t12.5 -28.5v-96q0 -16 -12.5 -28.5t-28.5 -12.5h-123q-80 0 -137.5 -62.5t-57.5 -142.5v-31q0 -20 21 -20h332q16 0 28.5 -12.5 t12.5 -28.5v-103q0 -16 -12.5 -28.5t-28.5 -12.5h-332q-20 0 -21 -20v-768q0 -16 -12 -28.5t-29 -12.5h-102q-16 0 -28.5 12.5t-12.5 28.5v768q0 20 -20 20h-256q-16 0 -28.5 12.5t-12.5 28.5zM115 870v103q0 16 12 28.5t29 12.5h256q20 0 20 20v31q0 162 108.5 272.5 t270.5 110.5h123q16 0 28.5 -12.5t12.5 -28.5v-96q0 -16 -12.5 -28.5t-28.5 -12.5h-123q-80 0 -137.5 -62.5t-57.5 -142.5v-31q0 -20 21 -20h332q16 0 28.5 -12.5t12.5 -28.5v-103q0 -16 -12.5 -28.5t-28.5 -12.5h-332q-20 0 -21 -20v-768q0 -16 -12 -28.5t-29 -12.5h-102 q-16 0 -28.5 12.5t-12.5 28.5v768q0 20 -20 20h-256q-16 0 -28.5 12.5t-12.5 28.5z"/>
<glyph/>
</font>
</defs>
</svg>
