<svg width="154" height="74" viewBox="0 0 154 74" fill="none" xmlns="http://www.w3.org/2000/svg"><g clip-path="url(#clip0)"><path d="M152.891 36.58a35.313 35.313 0 01-21.793 32.621 35.303 35.303 0 01-48.14-25.73 35.304 35.304 0 1169.933-6.89z" fill="#E61414"/><path d="M104.126 16.68c1.774 0 3.088 1.17 3.322 3.072.14 1.473.14 2.956 0 4.43a3.294 3.294 0 01-3.322 3.072c-1.774 0-3.088-1.17-3.322-3.073a22.148 22.148 0 010-4.429c.179-1.61 1.373-3.072 3.322-3.072zm-1.918 3.072a22.148 22.148 0 000 4.43 1.95 1.95 0 003.844-.008c.16-1.473.16-2.958 0-4.43a1.863 1.863 0 00-1.922-1.668 1.842 1.842 0 00-1.922 1.676zm13.981 2.66a15.16 15.16 0 010 2.066c-.116 1.56-1.189 2.807-2.729 2.807-.682 0-1.014-.39-1.306-.39-.222 0-.327.09-.327.39v2.511a.296.296 0 01-.293.297h-.741a.294.294 0 01-.273-.183.295.295 0 01-.023-.114V20.05a.295.295 0 01.296-.296h.503a.276.276 0 01.207.101.55.55 0 00.37.238c.429 0 .492-.487 1.587-.487 1.529 0 2.601 1.255 2.729 2.807zm-4.518 0a16.567 16.567 0 000 2.066 1.637 1.637 0 001.631 1.463 1.64 1.64 0 001.632-1.463 16.56 16.56 0 000-2.066 1.642 1.642 0 00-3.263 0zm10.531 3.543a1.511 1.511 0 001.524-.932.337.337 0 01.339-.25h.753a.235.235 0 01.253.184.227.227 0 01-.004.113c-.175 1.283-1.329 2.215-2.865 2.215a2.933 2.933 0 01-3.026-2.808 15.161 15.161 0 010-2.066 2.998 2.998 0 013.061-2.786 2.996 2.996 0 012.92 2.934v1.018a.308.308 0 01-.296.296h-4.223a.14.14 0 00-.148.148c-.012 1.341.694 1.934 1.712 1.934zm-1.533-3.263h3.069a.14.14 0 00.148-.149 1.554 1.554 0 00-.476-1.177 1.56 1.56 0 00-1.193-.433 1.595 1.595 0 00-1.569.972 1.59 1.59 0 00-.127.638.143.143 0 00.041.108.145.145 0 00.049.032c.019.007.039.01.058.009zm8.933 4.148a.296.296 0 01-.293.297h-.74a.298.298 0 01-.297-.297v-6.792a.299.299 0 01.297-.296h.651a.283.283 0 01.206.102.554.554 0 00.367.237c.429 0 .55-.487 1.583-.487a2.766 2.766 0 011.999.808 2.746 2.746 0 01.808 2v4.428a.295.295 0 01-.296.297h-.737a.298.298 0 01-.21-.087.298.298 0 01-.086-.21v-4.429a1.524 1.524 0 00-1.626-1.478c-.916 0-1.626.546-1.626 1.404v4.503zm-28.49 14.77v-9.747a.295.295 0 01.296-.297h2.808c1.711 0 2.893 1.388 3.099 3.12a20.243 20.243 0 010 4.133c-.191 1.7-1.388 3.119-3.099 3.119h-2.808a.302.302 0 01-.221-.098.297.297 0 01-.075-.23zm3.119-1.107c.901 0 1.595-.811 1.7-1.7a19.688 19.688 0 000-4.133c-.105-.889-.78-1.7-1.7-1.7h-1.559a.14.14 0 00-.139.09.116.116 0 00-.009.058v7.237c-.002.02.001.04.009.058a.137.137 0 00.139.09h1.559zm7.724-4.017c0 .25-.206.25-.343.25h-.663a.258.258 0 01-.296-.296c0-1.373 1.419-2.067 2.675-2.067a2.6 2.6 0 012.702 2.667v4.577a.296.296 0 01-.293.297h-.503a.245.245 0 01-.206-.102c-.09-.12-.149-.312-.297-.312-.265 0-.635.562-1.727.562-1.817 0-2.69-1.107-2.69-2.363 0-1.255.885-2.27 2.437-2.27h1.801a.14.14 0 00.148-.147v-.472c0-.78-.62-1.17-1.372-1.17-.488.004-1.373.137-1.373.846zm.78 2.172c-.753 0-1.107.39-1.107 1.018 0 .725.456 1.15 1.314 1.15 1.36 0 1.863-.546 1.863-1.56v-.464a.114.114 0 00-.009-.057.136.136 0 00-.139-.087h-1.922zm9.482-2.733a.145.145 0 00-.058.009.145.145 0 00-.081.081.143.143 0 00-.009.058v3.618a1.038 1.038 0 002.071 0 .297.297 0 01.296-.296h.721a.297.297 0 01.297.296 2.367 2.367 0 01-4.73 0v-3.618a.14.14 0 00-.007-.057.14.14 0 00-.08-.082.134.134 0 00-.057-.009h-1.478a.295.295 0 01-.296-.296v-.737a.295.295 0 01.296-.297h1.478a.136.136 0 00.106-.04.139.139 0 00.031-.05.141.141 0 00.007-.058V32.16a.295.295 0 01.296-.297h.741a.296.296 0 01.293.296v2.29a.143.143 0 00.041.107.138.138 0 00.107.04h2.363a.295.295 0 01.296.297v.737a.295.295 0 01-.296.296h-2.348zm7.755.561c0 .25-.206.25-.339.25h-.667a.253.253 0 01-.224-.072.25.25 0 01-.063-.104.248.248 0 01-.009-.12c0-1.373 1.419-2.067 2.675-2.067A2.609 2.609 0 01133.862 36c.133.33.198.684.189 1.04v4.577a.302.302 0 01-.297.297h-.503a.241.241 0 01-.115-.025.234.234 0 01-.091-.077c-.09-.12-.148-.312-.297-.312-.265 0-.635.562-1.727.562-1.817 0-2.69-1.107-2.69-2.363 0-1.255.889-2.27 2.441-2.27h1.793a.138.138 0 00.108-.04.153.153 0 00.031-.05.128.128 0 00.009-.057v-.472c0-.78-.62-1.17-1.376-1.17-.48.004-1.365.137-1.365.846zm.78 2.172c-.756 0-1.111.39-1.111 1.018 0 .725.46 1.15 1.314 1.15 1.361 0 1.864-.546 1.864-1.56v-.464a.14.14 0 00-.041-.106.136.136 0 00-.108-.038h-1.918zM114.08 56.177a.297.297 0 01-.292.296h-1.334a.297.297 0 01-.292-.296v-1.33a.297.297 0 01.292-.296h1.334a.297.297 0 01.292.296v1.33zm8.137.444c-1.77 0-2.834-1.255-2.951-2.807a15.161 15.161 0 010-2.066c.117-1.56 1.169-2.808 2.951-2.808 1.657 0 2.85 1.077 2.85 2.511 0 .16-.085.297-.249.297h-.78a.256.256 0 01-.194-.057.255.255 0 01-.09-.181c0-.694-.605-1.24-1.521-1.24a1.537 1.537 0 00-1.622 1.478 15.161 15.161 0 000 2.066 1.526 1.526 0 00.501 1.08 1.54 1.54 0 001.121.398c.901 0 1.509-.534 1.509-1.228a.248.248 0 01.082-.19.251.251 0 01.199-.06h.779a.296.296 0 01.293.296c-.028 1.431-1.221 2.511-2.878 2.511zm6.469-.148a.296.296 0 01-.293-.296v-9.853a.296.296 0 01.293-.297h.76a.3.3 0 01.296.297v2.674a.325.325 0 00.324.312c.296 0 .678-.39 1.357-.39a2.809 2.809 0 012.807 2.808v4.429a.295.295 0 01-.296.296h-.737a.297.297 0 01-.297-.296v-4.41a1.53 1.53 0 00-1.579-1.478 1.474 1.474 0 00-1.436.837c-.085.178-.133.37-.143.567v4.503a.3.3 0 01-.296.296h-.76z" fill="#fff"/><path d="M50.344 69.791c18.172-7.526 26.8-28.36 19.274-46.53C62.091 5.088 41.258-3.54 23.087 3.986c-18.171 7.527-26.8 28.36-19.274 46.53 7.527 18.172 28.36 26.801 46.531 19.274z" fill="#E61414"/><path d="M26.225 55.284c-.332.553-.663.83-1.17.83h-.932a1.022 1.022 0 01-.885-1.56l23.608-36.342a1.403 1.403 0 011.217-.83h.83a1.042 1.042 0 01.885 1.56L26.225 55.283zm15.58-.773v-15.46a.487.487 0 01.483-.483h5.896c2.81 0 4.749 2.075 5.092 4.89.23 2.165.23 4.35 0 6.515-.316 2.788-2.281 5.026-5.092 5.026h-5.896a.487.487 0 01-.483-.488zm5.848-2.292c1.478 0 2.62-1.267 2.788-2.73.242-1.848.242-3.72 0-5.567a2.827 2.827 0 00-2.788-2.585h-2.729a.23.23 0 00-.242.245V51.97a.227.227 0 00.242.242l2.73.008zM32.362 24.84c-.441-3.54-2.878-5.809-6.196-5.809-3.65 0-5.848 2.823-6.238 5.81a18.535 18.535 0 000 5.532c.444 3.595 2.932 5.806 6.238 5.806 3.653 0 5.849-2.764 6.196-5.806a18.535 18.535 0 000-5.532zm-3.092 5.572c-.223 1.56-1.384 2.82-3.1 2.82-1.992 0-2.878-1.56-3.096-2.82a19.662 19.662 0 010-5.7 3.119 3.119 0 016.196 0c.277 1.89.277 3.81 0 5.7z" fill="#fff"/></g><defs><clipPath id="clip0"><path fill="#fff" d="M0 0h153.994v73.659H0z"/></clipPath></defs></svg>