<svg xmlns="http://www.w3.org/2000/svg" viewBox="0 0 1614.5 760"><path d="M807 259.1c-17.7 0-29.5-12.6-29.5-29s11.8-28.9 29.5-28.9c17.6 0 29.4 12.6 29.4 28.9 0 16.4-11.8 29-29.4 29zm0-47c-10.1 0-16 6.8-16 18.1 0 11.4 5.9 18.1 16 18.1 10 0 16-6.7 16-18.1-.1-11.3-6-18.1-16-18.1zm64.8 27.5v18.9h-13.2v-56.7h20c16 0 22.8 8.1 22.8 18.5 0 11.3-7.1 19.2-22.8 19.2l-6.8.1zm0-10h6.8c6.8 0 9.7-3.4 9.7-9.3 0-5.2-3-8.7-9.7-8.7h-6.8v18zm89.1-27.8v10.1h-23.3v13.2h17.8v9.7h-17.8v13.5h23.3v10.1h-36.5v-56.7l36.5.1zm37.9 2l26.9 34c-.2-2.2-.3-4.2-.3-6.1v-30h11.6v56.7h-6.8c-2 0-3.3-.5-4.6-2.2l-26.7-33.8c.2 2 .3 3.9.3 5.6v30.4h-11.6v-56.7h6.9c2.2.1 2.8.4 4.3 2.1zM792.7 324.9h2.1c1.9 0 3.3-.6 4.2-1.8l12.8-18.5c1.4-2 3.1-2.6 5.7-2.6h11.4l-16.8 22.9c-1.2 1.7-2.5 2.7-3.9 3.4 2 .7 3.6 1.9 4.9 4l17.1 26.3h-11.8c-3 0-4.1-.9-5.1-2.4l-12.8-19.7c-.9-1.4-2.2-2-4.7-2h-3.2v24.1h-13.2v-56.7h13.2v23zm71.8-21l26.9 34c-.2-2.2-.3-4.2-.3-6.1v-30h11.6v56.7h-6.8c-2 0-3.3-.5-4.6-2.2l-26.7-33.8c.2 2 .3 3.9.3 5.6v30.4h-11.6v-56.7h6.9c2.2.1 2.8.4 4.3 2.1zm92.8 55.3c-17.7 0-29.5-12.6-29.5-29s11.8-29 29.5-29c17.6 0 29.4 12.6 29.4 29s-11.8 29-29.4 29zm0-47.1c-10.1 0-16 6.8-16 18.1 0 11.4 5.9 18.1 16 18.1 10 0 16-6.7 16-18.1-.1-11.2-6-18.1-16-18.1zm44.8-10.2h11c2.3 0 3.9 1.1 4.4 2.8l7.8 29.6c.5 1.9 1.1 4.1 1.4 6.5.5-2.5 1.2-4.6 1.8-6.5l9.2-29.6c.5-1.4 2.1-2.8 4.3-2.8h3.9c2.3 0 3.8 1.1 4.4 2.8l9.1 29.6c.6 1.8 1.2 3.9 1.7 6.2.4-2.3.9-4.4 1.3-6.2l7.8-29.6c.4-1.5 2.1-2.8 4.3-2.8h10.4l-17.5 56.7h-11.9l-10.7-35.1c-.3-1.1-.8-2.4-1.1-3.9-.3 1.4-.8 2.8-1.1 3.9l-10.8 35.1h-11.9l-17.8-56.7zm119.5 46.2h21v10.5h-34.2v-56.7h13.2v46.2zm85.5-46.2V312h-23.3v13.2h17.8v9.7h-17.8v13.5h23.3v10.1h-36.5v-56.7h36.5v.1zm49.6 56.7h-22v-56.7h22c17.6 0 29.4 12 29.4 28.3 0 16.4-11.8 28.4-29.4 28.4zm0-46.6h-8.8v36.5h8.8c10 0 16-6.9 16-18.2 0-11.3-5.9-18.3-16-18.3zm87.3 35.4v-8.6h-5.6c-1.7 0-2.6-1-2.6-2.3v-7.2h20.2v23.9c-5.8 4.2-12.5 6.1-21.7 6.1-16.6 0-28.9-12.4-28.9-29 0-16.9 11.7-29 30-29 9.5 0 16.5 3.3 21.1 7.6l-3.8 5.8c-.7 1.1-1.8 1.8-3 1.8-.8 0-1.6-.3-2.4-.8-4.2-2.5-7.1-3.5-12.4-3.5-9.8 0-16 7.2-16 18.1 0 12 7 18.9 16.5 18.9 3.4-.1 6.1-.8 8.6-1.8zm76.1-45.5V312h-23.3v13.2h17.8v9.7h-17.8v13.5h23.3v10.1h-36.5v-56.7h36.5v.1zM816.1 402v10.1h-23.3v14.4h19.4v10.2h-19.4v22.1h-13.2V402h36.5zm76.6 28.3c0 4.1-.7 7.9-2.1 11.4-1.4 3.5-3.4 6.6-6 9.2-2.6 2.6-5.7 4.6-9.3 6.1-3.6 1.5-7.6 2.2-12 2.2s-8.4-.7-12.1-2.2c-3.6-1.5-6.7-3.5-9.3-6.1-2.6-2.6-4.6-5.7-6-9.2-1.4-3.5-2.1-7.3-2.1-11.4 0-4.1.7-7.9 2.1-11.4 1.4-3.5 3.4-6.6 6-9.2 2.6-2.6 5.7-4.6 9.3-6.1 3.6-1.5 7.7-2.2 12.1-2.2 4.4 0 8.4.7 12 2.2 3.6 1.5 6.7 3.5 9.3 6.1 2.6 2.6 4.6 5.7 6 9.2 1.4 3.5 2.1 7.3 2.1 11.4zm-13.4 0c0-2.8-.4-5.3-1.1-7.6-.7-2.2-1.8-4.1-3.1-5.7-1.4-1.6-3-2.7-5-3.6-2-.8-4.2-1.2-6.7-1.2s-4.8.4-6.8 1.2c-2 .8-3.7 2-5 3.6-1.4 1.6-2.4 3.5-3.1 5.7-.7 2.2-1.1 4.8-1.1 7.6s.4 5.4 1.1 7.6c.7 2.2 1.8 4.1 3.1 5.7 1.4 1.6 3 2.7 5 3.6 2 .8 4.2 1.2 6.8 1.2 2.5 0 4.8-.4 6.7-1.2 2-.8 3.6-2 5-3.6s2.4-3.5 3.1-5.7c.7-2.2 1.1-4.8 1.1-7.6zm57.2 18c1.8 0 3.3-.3 4.7-.9 1.4-.6 2.6-1.4 3.5-2.5 1-1.1 1.7-2.4 2.2-4 .5-1.6.8-3.4.8-5.3V402h13.2v33.6c0 3.5-.6 6.7-1.7 9.6-1.1 2.9-2.7 5.4-4.8 7.5-2.1 2.1-4.7 3.7-7.7 4.9-3 1.2-6.4 1.8-10.2 1.8-3.8 0-7.2-.6-10.2-1.8-3-1.2-5.6-2.8-7.7-4.9-2.1-2.1-3.7-4.6-4.8-7.5-1.1-2.9-1.7-6.1-1.7-9.6V402h13.2v33.5c0 2 .3 3.8.8 5.3.5 1.6 1.2 2.9 2.2 4 1 1.1 2.1 1.9 3.5 2.5 1.3.7 2.9 1 4.7 1zm60.4-46.2c.4.1.7.1 1.1.3.3.1.6.3.9.6.3.3.6.6 1 1.1l26.9 34c-.1-1.1-.2-2.1-.2-3.2-.1-1-.1-2-.1-2.9v-30h11.6v56.7h-6.8c-1 0-1.9-.2-2.6-.5-.7-.3-1.4-.9-2-1.7l-26.7-33.8c.1 1 .1 2 .2 2.9.1.9.1 1.8.1 2.7v30.4h-11.6V402h6.9c.4 0 .9 0 1.3.1zm121 28.2c0 4.1-.7 7.9-2.1 11.3-1.4 3.5-3.4 6.5-6 9s-5.7 4.5-9.3 5.9c-3.6 1.4-7.6 2.1-12 2.1h-22V402h22c4.4 0 8.4.7 12 2.1 3.6 1.4 6.7 3.4 9.3 5.9 2.6 2.5 4.6 5.5 6 9 1.4 3.5 2.1 7.2 2.1 11.3zm-13.4 0c0-2.8-.4-5.3-1.1-7.6-.7-2.3-1.8-4.2-3.1-5.7-1.4-1.6-3-2.8-5-3.6-2-.8-4.2-1.3-6.7-1.3h-8.8v36.5h8.8c2.5 0 4.8-.4 6.7-1.3 2-.8 3.6-2 5-3.6s2.4-3.5 3.1-5.7c.7-2.3 1.1-4.9 1.1-7.7zm87.4 28.4h-10.2c-1.1 0-2.1-.3-2.8-.8-.7-.5-1.3-1.2-1.5-2l-3.3-9.9h-21.6l-3.3 9.9c-.3.7-.8 1.4-1.5 2-.8.6-1.7.9-2.8.9h-10.3l21.9-56.7h13.5l21.9 56.6zm-36.4-21.7h15.5l-5.2-15.5c-.3-1-.7-2.1-1.2-3.5-.5-1.3-.9-2.8-1.3-4.3-.4 1.6-.8 3-1.3 4.4-.4 1.3-.9 2.5-1.2 3.5l-5.3 15.4zm97.1-35v10.4h-16v46.3h-13.2v-46.3h-16V402h45.2zm37.9 56.7h-13.2V402h13.2v56.7zm83.5-28.4c0 4.1-.7 7.9-2.1 11.4-1.4 3.5-3.4 6.6-6 9.2-2.6 2.6-5.7 4.6-9.3 6.1-3.6 1.5-7.6 2.2-12 2.2s-8.4-.7-12.1-2.2c-3.6-1.5-6.7-3.5-9.3-6.1-2.6-2.6-4.6-5.7-6-9.2-1.4-3.5-2.1-7.3-2.1-11.4 0-4.1.7-7.9 2.1-11.4 1.4-3.5 3.4-6.6 6-9.2 2.6-2.6 5.7-4.6 9.3-6.1 3.6-1.5 7.7-2.2 12.1-2.2s8.4.7 12 2.2c3.6 1.5 6.7 3.5 9.3 6.1 2.6 2.6 4.6 5.7 6 9.2 1.4 3.5 2.1 7.3 2.1 11.4zm-13.4 0c0-2.8-.4-5.3-1.1-7.6-.7-2.2-1.8-4.1-3.1-5.7-1.4-1.6-3-2.7-5-3.6-2-.8-4.2-1.2-6.7-1.2s-4.8.4-6.8 1.2c-2 .8-3.7 2-5 3.6-1.4 1.6-2.4 3.5-3.1 5.7-.7 2.2-1.1 4.8-1.1 7.6s.4 5.4 1.1 7.6c.7 2.2 1.8 4.1 3.1 5.7 1.4 1.6 3 2.7 5 3.6 2 .8 4.2 1.2 6.8 1.2 2.5 0 4.8-.4 6.7-1.2 2-.8 3.6-2 5-3.6s2.4-3.5 3.1-5.7c.7-2.2 1.1-4.8 1.1-7.6zm47.2-28.2c.4.1.7.1 1.1.3.3.1.6.3.9.6.3.3.6.6 1 1.1l26.9 34c-.1-1.1-.2-2.1-.2-3.2-.1-1-.1-2-.1-2.9v-30h11.6v56.7h-6.8c-1 0-1.9-.2-2.6-.5-.7-.3-1.4-.9-2-1.7l-26.7-33.8c.1 1 .1 2 .2 2.9.1.9.1 1.8.1 2.7v30.4h-11.6V402h6.9c.4 0 .9 0 1.3.1zM826.5 530.4c0 4.2-.7 8.1-2 11.6s-3.2 6.5-5.7 8.9c-2.5 2.5-5.4 4.4-8.8 5.8-3.4 1.4-7.2 2-11.4 2h-21.2v-56.6h21.2c4.2 0 8 .7 11.4 2 3.4 1.4 6.4 3.3 8.8 5.8 2.4 2.5 4.3 5.5 5.7 9 1.4 3.4 2 7.3 2 11.5zm-7.8 0c0-3.5-.5-6.6-1.4-9.3-.9-2.7-2.3-5.1-4-7-1.7-1.9-3.8-3.3-6.3-4.3s-5.2-1.5-8.3-1.5h-13.5v44.2h13.5c3 0 5.8-.5 8.3-1.5 2.5-1 4.6-2.4 6.3-4.3 1.7-1.9 3.1-4.2 4-6.9.9-2.8 1.4-5.9 1.4-9.4zm65-28.3v6.2h-27.2v18.8h22v6h-22v19.3h27.2v6.2h-34.9V502h34.9zm52.2 50.5c2.3 0 4.4-.4 6.3-1.2 1.8-.8 3.4-1.9 4.7-3.3 1.3-1.4 2.3-3.1 2.9-5.1.7-2 1-4.1 1-6.5v-34.4h7.6v34.4c0 3.3-.5 6.3-1.6 9.1-1 2.8-2.5 5.2-4.5 7.3-1.9 2-4.3 3.6-7.1 4.8-2.8 1.2-5.9 1.7-9.4 1.7s-6.6-.6-9.4-1.7c-2.8-1.2-5.2-2.8-7.1-4.8-1.9-2-3.4-4.5-4.5-7.3-1-2.8-1.6-5.8-1.6-9.1v-34.4h7.6v34.4c0 2.4.3 4.5 1 6.5s1.6 3.7 2.9 5.1c1.3 1.4 2.8 2.5 4.7 3.3 2.1.8 4.2 1.2 6.5 1.2zm94.5-50.5v6.4h-18.3v50.2h-7.7v-50.2H986v-6.4h44.4zm58.4 8.8c-.2.4-.5.7-.8.9-.3.2-.6.3-1 .3s-1-.2-1.6-.7c-.6-.4-1.3-.9-2.3-1.5-.9-.5-2-1-3.3-1.5-1.3-.4-2.8-.7-4.6-.7-1.7 0-3.2.2-4.5.7-1.3.5-2.4 1.1-3.3 1.9-.9.8-1.5 1.7-2 2.8-.4 1.1-.7 2.2-.7 3.5 0 1.6.4 2.9 1.2 3.9.8 1 1.8 1.9 3.1 2.7 1.3.7 2.7 1.4 4.3 1.9 1.6.5 3.3 1.1 5 1.7 1.7.6 3.4 1.2 5 2 1.6.7 3.1 1.6 4.3 2.7 1.3 1.1 2.3 2.5 3.1 4.1.8 1.6 1.2 3.6 1.2 5.9 0 2.5-.4 4.8-1.3 7-.8 2.2-2.1 4.1-3.7 5.7-1.6 1.6-3.6 2.9-6 3.8-2.4.9-5 1.4-8 1.4-3.7 0-7-.7-10-2s-5.6-3.1-7.7-5.4l2.2-3.6c.2-.3.5-.5.8-.7.3-.2.6-.3 1-.3.6 0 1.2.3 1.9.9.7.6 1.6 1.2 2.7 2 1.1.7 2.4 1.4 3.9 2 1.5.6 3.4.9 5.6.9 1.8 0 3.4-.3 4.9-.8 1.4-.5 2.6-1.2 3.6-2.1 1-.9 1.7-2 2.3-3.3.5-1.3.8-2.7.8-4.2 0-1.7-.4-3.1-1.2-4.2-.8-1.1-1.8-2-3.1-2.7-1.3-.7-2.7-1.4-4.3-1.9-1.6-.5-3.3-1-5-1.6-1.7-.5-3.4-1.2-5-1.9s-3.1-1.6-4.3-2.8c-1.3-1.1-2.3-2.5-3.1-4.2-.8-1.7-1.2-3.8-1.2-6.3 0-2 .4-3.9 1.2-5.8.8-1.9 1.9-3.5 3.4-5 1.5-1.4 3.3-2.6 5.5-3.5 2.2-.9 4.7-1.3 7.5-1.3 3.2 0 6 .5 8.7 1.5 2.6 1 4.9 2.5 6.8 4.3l-2 3.5zm74.1 36.1c.4 0 .8.2 1.1.5l3 3.3c-2.3 2.7-5.1 4.8-8.4 6.3-3.3 1.5-7.3 2.3-12 2.3-4.1 0-7.8-.7-11.1-2.1-3.3-1.4-6.2-3.4-8.5-5.9-2.3-2.5-4.2-5.6-5.5-9.1-1.3-3.6-1.9-7.5-1.9-11.7 0-4.3.7-8.2 2.1-11.7 1.4-3.6 3.3-6.6 5.8-9.2 2.5-2.6 5.5-4.5 9-5.9 3.5-1.4 7.3-2.1 11.6-2.1 4.2 0 7.8.6 10.8 1.9 3 1.3 5.7 3 8 5.3l-2.5 3.5c-.2.3-.4.5-.6.7-.2.2-.6.3-1 .3-.3 0-.7-.1-1.1-.4-.4-.3-.8-.6-1.4-.9-.5-.4-1.1-.8-1.9-1.2-.7-.4-1.6-.8-2.5-1.2s-2.1-.7-3.4-.9c-1.3-.3-2.8-.4-4.5-.4-3 0-5.8.5-8.3 1.6-2.5 1-4.7 2.5-6.5 4.4-1.8 1.9-3.2 4.3-4.2 7-1 2.8-1.5 5.9-1.5 9.3 0 3.5.5 6.7 1.5 9.4 1 2.8 2.4 5.1 4.1 7 1.8 1.9 3.8 3.4 6.2 4.4 2.4 1 5 1.5 7.7 1.5 1.7 0 3.2-.1 4.5-.3 1.3-.2 2.6-.5 3.7-.9s2.2-1 3.2-1.6c1-.6 2-1.4 3-2.3.6-.7 1-.9 1.5-.9zm79.3 11.7h-7.7v-25.8H1204v25.8h-7.7v-56.6h7.7v25.3h30.5v-25.3h7.7v56.6zm43.8-6.4h24.5v6.4h-32.2v-56.6h7.7v50.2zm100.9 6.4h-5.9c-.7 0-1.2-.2-1.7-.5-.4-.3-.7-.8-.9-1.3l-5.3-13.7h-25.4l-5.3 13.7c-.2.5-.5.9-.9 1.3s-1 .6-1.7.6h-5.9l22.6-56.6h7.8l22.6 56.5zm-37.1-21h21.1l-8.9-23c-.6-1.4-1.1-3.2-1.7-5.3-.3 1.1-.6 2.1-.9 3-.3.9-.5 1.7-.8 2.4l-8.8 22.9zm71-35.4c.3.2.7.5 1.1 1l32.8 42.7c-.1-.7-.1-1.3-.2-2v-42h6.7v56.6h-3.9c-.6 0-1.1-.1-1.5-.3-.4-.2-.8-.6-1.2-1.1l-32.8-42.6c.1.7.1 1.3.1 1.9v42.1h-6.7V502h4c.8.1 1.3.1 1.6.3zm122.5 28.1c0 4.2-.7 8.1-2 11.6s-3.2 6.5-5.7 8.9c-2.5 2.5-5.4 4.4-8.8 5.8-3.4 1.4-7.2 2-11.4 2h-21.2v-56.6h21.2c4.2 0 8 .7 11.4 2 3.4 1.4 6.4 3.3 8.8 5.8 2.5 2.5 4.3 5.5 5.7 9 1.4 3.4 2 7.3 2 11.5zm-7.8 0c0-3.5-.5-6.6-1.4-9.3-.9-2.7-2.3-5.1-4-7-1.7-1.9-3.8-3.3-6.3-4.3s-5.2-1.5-8.3-1.5H1502v44.2h13.5c3 0 5.8-.5 8.3-1.5 2.5-1 4.6-2.4 6.3-4.3 1.7-1.9 3.1-4.2 4-6.9.9-2.8 1.4-5.9 1.4-9.4zM513 381.4l-.7-15.4-46.7 2.2 45.5-10.5-3.4-15-45.6 10.5 42.9-18.4-6.1-14.2-42.8 18.5 38.9-25.8-8.6-12.9-38.9 25.9 33.7-32.4-10.7-11.1-33.6 32.4 27.3-37.9-12.5-9-27.3 37.8 20.1-42.1-13.9-6.6-20.1 42.1 12.3-45.1-14.9-4-12.3 45 4.1-46.5-15.3-1.3-4.3 48.1-4.6-48.1-15.3 1.5 4.4 46.5-12.6-45-14.9 4.2 12.7 45-20.5-42-13.8 6.8 20.5 41.9-27.7-37.6-12.4 9.1 27.7 37.6-34-32.1-10.5 11.2 33.9 32.1-39.1-25.5-8.4 12.9 39.1 25.5-43.1-18.1-5.9 14.2 43 18.1-45.6-10.1-3.3 15 45.5 10.1-46.6-1.8-.6 15.4 46.6 1.8-46.2 6.5 2.1 15.3 46.3-6.5-44.4 14.6 4.9 14.7 44.3-14.7-41 22.3 7.3 13.6 41.1-22.3-36.4 29.2 9.6 12 36.4-29.3-30.5 35.4 11.6 10 30.6-35.3-23.8 40.2 13.2 7.9 23.8-40.2-16.2 43.8 14.4 5.3L358 463l-8.2 46 15.2 2.7 8.1-46 .2 46.7 15.4-.1-.2-46.7 8.6 46 15.1-2.9-8.5-45.9 16.6 43.7 14.4-5.5-16.6-43.6 24.1 40 13.2-8-24.1-40 30.8 35.1 11.6-10.2-30.9-35.1 36.6 29 9.6-12.1-36.6-29 41.2 22 7.2-13.5-41.1-22 44.4 14.2 4.7-14.6-44.5-14.3 46.4 6.1 2-15.3-46.3-6.1zm81.4 15.7L705.5 412l-2.8 20.9-111.1-15zm-96.997-197.358L599.047 58.639l17.04 12.275-101.645 141.102zm-33.956-17.937l36.051-75.646 18.957 9.034-36.051 75.646zm-36.617-11.576l31.294-115.221 20.265 5.504-31.294 115.22zM409.7 167.4l-21-2 7.2-83.5 20.9 1.8zm-59.3 0L341.6 74l20.9-2 8.8 93.4zm-37.4 8.8l-17.4-61.8 20.3-5.7 17.3 61.9zm-54.076-23.348l18.881-9.192 18.865 38.751-18.881 9.192zM245.9 213l-10-13.6 17-12.4 9.9 13.6zm-27.6 26.8l-50.1-47.5 14.5-15.3 50.1 47.5zM196 271l-77.2-50.9 11.5-17.6 77.2 51zm-16.4 34.8l-48.4-20.5 8.2-19.3 48.4 20.4zM96 357.4l71.4 2.8-.9 21-71.4-2.8zm29.362 47.128l41.993-5.86 2.902 20.799-41.993 5.86zm25.968 39.492l22.89-7.544 6.572 19.946-22.89 7.543zm-40.26 69.96l76.623-41.629 10.025 18.453-76.623 41.629zm23.03 50.318l73.255-58.91 13.16 16.365-73.254 58.91zm38.586 39.23l59.97-69.24 15.874 13.748-59.97 69.24zm68.382-8.923l21.539-36.404 18.072 10.693-21.539 36.404zM287.6 661l-19.7-7.3 28.6-77.2 19.7 7.3zm32.246 1.826l13.192-74.443 20.678 3.665-13.192 74.443zM392.3 646l-21 .1-.2-52.5 21-.1zm35.7 45.8l-18.5-99.9 20.6-3.9 18.6 99.9zm19.006-108.462l19.63-7.462 21.816 57.397-19.631 7.461zM482.2 568.3L565.7 705l18-10.9-83.5-136.7zm44.4-9l-11.9-11.7 15-14.8 11.8 11.7zm68.6 3.3l-53.1-42 13-16.5 53.2 42zm23.5-44.3l-54-28.8 9.9-18.5 54 28.7zm-11.3-55.1l-26-8.3 6.4-20 26 8.3zm-12.3-83.6l-1.1-21 52-2.5 1 21zm-8.215-58.663l63.992-14.888 4.758 20.454-63.992 14.888zM581.5 304.3l-8.4-19.3 41.2-17.8 8.3 19.3zm-16.7-34.6l-11.6-17.5 108.4-72.3 11.7 17.5zm-22.6-31.1l-14.5-15.1 16.3-15.8 14.5 15.2zM55.5 317.3l114.2 25.6 4.6-20.5-114.1-25.6z"/><path d="M383.7 366.3c-1.8-4.3-4.3-8.1-7.5-11.2-3.2-3.2-7.1-5.6-11.6-7.4-4.5-1.8-9.6-2.7-15.1-2.7h-27.6v71h27.6c5.5 0 10.6-.9 15.1-2.7 4.5-1.8 8.4-4.2 11.6-7.4 3.2-3.2 5.7-6.9 7.5-11.3s2.7-9.1 2.7-14.2c-.1-5.1-1-9.8-2.7-14.1zM368.1 390c-.9 2.8-2.2 5.2-3.9 7.2-1.7 2-3.8 3.5-6.3 4.5-2.5 1.1-5.3 1.6-8.4 1.6h-11v-45.7h11c3.2 0 6 .5 8.4 1.6 2.5 1.1 4.6 2.6 6.3 4.5 1.7 2 3 4.4 3.9 7.2.9 2.8 1.4 6 1.4 9.5 0 3.6-.5 6.8-1.4 9.6zm70.2-32.4V345h-45.8v71h45.8v-12.7h-29.2v-16.9h22.3v-12.2h-22.3v-16.6z" fill="#fff"/></svg>