<svg width="154" height="74" viewBox="0 0 154 74" fill="none" xmlns="http://www.w3.org/2000/svg">
<g clip-path="url(#clip0)">
<path d="M152.891 36.5806C152.891 43.5637 150.821 50.3901 146.942 56.1966C143.063 62.0031 137.549 66.5289 131.098 69.2015C124.647 71.8742 117.548 72.5737 110.699 71.2115C103.85 69.8494 97.5586 66.4868 92.6208 61.5491C87.6831 56.6113 84.3205 50.3202 82.9584 43.4713C81.5962 36.6224 82.2957 29.5233 84.9684 23.072C87.641 16.6207 92.1668 11.1068 97.9733 7.22768C103.78 3.34858 110.606 1.27853 117.589 1.2793C126.951 1.28033 135.93 4.9999 142.55 11.62C149.17 18.24 152.89 27.2184 152.891 36.5806Z" fill="#E61414"/>
<path d="M104.126 16.6797C105.9 16.6797 107.214 17.8494 107.448 19.7521C107.588 21.2252 107.588 22.7082 107.448 24.1813C107.391 25.0208 107.016 25.8067 106.398 26.378C105.78 26.9493 104.967 27.2626 104.126 27.2537C102.352 27.2537 101.038 26.084 100.804 24.1813C100.656 22.7086 100.656 21.2248 100.804 19.7521C100.983 18.1418 102.177 16.6797 104.126 16.6797ZM102.208 19.7521C102.06 21.2248 102.06 22.7086 102.208 24.1813C102.285 24.6354 102.521 25.0473 102.874 25.3439C103.226 25.6405 103.673 25.8028 104.133 25.8019C104.594 25.8009 105.039 25.6369 105.391 25.3388C105.742 25.0407 105.976 24.6279 106.052 24.1735C106.212 22.7014 106.212 21.2164 106.052 19.7443C106.003 19.2743 105.777 18.8404 105.42 18.5306C105.063 18.2208 104.602 18.0581 104.13 18.0755C103.655 18.0525 103.19 18.2142 102.831 18.5268C102.473 18.8393 102.25 19.2784 102.208 19.7521Z" fill="white"/>
<path d="M116.189 22.4118C116.236 23.0998 116.236 23.7902 116.189 24.4782C116.073 26.0378 115 27.2855 113.46 27.2855C112.778 27.2855 112.446 26.8956 112.154 26.8956C111.932 26.8956 111.827 26.9853 111.827 27.2855V29.7964C111.827 29.8743 111.796 29.9491 111.741 30.0046C111.686 30.06 111.612 30.0917 111.534 30.0927H110.793C110.754 30.0927 110.716 30.0851 110.68 30.0702C110.644 30.0553 110.611 30.0335 110.584 30.0059C110.556 29.9784 110.534 29.9458 110.52 29.9098C110.505 29.8739 110.497 29.8353 110.497 29.7964V20.049C110.497 19.9704 110.528 19.895 110.584 19.8394C110.639 19.7839 110.715 19.7527 110.793 19.7527H111.296C111.336 19.754 111.375 19.7637 111.41 19.7812C111.446 19.7987 111.478 19.8235 111.503 19.854C111.545 19.9166 111.6 19.9699 111.664 20.0108C111.727 20.0516 111.799 20.0792 111.873 20.0919C112.302 20.0919 112.365 19.6045 113.46 19.6045C114.989 19.6045 116.061 20.86 116.189 22.4118ZM111.671 22.4118C111.628 23.0999 111.628 23.7901 111.671 24.4782C111.715 24.8802 111.905 25.2518 112.207 25.5218C112.508 25.7918 112.898 25.9411 113.302 25.9411C113.707 25.9411 114.097 25.7918 114.398 25.5218C114.699 25.2518 114.89 24.8802 114.934 24.4782C114.977 23.7901 114.977 23.0999 114.934 22.4118C114.89 22.0097 114.699 21.6381 114.398 21.3682C114.097 21.0982 113.707 20.9489 113.302 20.9489C112.898 20.9489 112.508 21.0982 112.207 21.3682C111.905 21.6381 111.715 22.0097 111.671 22.4118Z" fill="white"/>
<path d="M122.202 25.955C122.522 25.9816 122.842 25.9057 123.116 25.7381C123.39 25.5706 123.604 25.3202 123.726 25.0231C123.746 24.949 123.79 24.8839 123.852 24.8385C123.913 24.7931 123.989 24.7702 124.065 24.7736H124.818C124.856 24.7696 124.894 24.775 124.93 24.7893C124.965 24.8036 124.997 24.8263 125.021 24.8556C125.046 24.8848 125.063 24.9196 125.071 24.957C125.079 24.9943 125.078 25.0331 125.067 25.0699C124.892 26.3527 123.738 27.2845 122.202 27.2845C121.429 27.3099 120.678 27.0291 120.111 26.5034C119.545 25.9777 119.209 25.2495 119.176 24.4773C119.129 23.7892 119.129 23.0988 119.176 22.4108C119.23 21.6416 119.578 20.9227 120.148 20.4038C120.718 19.8848 121.467 19.6058 122.237 19.6249C123.008 19.644 123.742 19.9597 124.286 20.5063C124.83 21.0528 125.142 21.7881 125.157 22.559V23.5766C125.154 23.6543 125.122 23.728 125.067 23.7829C125.012 23.8379 124.938 23.87 124.861 23.8729H120.638C120.618 23.8718 120.599 23.8748 120.58 23.8819C120.562 23.8889 120.545 23.8998 120.531 23.9138C120.517 23.9278 120.506 23.9446 120.499 23.9631C120.492 23.9816 120.489 24.0013 120.49 24.0211C120.478 25.3623 121.184 25.955 122.202 25.955ZM120.669 22.6915H123.738C123.758 22.6927 123.777 22.6896 123.796 22.6826C123.814 22.6755 123.831 22.6646 123.845 22.6506C123.859 22.6367 123.87 22.6199 123.877 22.6014C123.884 22.5829 123.887 22.5631 123.886 22.5434C123.894 22.3248 123.855 22.1071 123.773 21.9043C123.691 21.7016 123.568 21.5184 123.41 21.3665C123.253 21.2146 123.065 21.0976 122.86 21.0229C122.654 20.9483 122.435 20.9176 122.217 20.9331C121.998 20.9197 121.779 20.9515 121.573 21.0266C121.367 21.1017 121.178 21.2183 121.019 21.3694C120.86 21.5204 120.734 21.7026 120.648 21.9046C120.562 22.1066 120.519 22.324 120.521 22.5434C120.52 22.5631 120.523 22.5829 120.53 22.6014C120.537 22.6199 120.548 22.6367 120.562 22.6506C120.576 22.6646 120.593 22.6755 120.611 22.6826C120.63 22.6896 120.65 22.6927 120.669 22.6915Z" fill="white"/>
<path d="M129.602 26.8404C129.602 26.9183 129.571 26.9931 129.516 27.0486C129.462 27.104 129.387 27.1357 129.309 27.1367H128.569C128.49 27.1367 128.415 27.1055 128.359 27.05C128.304 26.9944 128.272 26.919 128.272 26.8404V20.0484C128.272 19.9698 128.304 19.8944 128.359 19.8389C128.415 19.7833 128.49 19.7521 128.569 19.7521H129.22C129.259 19.7534 129.298 19.7631 129.334 19.7806C129.37 19.7981 129.401 19.8229 129.426 19.8535C129.468 19.9164 129.522 19.97 129.585 20.0109C129.648 20.0519 129.719 20.0793 129.793 20.0913C130.222 20.0913 130.343 19.6039 131.376 19.6039C131.746 19.5976 132.114 19.6659 132.458 19.8047C132.801 19.9435 133.113 20.1501 133.375 20.412C133.637 20.674 133.844 20.986 133.982 21.3294C134.121 21.6729 134.19 22.0408 134.183 22.4112V26.8404C134.183 26.919 134.152 26.9944 134.096 27.05C134.041 27.1055 133.965 27.1367 133.887 27.1367H133.15C133.071 27.1367 132.996 27.1055 132.94 27.05C132.885 26.9944 132.854 26.919 132.854 26.8404V22.4112C132.848 22.206 132.802 22.0039 132.716 21.8173C132.631 21.6306 132.508 21.4632 132.356 21.3251C132.204 21.187 132.026 21.0811 131.832 21.0138C131.638 20.9465 131.433 20.9192 131.228 20.9335C130.312 20.9335 129.602 21.4793 129.602 22.3371V26.8404Z" fill="white"/>
<path d="M101.112 41.6102V31.8627C101.112 31.7841 101.143 31.7088 101.199 31.6532C101.254 31.5976 101.33 31.5664 101.408 31.5664H104.216C105.927 31.5664 107.109 32.9544 107.315 34.6856C107.456 36.0597 107.456 37.4444 107.315 38.8185C107.124 40.5185 105.927 41.9377 104.216 41.9377H101.408C101.367 41.9379 101.326 41.9294 101.287 41.9126C101.249 41.8958 101.215 41.8711 101.187 41.8402C101.159 41.8093 101.138 41.7728 101.125 41.7332C101.112 41.6935 101.108 41.6516 101.112 41.6102ZM104.231 40.5029C105.132 40.5029 105.826 39.6919 105.931 38.8029C106.076 37.429 106.076 36.0439 105.931 34.67C105.826 33.781 105.151 32.97 104.231 32.97H102.672C102.652 32.9689 102.632 32.972 102.614 32.979C102.595 32.9861 102.578 32.9969 102.564 33.0109C102.55 33.0249 102.54 33.0417 102.533 33.0602C102.525 33.0787 102.522 33.0984 102.524 33.1182V40.3547C102.522 40.3745 102.525 40.3942 102.533 40.4127C102.54 40.4312 102.55 40.448 102.564 40.462C102.578 40.476 102.595 40.4869 102.614 40.4939C102.632 40.5009 102.652 40.504 102.672 40.5029H104.231Z" fill="white"/>
<path d="M111.955 36.4863C111.955 36.7359 111.749 36.7359 111.612 36.7359H110.949C110.909 36.7427 110.867 36.7397 110.828 36.7272C110.789 36.7147 110.754 36.693 110.725 36.6641C110.696 36.6351 110.674 36.5996 110.662 36.5605C110.649 36.5215 110.646 36.48 110.653 36.4396C110.653 35.0671 112.072 34.3731 113.328 34.3731C113.683 34.3591 114.038 34.4182 114.37 34.5469C114.702 34.6755 115.003 34.8708 115.257 35.1208C115.51 35.3708 115.709 35.6701 115.842 36.0002C115.975 36.3304 116.039 36.6842 116.03 37.04V41.6174C116.03 41.6953 115.999 41.7701 115.944 41.8256C115.889 41.881 115.815 41.9127 115.737 41.9137H115.234C115.194 41.915 115.154 41.9064 115.118 41.8887C115.082 41.8711 115.051 41.8448 115.028 41.8123C114.938 41.6915 114.879 41.5004 114.731 41.5004C114.466 41.5004 114.096 42.0619 113.004 42.0619C111.187 42.0619 110.314 40.9546 110.314 39.6991C110.314 38.4436 111.199 37.4299 112.751 37.4299H114.552C114.572 37.431 114.591 37.428 114.61 37.4209C114.628 37.4139 114.645 37.403 114.659 37.389C114.673 37.375 114.684 37.3582 114.691 37.3398C114.698 37.3213 114.701 37.3015 114.7 37.2817V36.81C114.7 36.0302 114.08 35.6403 113.328 35.6403C112.84 35.6442 111.955 35.7767 111.955 36.4863ZM112.735 38.6581C111.982 38.6581 111.628 39.048 111.628 39.6757C111.628 40.4009 112.084 40.8259 112.942 40.8259C114.302 40.8259 114.805 40.2801 114.805 39.2663V38.8023C114.807 38.7827 114.804 38.7631 114.796 38.7448C114.789 38.7265 114.778 38.7099 114.764 38.6962C114.75 38.6825 114.733 38.6721 114.715 38.6655C114.696 38.6589 114.677 38.6564 114.657 38.6581H112.735Z" fill="white"/>
<path d="M122.217 35.925C122.198 35.9239 122.178 35.927 122.159 35.934C122.141 35.9411 122.124 35.9519 122.11 35.9659C122.096 35.9799 122.085 35.9967 122.078 36.0152C122.071 36.0337 122.068 36.0534 122.069 36.0732V39.6914C122.085 39.955 122.202 40.2025 122.394 40.3834C122.586 40.5643 122.84 40.665 123.104 40.665C123.368 40.665 123.623 40.5643 123.815 40.3834C124.007 40.2025 124.123 39.955 124.14 39.6914C124.14 39.6129 124.171 39.5375 124.226 39.4819C124.282 39.4263 124.357 39.3951 124.436 39.3951H125.157C125.236 39.3951 125.311 39.4263 125.367 39.4819C125.422 39.5375 125.454 39.6129 125.454 39.6914C125.429 40.302 125.169 40.8793 124.728 41.3025C124.287 41.7257 123.7 41.9621 123.089 41.9621C122.478 41.9621 121.89 41.7257 121.45 41.3025C121.009 40.8793 120.749 40.302 120.724 39.6914V36.0732C120.726 36.0536 120.723 36.0339 120.717 36.0155C120.71 35.997 120.7 35.9801 120.686 35.966C120.672 35.952 120.656 35.941 120.637 35.934C120.619 35.9269 120.599 35.9238 120.58 35.925H119.102C119.024 35.925 118.948 35.8938 118.893 35.8382C118.837 35.7827 118.806 35.7073 118.806 35.6287V34.8918C118.806 34.8132 118.837 34.7378 118.893 34.6823C118.948 34.6267 119.024 34.5955 119.102 34.5955H120.58C120.599 34.5967 120.619 34.5936 120.637 34.5866C120.656 34.5795 120.672 34.5685 120.686 34.5545C120.7 34.5404 120.71 34.5236 120.717 34.5051C120.723 34.4866 120.726 34.4669 120.724 34.4473V32.1586C120.724 32.08 120.755 32.0047 120.811 31.9491C120.866 31.8935 120.942 31.8623 121.02 31.8623H121.761C121.839 31.8633 121.914 31.895 121.968 31.9505C122.023 32.0059 122.054 32.0807 122.054 32.1586V34.4473C122.053 34.4671 122.056 34.4868 122.063 34.5053C122.07 34.5238 122.081 34.5406 122.095 34.5546C122.109 34.5686 122.125 34.5795 122.144 34.5865C122.162 34.5936 122.182 34.5966 122.202 34.5955H124.565C124.643 34.5955 124.719 34.6267 124.774 34.6823C124.83 34.7378 124.861 34.8132 124.861 34.8918V35.6287C124.861 35.7073 124.83 35.7827 124.774 35.8382C124.719 35.8938 124.643 35.925 124.565 35.925H122.217Z" fill="white"/>
<path d="M129.972 36.4863C129.972 36.7359 129.766 36.7359 129.633 36.7359H128.966C128.926 36.7427 128.885 36.7397 128.846 36.7272C128.806 36.7147 128.771 36.693 128.742 36.664C128.713 36.6351 128.691 36.5996 128.679 36.5605C128.666 36.5215 128.663 36.48 128.67 36.4396C128.67 35.0671 130.089 34.3731 131.345 34.3731C131.701 34.3591 132.055 34.4183 132.388 34.5468C132.72 34.6754 133.022 34.8707 133.275 35.1206C133.529 35.3706 133.729 35.6698 133.862 36C133.995 36.3301 134.06 36.6841 134.051 37.04V41.6174C134.05 41.6957 134.018 41.7704 133.963 41.8258C133.907 41.8812 133.833 41.9127 133.754 41.9137H133.251C133.211 41.915 133.172 41.9064 133.136 41.8887C133.099 41.8711 133.068 41.8448 133.045 41.8123C132.955 41.6915 132.897 41.5004 132.748 41.5004C132.483 41.5004 132.113 42.0619 131.021 42.0619C129.204 42.0619 128.331 40.9546 128.331 39.6991C128.331 38.4436 129.22 37.4299 130.772 37.4299H132.565C132.585 37.431 132.605 37.428 132.623 37.4209C132.642 37.4139 132.659 37.403 132.673 37.389C132.686 37.375 132.697 37.3582 132.704 37.3397C132.711 37.3213 132.715 37.3015 132.713 37.2817V36.81C132.713 36.0302 132.093 35.6403 131.337 35.6403C130.857 35.6442 129.972 35.7767 129.972 36.4863ZM130.752 38.6581C129.996 38.6581 129.641 39.048 129.641 39.6757C129.641 40.4009 130.101 40.8259 130.955 40.8259C132.316 40.8259 132.819 40.28 132.819 39.2663V38.8023C132.82 38.7827 132.817 38.7631 132.81 38.7448C132.803 38.7265 132.792 38.7099 132.778 38.6962C132.764 38.6825 132.747 38.672 132.728 38.6655C132.71 38.6589 132.69 38.6564 132.67 38.6581H130.752Z" fill="white"/>
<path d="M114.08 56.1767C114.08 56.2546 114.049 56.3294 113.995 56.3848C113.94 56.4403 113.866 56.4719 113.788 56.473H112.454C112.376 56.4719 112.302 56.4403 112.247 56.3848C112.193 56.3294 112.162 56.2546 112.162 56.1767V54.8471C112.162 54.7692 112.193 54.6944 112.247 54.6389C112.302 54.5835 112.376 54.5518 112.454 54.5508H113.788C113.866 54.5518 113.94 54.5835 113.995 54.6389C114.049 54.6944 114.08 54.7692 114.08 54.8471V56.1767Z" fill="white"/>
<path d="M122.217 56.6214C120.447 56.6214 119.383 55.3659 119.266 53.8142C119.219 53.1261 119.219 52.4357 119.266 51.7477C119.383 50.1881 120.435 48.9404 122.217 48.9404C123.874 48.9404 125.067 50.0166 125.067 51.4514C125.067 51.6112 124.982 51.7477 124.818 51.7477H124.038C124.004 51.752 123.969 51.7492 123.935 51.7394C123.902 51.7296 123.871 51.713 123.844 51.6907C123.817 51.6684 123.796 51.6408 123.78 51.6097C123.764 51.5786 123.755 51.5446 123.754 51.5099C123.754 50.8158 123.149 50.27 122.233 50.27C122.029 50.2584 121.825 50.2877 121.632 50.3561C121.44 50.4244 121.263 50.5305 121.112 50.6681C120.96 50.8057 120.838 50.9721 120.752 51.1575C120.667 51.3428 120.618 51.5435 120.611 51.7477C120.564 52.4357 120.564 53.1261 120.611 53.8142C120.618 54.0183 120.667 54.219 120.752 54.4044C120.838 54.5897 120.96 54.7561 121.112 54.8937C121.263 55.0313 121.44 55.1374 121.632 55.2058C121.825 55.2741 122.029 55.3034 122.233 55.2919C123.134 55.2919 123.742 54.7577 123.742 54.0637C123.741 54.0279 123.748 53.9924 123.762 53.9596C123.776 53.9268 123.797 53.8974 123.824 53.8737C123.851 53.8499 123.883 53.8323 123.917 53.822C123.951 53.8117 123.987 53.809 124.023 53.8142H124.802C124.88 53.8152 124.955 53.8468 125.009 53.9023C125.064 53.9578 125.095 54.0326 125.095 54.1105C125.067 55.5414 123.874 56.6214 122.217 56.6214Z" fill="white"/>
<path d="M128.686 56.4727C128.608 56.4717 128.533 56.44 128.479 56.3845C128.424 56.3291 128.393 56.2543 128.393 56.1764V46.3237C128.393 46.2457 128.424 46.171 128.479 46.1155C128.533 46.06 128.608 46.0284 128.686 46.0273H129.446C129.524 46.0284 129.599 46.0599 129.654 46.1153C129.71 46.1706 129.741 46.2454 129.742 46.3237V48.9984C129.745 49.0821 129.781 49.1615 129.841 49.2197C129.901 49.2778 129.982 49.3103 130.066 49.3103C130.362 49.3103 130.744 48.9204 131.423 48.9204C132.167 48.9204 132.881 49.2161 133.408 49.7426C133.934 50.2691 134.23 50.9831 134.23 51.7276V56.1569C134.23 56.2355 134.199 56.3108 134.143 56.3664C134.088 56.422 134.012 56.4532 133.934 56.4532H133.197C133.118 56.4532 133.043 56.422 132.987 56.3664C132.932 56.3108 132.9 56.2355 132.9 56.1569V51.7471C132.886 51.3421 132.712 50.9591 132.416 50.6822C132.12 50.4052 131.726 50.2568 131.321 50.2694C131.125 50.2557 130.928 50.2813 130.742 50.3448C130.555 50.4083 130.384 50.5083 130.237 50.6391C130.089 50.7698 129.97 50.9286 129.885 51.1062C129.8 51.2838 129.752 51.4765 129.742 51.6731V56.1764C129.741 56.2546 129.71 56.3294 129.654 56.3848C129.599 56.4401 129.524 56.4717 129.446 56.4727H128.686Z" fill="white"/>
<path d="M50.3442 69.7913C68.5157 62.2645 77.1448 41.4318 69.618 23.2604C62.0911 5.08892 41.2585 -3.54023 23.087 3.98664C4.91557 11.5135 -3.71358 32.3461 3.81329 50.5176C11.3402 68.689 32.1728 77.3182 50.3442 69.7913Z" fill="#E61414"/>
<path d="M26.2246 55.2838C25.8932 55.8374 25.5618 56.1143 25.0549 56.1143H24.1231C23.9396 56.1173 23.7588 56.0708 23.5995 55.9798C23.4402 55.8888 23.3084 55.7566 23.2178 55.5971C23.1273 55.4375 23.0814 55.2565 23.0849 55.0731C23.0885 54.8897 23.1413 54.7106 23.238 54.5547L46.8463 18.2123C46.9522 17.9748 47.122 17.7713 47.3368 17.6247C47.5516 17.478 47.803 17.394 48.0628 17.3818H48.8933C49.0743 17.3849 49.2514 17.4351 49.4071 17.5275C49.5628 17.62 49.6917 17.7514 49.7811 17.9089C49.8705 18.0664 49.9172 18.2445 49.9167 18.4255C49.9163 18.6066 49.8685 18.7844 49.7783 18.9414L26.2246 55.2838Z" fill="white"/>
<path d="M41.8049 54.5113V39.0518C41.806 38.9239 41.8572 38.8015 41.9477 38.7111C42.0381 38.6206 42.1605 38.5694 42.2884 38.5684H48.1837C50.9948 38.5684 52.9326 40.6426 53.2757 43.4577C53.5058 45.6233 53.5058 47.8072 53.2757 49.9729C52.9599 52.7606 50.9948 54.9986 48.1837 54.9986H42.2884C42.1598 54.9976 42.0369 54.9458 41.9463 54.8545C41.8557 54.7632 41.8049 54.6399 41.8049 54.5113ZM47.6534 52.2187C49.1311 52.2187 50.2735 50.9515 50.4412 49.4894C50.6831 47.6414 50.6831 45.7697 50.4412 43.9217C50.3811 43.2213 50.0622 42.5684 49.5468 42.0905C49.0313 41.6125 48.3563 41.3438 47.6534 41.3366H44.9241C44.8916 41.3349 44.859 41.3401 44.8287 41.3519C44.7983 41.3637 44.7708 41.3818 44.7479 41.405C44.7251 41.4282 44.7074 41.456 44.6961 41.4866C44.6848 41.5171 44.6801 41.5498 44.6824 41.5823V51.9691C44.6801 52.0015 44.6847 52.0339 44.696 52.0643C44.7074 52.0947 44.7251 52.1223 44.748 52.1452C44.771 52.1681 44.7985 52.1859 44.8289 52.1972C44.8593 52.2085 44.8918 52.2132 44.9241 52.2109L47.6534 52.2187Z" fill="white"/>
<path d="M32.3616 24.8407C31.921 21.3005 29.4841 19.0312 26.1661 19.0312C22.5166 19.0312 20.3176 21.8541 19.9277 24.8407C19.6509 26.6745 19.6509 28.5395 19.9277 30.3734C20.3722 33.9682 22.8598 36.1789 26.1661 36.1789C29.8194 36.1789 32.0146 33.4146 32.3616 30.3734C32.6384 28.5395 32.6384 26.6745 32.3616 24.8407ZM29.2697 30.4124C29.0474 31.972 27.8855 33.2313 26.17 33.2313C24.1776 33.2313 23.2925 31.6717 23.0742 30.4124C22.7973 28.5223 22.7973 26.6021 23.0742 24.7121C23.1636 23.9533 23.5285 23.2537 24.0995 22.7461C24.6704 22.2384 25.4079 21.958 26.1719 21.958C26.936 21.958 27.6734 22.2384 28.2444 22.7461C28.8154 23.2537 29.1802 23.9533 29.2697 24.7121C29.5466 26.6021 29.5466 28.5223 29.2697 30.4124Z" fill="white"/>
</g>
<defs>
<clipPath id="clip0">
<rect width="153.994" height="73.6594" fill="white"/>
</clipPath>
</defs>
</svg>
