<?xml version="1.0" encoding="utf-8"?>
<!-- Generator: Adobe Illustrator 22.0.1, SVG Export Plug-In . SVG Version: 6.00 Build 0)  -->
<svg version="1.1" id="Ebene_1" xmlns="http://www.w3.org/2000/svg" xmlns:xlink="http://www.w3.org/1999/xlink" x="0px" y="0px"
	 viewBox="0 0 1282.4 250.5" enable-background="new 0 0 1282.4 250.5" xml:space="preserve">
<g id="Ebene_1_1_">
	<g>
		<path fill="#006EFA" d="M49.8,16.9h51c41.7,0,80.4,19.5,80.4,60.3c0,32.7-27,52.5-57.9,57.9l84.9,98.4h-37.5l-80.1-94.8H79.5v94.8
			H49.8V16.9z M78.9,113.5l22.5-0.3c23.1-0.3,48.9-9.3,48.9-35.1c0-27.6-26.7-35.4-49.2-35.7l-22.2-0.3V113.5z"/>
		<path fill="#006EFA" d="M229.2,16.9h125.1v25.5h-95.4v67.5h91.2v25.2h-90.9v72h98.4v26.4H229.2V16.9z"/>
		<path fill="#006EFA" d="M412.8,168.1c0.3,15.9,7.8,45,47.7,45c35.4,0,45.3-21.6,45.3-35.1c0-23.4-16.2-31.5-51.6-39.3
			c-38.1-8.4-69.3-28.2-69.3-64.2c0-40.5,32.1-63,72.3-63c39.6,0,70.8,21.9,73.2,63h-30.9c-1.5-27-21.6-38.1-42.9-38.1
			c-25.2,0-41.7,16.2-41.7,36.6c0,24.3,22.8,32.4,51.9,39c41.7,9.6,69.6,26.1,69.6,62.7c0,37.8-29.7,63.9-78.3,63.9
			c-34.2,0-75.6-16.8-76.5-70.5H412.8z"/>
		<path fill="#006EFA" d="M667.2,238.6c-57.9,0-106.8-45.3-106.8-114.9c0-58.5,41.4-112.5,107.1-112.5
			c65.7,0,107.7,52.2,107.7,113.7C775.2,196.3,724.8,238.6,667.2,238.6z M667.2,36.4c-46.5,0-75.6,39.9-75.6,87.9
			c0,51,29.4,88.8,75.6,88.8c50.1,0,76.8-40.8,76.8-88.5C744,70.9,711.6,36.4,667.2,36.4z"/>
		<path fill="#006EFA" d="M808.2,16.9h29.7v189.9l88.8-0.3v27H808.2V16.9z"/>
		<path fill="#006EFA" d="M1022.7,233.5h-35.1L914.7,16.9h33l57,182.1h1.8l53.1-182.1h30.3L1022.7,233.5z"/>
		<path fill="#006EFA" d="M1116.9,16.9H1242v25.5h-95.4v67.5h91.2v25.2h-90.9v72h98.4v26.4h-128.4V16.9z"/>
	</g>
</g>
<g id="Ebene_1_Kopie" display="none">
	<rect x="308.4" y="16.4" display="inline" fill="none" width="818.7" height="295.2"/>
	
		<text transform="matrix(1 0 0 1 308.399 233.0036)" display="inline" fill="#FF0080" font-family="'Agipo-Regular'" font-size="300px">PULL</text>
</g>
</svg>
