<?xml version="1.0" encoding="utf-8"?>
<!-- Generator: Adobe Illustrator 22.0.1, SVG Export Plug-In . SVG Version: 6.00 Build 0)  -->
<svg version="1.1" id="Ebene_1" xmlns="http://www.w3.org/2000/svg" xmlns:xlink="http://www.w3.org/1999/xlink" x="0px" y="0px"
	 viewBox="0 0 1282.4 250.5" enable-background="new 0 0 1282.4 250.5" xml:space="preserve">
<g id="Ebene_1_1_">
	<g>
		<path fill="#006EFA" d="M158.9,16.9h54c41.7,0,72,22.5,72,58.2c0,28.8-21.3,43.5-33.3,47.4v1.8c12.6,2.4,40.5,17.1,40.5,49.5
			c0,38.7-30.9,59.7-74.4,59.7h-58.8V16.9z M187.7,112.3l24.9-0.3c12.9-0.3,42.6-4.2,42.6-35.1c0-26.7-24.9-35.1-41.4-35.1
			l-26.1-0.3V112.3z M188,209.2l31.5-0.3c23.7,0,42.3-12.6,42.3-35.7c0-19.8-17.7-35.7-42-36l-31.8-0.3V209.2z"/>
		<path fill="#006EFA" d="M328.1,16.9h125.1v25.5h-95.4v67.5H449v25.2h-90.9v72h98.4v26.4H328.1V16.9z"/>
		<path fill="#006EFA" d="M538.7,233.5V42.4h-64.2V16.9H632v25.5h-63.6v191.1H538.7z"/>
		<path fill="#006EFA" d="M708.2,233.5V42.4H644V16.9h157.5v25.5h-63.6v191.1H708.2z"/>
		<path fill="#006EFA" d="M828.5,16.9h125.1v25.5h-95.4v67.5h91.2v25.2h-90.9v72h98.4v26.4H828.5V16.9z"/>
		<path fill="#006EFA" d="M989.9,16.9h51c41.7,0,80.4,19.5,80.4,60.3c0,32.7-27,52.5-57.9,57.9l84.9,98.4h-37.5l-80.1-94.8h-11.1
			v94.8h-29.7V16.9z M1019,113.5l22.5-0.3c23.1-0.3,48.9-9.3,48.9-35.1c0-27.6-26.7-35.4-49.2-35.7l-22.2-0.3V113.5z"/>
	</g>
</g>
<g id="Ebene_1_Kopie" display="none">
	<rect x="308.4" y="16.4" display="inline" fill="none" width="818.7" height="295.2"/>
	
		<text transform="matrix(1 0 0 1 308.399 233.0036)" display="inline" fill="#FF0080" font-family="'Agipo-Regular'" font-size="300px">PULL</text>
</g>
</svg>
