<?xml version="1.0" encoding="utf-8"?>
<!-- Generator: Adobe Illustrator 23.0.6, SVG Export Plug-In . SVG Version: 6.00 Build 0)  -->
<svg version="1.1" id="Ebene_1" xmlns="http://www.w3.org/2000/svg" xmlns:xlink="http://www.w3.org/1999/xlink" x="0px" y="0px"
	 width="1282.4px" height="250.5px" viewBox="0 0 1282.4 250.5" enable-background="new 0 0 1282.4 250.5" xml:space="preserve">
<g>
	<path fill="#FF1414" d="M97,178.7l-17.4,54.9H49.3L120.7,17h33l74.1,216.6h-30.3l-18.3-54.9H97z M171.1,154.4l-33-103.2h-1.8
		l-31.8,103.2H171.1z"/>
	<path fill="#FF1414" d="M254.8,17h29.7l123.9,169.8h1.8V17h27.6v216.6h-30L283.9,62.9h-1.8v170.7h-27.3V17z"/>
	<path fill="#FF1414" d="M512.5,178.7l-17.4,54.9h-30.3L536.2,17h33l74.1,216.6H613l-18.3-54.9H512.5z M586.6,154.4l-33-103.2h-1.8
		L520,154.4H586.6z"/>
	<path fill="#FF1414" d="M670.3,17H700v189.9l88.8-0.3v27H670.3V17z"/>
	<path fill="#FF1414" d="M906,238.7c-57.9,0-106.8-45.3-106.8-114.9c0-58.5,41.4-112.5,107.1-112.5c65.7,0,107.7,52.2,107.7,113.7
		C1014.1,196.4,963.6,238.7,906,238.7z M906,36.5c-46.5,0-75.6,39.9-75.6,87.9c0,51,29.4,88.8,75.6,88.8c50.1,0,76.8-40.8,76.8-88.5
		C982.8,71,950.4,36.5,906,36.5z"/>
	<path fill="#FF1414" d="M1195.2,83c-0.9-25.2-20.4-45.9-51.3-45.9c-48.3,0-75,39.3-75,88.5c0,53.1,22.8,88.2,71.4,88.2
		c37.2,0,64.2-22.8,63.6-58.2l-89.4,8.7v-29.7h118.2l-0.6,17.1c-2.1,57.3-44.4,86.4-92.4,86.4c-67.2,0-101.7-50.7-101.7-112.2
		c0-60,39.3-112.2,105.9-112.2c44.7,0,80.4,28.8,83.1,69.3H1195.2z"/>
</g>
</svg>
