<?xml version="1.0" encoding="utf-8"?>
<!-- Generator: Adobe Illustrator 18.0.0, SVG Export Plug-In . SVG Version: 6.00 Build 0)  -->
<!DOCTYPE svg PUBLIC "-//W3C//DTD SVG 1.0//EN" "http://www.w3.org/TR/2001/REC-SVG-20010904/DTD/svg10.dtd">
<svg version="1.0" xmlns="http://www.w3.org/2000/svg" xmlns:xlink="http://www.w3.org/1999/xlink" x="0px" y="0px"
	 width="1282.4px" height="250.5px" viewBox="0 0 1282.4 250.5" style="enable-background:new 0 0 1282.4 250.5;"
	 xml:space="preserve">
<g id="Ebene_1">
	<g>
		<path style="fill:#FF1414;" d="M288.4,16.9h56.4c44.4,0,82.2,22.2,82.2,66.3c0,46.8-40.2,68.1-85.2,68.1h-23.4v82.2h-30V16.9z
			 M318.1,126.1l23.7-0.3c19.8,0,53.7-7.2,53.7-42.6c0-33.9-32.7-41.4-50.1-41.7l-27.3-0.3V126.1z"/>
		<path style="fill:#FF1414;" d="M487,16.9v136.2c0,42.3,21,58.2,50.1,58.2c49.2,0,50.7-42.9,50.7-58.5V16.9h29.1v135.3
			c0,63.9-37.2,85.8-79.8,85.8c-47.1,0-80.1-27-80.1-85.2V16.9H487z"/>
		<path style="fill:#FF1414;" d="M681.1,168.1c0.3,15.9,7.8,45,47.7,45c35.4,0,45.3-21.6,45.3-35.1c0-23.4-16.2-31.5-51.6-39.3
			c-38.1-8.4-69.3-28.2-69.3-64.2c0-40.5,32.1-63,72.3-63c39.6,0,70.8,21.9,73.2,63h-30.9c-1.5-27-21.6-38.1-42.9-38.1
			c-25.2,0-41.7,16.2-41.7,36.6c0,24.3,22.8,32.4,51.9,39c41.7,9.6,69.6,26.1,69.6,62.7c0,37.8-29.7,63.9-78.3,63.9
			c-34.2,0-75.6-16.8-76.5-70.5H681.1z"/>
		<path style="fill:#FF1414;" d="M867.7,16.9v94.2h104.7V16.9h30v216.6h-30v-96.6H867.7v96.6h-30V16.9H867.7z"/>
	</g>
</g>
<g id="Ebene_1_Kopie" style="display:none;">
	<rect x="308.4" y="16.4" style="display:inline;fill:none;" width="818.7" height="295.2"/>
	
		<text transform="matrix(1 0 0 1 308.399 233.0036)" style="display:inline;fill:#FF1414; font-family:'Agipo-Regular'; font-size:300;">PULL</text>
</g>
</svg>
