<?xml version="1.0" encoding="utf-8"?>
<!-- Generator: Adobe Illustrator 18.0.0, SVG Export Plug-In . SVG Version: 6.00 Build 0)  -->
<!DOCTYPE svg PUBLIC "-//W3C//DTD SVG 1.0//EN" "http://www.w3.org/TR/2001/REC-SVG-20010904/DTD/svg10.dtd">
<svg version="1.0" id="if" xmlns="http://www.w3.org/2000/svg" xmlns:xlink="http://www.w3.org/1999/xlink" x="0px" y="0px"
	 width="1282.4px" height="250.5px" viewBox="0 0 1282.4 250.5" style="enable-background:new 0 0 1282.4 250.5;"
	 xml:space="preserve">
<g id="else">
	<g>
		<path style="fill:#FF1414;" d="M288.2,16.4h51c41.7,0,80.4,19.5,80.4,60.3c0,32.7-27,52.5-57.9,57.9l84.9,98.4h-37.5L329,138.2
			h-11.1V233h-29.7V16.4z M317.3,113l22.5-0.3c23.1-0.3,48.9-9.3,48.9-35.1c0-27.6-26.7-35.4-49.2-35.7l-22.2-0.3V113z"/>
		<path style="fill:#FF1414;" d="M467.6,16.4h125.1v25.5h-95.4v67.5h91.2v25.2h-90.9v72H596V233H467.6V16.4z"/>
		<path style="fill:#FF1414;" d="M661.7,178.1L644.3,233H614l71.4-216.6h33L792.5,233h-30.3l-18.3-54.9H661.7z M735.8,153.8
			l-33-103.2H701l-31.8,103.2H735.8z"/>
		<path style="fill:#FF1414;" d="M819.5,16.4h51.6c66,0,119.7,39,119.7,110.1c0,62.1-45.3,106.5-121.8,106.5h-49.5V16.4z
			 M849.5,208.4l20.4-0.3c57-0.9,89.7-32.7,89.7-81.3c0-46.8-30-84.6-87-85.2l-23.1-0.3V208.4z"/>
	</g>
</g>
</svg>
