<?xml version="1.0" encoding="utf-8"?>
<!-- Generator: Adobe Illustrator 22.0.1, SVG Export Plug-In . SVG Version: 6.00 Build 0)  -->
<svg version="1.1" id="Ebene_1" xmlns="http://www.w3.org/2000/svg" xmlns:xlink="http://www.w3.org/1999/xlink" x="0px" y="0px"
	 viewBox="0 0 1282.4 250.5" enable-background="new 0 0 1282.4 250.5" xml:space="preserve">
<g id="Ebene_1_1_">
	<g>
		<path fill="#006EFA" d="M272,16.9h29.7v189.9l88.8-0.3v27H272V16.9z"/>
		<path fill="#006EFA" d="M507.8,238.6c-57.9,0-106.8-45.3-106.8-114.9c0-58.5,41.4-112.5,107.1-112.5s107.7,52.2,107.7,113.7
			C615.8,196.3,565.4,238.6,507.8,238.6z M507.8,36.4c-46.5,0-75.6,39.9-75.6,87.9c0,51,29.4,88.8,75.6,88.8
			c50.1,0,76.8-40.8,76.8-88.5C584.6,70.9,552.2,36.4,507.8,36.4z"/>
		<path fill="#006EFA" d="M746.6,238.6c-57.9,0-106.8-45.3-106.8-114.9c0-58.5,41.4-112.5,107.1-112.5s107.7,52.2,107.7,113.7
			C854.6,196.3,804.2,238.6,746.6,238.6z M746.6,36.4c-46.5,0-75.6,39.9-75.6,87.9c0,51,29.4,88.8,75.6,88.8
			c50.1,0,76.8-40.8,76.8-88.5C823.4,70.9,791,36.4,746.6,36.4z"/>
		<path fill="#006EFA" d="M887.6,16.9H944c44.4,0,82.2,22.2,82.2,66.3c0,46.8-40.2,68.1-85.2,68.1h-23.4v82.2h-30V16.9z
			 M917.3,126.1l23.7-0.3c19.8,0,53.7-7.2,53.7-42.6c0-33.9-32.7-41.4-50.1-41.7l-27.3-0.3V126.1z"/>
	</g>
</g>
<g id="Ebene_1_Kopie" display="none">
	<rect x="308.4" y="16.4" display="inline" fill="none" width="818.7" height="295.2"/>
	
		<text transform="matrix(1 0 0 1 308.399 233.0036)" display="inline" fill="#FF0080" font-family="'Agipo-Regular'" font-size="300px">PULL</text>
</g>
</svg>
