<?xml version="1.0" encoding="utf-8"?>
<!-- Generator: Adobe Illustrator 22.0.1, SVG Export Plug-In . SVG Version: 6.00 Build 0)  -->
<svg version="1.1" id="Ebene_1" xmlns="http://www.w3.org/2000/svg" xmlns:xlink="http://www.w3.org/1999/xlink" x="0px" y="0px"
	 viewBox="0 0 1282.4 250.5" enable-background="new 0 0 1282.4 250.5" xml:space="preserve">
<g id="Ebene_1_1_">
	<g>
		<path fill="#FF1414" d="M222.3,16.9h54c41.7,0,72,22.5,72,58.2c0,28.8-21.3,43.5-33.3,47.4v1.8c12.6,2.4,40.5,17.1,40.5,49.5
			c0,38.7-30.9,59.7-74.4,59.7h-58.8V16.9z M251.1,112.3L276,112c12.9-0.3,42.6-4.2,42.6-35.1c0-26.7-24.9-35.1-41.4-35.1l-26.1-0.3
			V112.3z M251.4,209.2l31.5-0.3c23.7,0,42.3-12.6,42.3-35.7c0-19.8-17.7-35.7-42-36l-31.8-0.3V209.2z"/>
		<path fill="#FF1414" d="M391.5,16.9h51c41.7,0,80.4,19.5,80.4,60.3c0,32.7-27,52.5-57.9,57.9l84.9,98.4h-37.5l-80.1-94.8h-11.1
			v94.8h-29.7V16.9z M420.6,113.5l22.5-0.3c23.1-0.3,48.9-9.3,48.9-35.1c0-27.6-26.7-35.4-49.2-35.7l-22.2-0.3V113.5z"/>
		<path fill="#FF1414" d="M570.9,16.9H696v25.5h-95.4v67.5h91.2v25.2h-90.9v72h98.4v26.4H570.9V16.9z"/>
		<path fill="#FF1414" d="M765,178.6l-17.4,54.9h-30.3l71.4-216.6h33l74.1,216.6h-30.3l-18.3-54.9H765z M839.1,154.3l-33-103.2h-1.8
			l-31.8,103.2H839.1z"/>
		<path fill="#FF1414" d="M922.8,16.9h29.7v102h1.8l82.5-102h36.9l-89.1,105l97.2,111.6H1044l-89.7-104.7h-1.8v104.7h-29.7V16.9z"/>
	</g>
</g>

</svg>
