<?xml version="1.0" encoding="utf-8"?>
<!-- Generator: Adobe Illustrator 22.0.1, SVG Export Plug-In . SVG Version: 6.00 Build 0)  -->
<svg version="1.1" id="Ebene_1" xmlns="http://www.w3.org/2000/svg" xmlns:xlink="http://www.w3.org/1999/xlink" x="0px" y="0px"
	 viewBox="0 0 1282.4 250.5" enable-background="new 0 0 1282.4 250.5" xml:space="preserve">
<g id="Ebene_1_1_">
	<g>
		<path fill="#FF1414" d="M392.1,16.9H513v25.5h-90.3v71.4h85.2V139h-85.2v94.5h-30.6V16.9z"/>
		<path fill="#FF1414" d="M560.7,178.6l-17.4,54.9H513l71.4-216.6h33l74.1,216.6h-30.3l-18.3-54.9H560.7z M634.8,154.3l-33-103.2
			H600l-31.8,103.2H634.8z"/>
		<path fill="#FF1414" d="M718.5,16.9h30v216.6h-30V16.9z"/>
		<path fill="#FF1414" d="M790.5,16.9h29.7v189.9l88.8-0.3v27H790.5V16.9z"/>
	</g>
</g>
<g id="Ebene_1_Kopie" display="none">
	<rect x="308.4" y="16.4" display="inline" fill="none" width="818.7" height="295.2"/>
	
		<text transform="matrix(1 0 0 1 308.399 233.0036)" display="inline" fill="#FF1414" font-family="'Agipo-Regular'" font-size="300px">PULL</text>
</g>
</svg>
