<?xml version="1.0" encoding="utf-8"?>
<!-- Generator: Adobe Illustrator 23.0.6, SVG Export Plug-In . SVG Version: 6.00 Build 0)  -->
<svg version="1.1" id="Ebene_1" xmlns="http://www.w3.org/2000/svg" xmlns:xlink="http://www.w3.org/1999/xlink" x="0px" y="0px"
	 width="1282.4px" height="250.5px" viewBox="0 0 1282.4 250.5" enable-background="new 0 0 1282.4 250.5" xml:space="preserve">
<g id="Ebene_1_2_">
	<g>
		<path fill="#006EFA" d="M138.4,16.4H190c66,0,119.7,39,119.7,110.1c0,62.1-45.3,106.5-121.8,106.5h-49.5V16.4z M168.4,208.4
			l20.4-0.3c57-0.9,89.7-32.7,89.7-81.3c0-46.8-30-84.6-87-85.2l-23.1-0.3V208.4z"/>
		<path fill="#006EFA" d="M342.7,16.4h30V233h-30V16.4z"/>
		<path fill="#006EFA" d="M562.9,82.4c-0.9-25.2-20.4-45.9-51.3-45.9c-48.3,0-75,39.3-75,88.5c0,53.1,22.8,88.2,71.4,88.2
			c37.2,0,64.2-22.8,63.6-58.2l-89.4,8.7V134h118.2l-0.6,17.1c-2.1,57.3-44.4,86.4-92.4,86.4c-67.2,0-101.7-50.7-101.7-112.2
			c0-60,39.3-112.2,105.9-112.2c44.7,0,80.4,28.8,83.1,69.3H562.9z"/>
		<path fill="#006EFA" d="M634.6,16.4h30V233h-30V16.4z"/>
		<path fill="#006EFA" d="M755.8,233V41.9h-64.2V16.4h157.5v25.5h-63.6V233H755.8z"/>
		<path fill="#006EFA" d="M883.6,178.1L866.2,233h-30.3l71.4-216.6h33l74.1,216.6h-30.3l-18.3-54.9H883.6z M957.7,153.8l-33-103.2
			h-1.8l-31.8,103.2H957.7z"/>
		<path fill="#006EFA" d="M1041.4,16.4h29.7v189.9l88.8-0.3v27h-118.5V16.4z"/>
	</g>
</g>
</svg>
