<?xml version="1.0" encoding="utf-8"?>
<!-- Generator: Adobe Illustrator 22.0.1, SVG Export Plug-In . SVG Version: 6.00 Build 0)  -->
<svg version="1.1" id="Ebene_1" xmlns="http://www.w3.org/2000/svg" xmlns:xlink="http://www.w3.org/1999/xlink" x="0px" y="0px"
	 viewBox="0 0 1282.4 250.5" enable-background="new 0 0 1282.4 250.5" xml:space="preserve">
<g id="Ebene_1_1_">
	<g>
		<path fill="#FF1414" d="M267.6,16.9h30v216.6h-30V16.9z"/>
		<path fill="#FF1414" d="M361.8,168.1c0.3,15.9,7.8,45,47.7,45c35.4,0,45.3-21.6,45.3-35.1c0-23.4-16.2-31.5-51.6-39.3
			c-38.1-8.4-69.3-28.2-69.3-64.2c0-40.5,32.1-63,72.3-63c39.6,0,70.8,21.9,73.2,63h-30.9c-1.5-27-21.6-38.1-42.9-38.1
			c-25.2,0-41.7,16.2-41.7,36.6c0,24.3,22.8,32.4,51.9,39c41.7,9.6,69.6,26.1,69.6,62.7c0,37.8-29.7,63.9-78.3,63.9
			c-34.2,0-75.6-16.8-76.5-70.5H361.8z"/>
		<path fill="#FF1414" d="M540.6,168.1c0.3,15.9,7.8,45,47.7,45c35.4,0,45.3-21.6,45.3-35.1c0-23.4-16.2-31.5-51.6-39.3
			c-38.1-8.4-69.3-28.2-69.3-64.2c0-40.5,32.1-63,72.3-63c39.6,0,70.8,21.9,73.2,63h-30.9c-1.5-27-21.6-38.1-42.9-38.1
			c-25.2,0-41.7,16.2-41.7,36.6c0,24.3,22.8,32.4,51.9,39c41.7,9.6,69.6,26.1,69.6,62.7c0,37.8-29.7,63.9-78.3,63.9
			c-34.2,0-75.6-16.8-76.5-70.5H540.6z"/>
		<path fill="#FF1414" d="M727.2,16.9v136.2c0,42.3,21,58.2,50.1,58.2c49.2,0,50.7-42.9,50.7-58.5V16.9h29.1v135.3
			c0,63.9-37.2,85.8-79.8,85.8c-47.1,0-80.1-27-80.1-85.2V16.9H727.2z"/>
		<path fill="#FF1414" d="M899.1,16.9h125.1v25.5h-95.4v67.5h91.2v25.2h-90.9v72h98.4v26.4H899.1V16.9z"/>
	</g>
</g>

</svg>
