<?xml version="1.0" encoding="utf-8"?>
<!-- Generator: Adobe Illustrator 18.0.0, SVG Export Plug-In . SVG Version: 6.00 Build 0)  -->
<!DOCTYPE svg PUBLIC "-//W3C//DTD SVG 1.0//EN" "http://www.w3.org/TR/2001/REC-SVG-20010904/DTD/svg10.dtd">
<svg version="1.0" id="if" xmlns="http://www.w3.org/2000/svg" xmlns:xlink="http://www.w3.org/1999/xlink" x="0px" y="0px"
	 width="1282.4px" height="250.5px" viewBox="0 0 1282.4 250.5" style="enable-background:new 0 0 1282.4 250.5;"
	 xml:space="preserve">
<g id="else">
	<g>
		<path style="fill:#006EFA;" d="M61.7,16.4h56.4c44.4,0,82.2,22.2,82.2,66.3c0,46.8-40.2,68.1-85.2,68.1H91.7V233h-30V16.4z
			 M91.4,125.6l23.7-0.3c19.8,0,53.7-7.2,53.7-42.6c0-33.9-32.7-41.4-50.1-41.7l-27.3-0.3V125.6z"/>
		<path style="fill:#006EFA;" d="M230.3,16.4h125.1v25.5H260v67.5h91.2v25.2h-90.9v72h98.4V233H230.3V16.4z"/>
		<path style="fill:#006EFA;" d="M391.7,16.4h51c41.7,0,80.4,19.5,80.4,60.3c0,32.7-27,52.5-57.9,57.9l84.9,98.4h-37.5l-80.1-94.8
			h-11.1V233h-29.7V16.4z M420.8,113l22.5-0.3c23.1-0.3,48.9-9.3,48.9-35.1c0-27.6-26.7-35.4-49.2-35.7l-22.2-0.3V113z"/>
		<path style="fill:#006EFA;" d="M571.1,16.4H692v25.5h-90.3v71.4h85.2v25.2h-85.2V233h-30.6V16.4z"/>
		<path style="fill:#006EFA;" d="M722,16.4h125.1v25.5h-95.4v67.5h91.2v25.2H752v72h98.4V233H722V16.4z"/>
		<path style="fill:#006EFA;" d="M1027.7,82.4c-1.2-21.3-16.8-44.1-50.4-44.1c-45.9,0-72.6,37.5-72.6,87.3
			c0,44.1,23.7,84.6,72.6,84.6c34.2,0,52.8-22.5,54-44.7h30.6c-4.8,42.6-41.1,71.1-84.9,71.1c-74.1,0-102.6-63.9-102.6-110.7
			c0-52.8,32.1-112.5,102.6-112.5c43.8,0,78,27.3,81.6,69H1027.7z"/>
		<path style="fill:#006EFA;" d="M1139.6,233V41.9h-64.2V16.4h157.5v25.5h-63.6V233H1139.6z"/>
	</g>
</g>
</svg>
