<?xml version="1.0" encoding="utf-8"?>
<!-- Generator: Adobe Illustrator 18.0.0, SVG Export Plug-In . SVG Version: 6.00 Build 0)  -->
<!DOCTYPE svg PUBLIC "-//W3C//DTD SVG 1.0//EN" "http://www.w3.org/TR/2001/REC-SVG-20010904/DTD/svg10.dtd">
<svg version="1.0" id="if" xmlns="http://www.w3.org/2000/svg" xmlns:xlink="http://www.w3.org/1999/xlink" x="0px" y="0px"
	 width="1282.4px" height="250.5px" viewBox="0 0 1282.4 250.5" style="enable-background:new 0 0 1282.4 250.5;"
	 xml:space="preserve">
<g id="else">
	<g>
		<path style="fill:#006EFA;" d="M235.2,16.4h56.4c44.4,0,82.2,22.2,82.2,66.3c0,46.8-40.2,68.1-85.2,68.1h-23.4V233h-30V16.4z
			 M264.9,125.6l23.7-0.3c19.8,0,53.7-7.2,53.7-42.6c0-33.9-32.7-41.4-50.1-41.7l-27.3-0.3V125.6z"/>
		<path style="fill:#006EFA;" d="M419.1,178.1L401.7,233h-30.3l71.4-216.6h33L549.9,233h-30.3l-18.3-54.9H419.1z M493.2,153.8
			l-33-103.2h-1.8l-31.8,103.2H493.2z"/>
		<path style="fill:#006EFA;" d="M598.2,167.6c0.3,15.9,7.8,45,47.7,45c35.4,0,45.3-21.6,45.3-35.1c0-23.4-16.2-31.5-51.6-39.3
			c-38.1-8.4-69.3-28.2-69.3-64.2c0-40.5,32.1-63,72.3-63c39.6,0,70.8,21.9,73.2,63h-30.9c-1.5-27-21.6-38.1-42.9-38.1
			c-25.2,0-41.7,16.2-41.7,36.6c0,24.3,22.8,32.4,51.9,39c41.7,9.6,69.6,26.1,69.6,62.7c0,37.8-29.7,63.9-78.3,63.9
			c-34.2,0-75.6-16.8-76.5-70.5H598.2z"/>
		<path style="fill:#006EFA;" d="M795,233V41.9h-64.2V16.4h157.5v25.5h-63.6V233H795z"/>
		<path style="fill:#006EFA;" d="M915.3,16.4h125.1v25.5H945v67.5h91.2v25.2h-90.9v72h98.4V233H915.3V16.4z"/>
	</g>
</g>
</svg>
