<?xml version="1.0" encoding="utf-8"?>
<!-- Generator: Adobe Illustrator 18.0.0, SVG Export Plug-In . SVG Version: 6.00 Build 0)  -->
<!DOCTYPE svg PUBLIC "-//W3C//DTD SVG 1.0//EN" "http://www.w3.org/TR/2001/REC-SVG-20010904/DTD/svg10.dtd">
<svg version="1.0" id="if" xmlns="http://www.w3.org/2000/svg" xmlns:xlink="http://www.w3.org/1999/xlink" x="0px" y="0px"
	 width="1282.4px" height="250.5px" viewBox="0 0 1282.4 250.5" style="enable-background:new 0 0 1282.4 250.5;"
	 xml:space="preserve">
<g id="else">
	<g>
		<path style="fill:#006EFA;" d="M189.8,16.4h125.1v25.5h-95.4v67.5h91.2v25.2h-90.9v72h98.4V233H189.8V16.4z"/>
		<path style="fill:#006EFA;" d="M351.2,16.4h51c41.7,0,80.4,19.5,80.4,60.3c0,32.7-27,52.5-57.9,57.9l84.9,98.4h-37.5L392,138.2
			h-11.1V233h-29.7V16.4z M380.3,113l22.5-0.3c23.1-0.3,48.9-9.3,48.9-35.1c0-27.6-26.7-35.4-49.2-35.7l-22.2-0.3V113z"/>
		<path style="fill:#006EFA;" d="M530.6,16.4h51c41.7,0,80.4,19.5,80.4,60.3c0,32.7-27,52.5-57.9,57.9L689,233h-37.5l-80.1-94.8
			h-11.1V233h-29.7V16.4z M559.7,113l22.5-0.3c23.1-0.3,48.9-9.3,48.9-35.1c0-27.6-26.7-35.4-49.2-35.7l-22.2-0.3V113z"/>
		<path style="fill:#006EFA;" d="M801.8,238.1c-57.9,0-106.8-45.3-106.8-114.9c0-58.5,41.4-112.5,107.1-112.5
			c65.7,0,107.7,52.2,107.7,113.7C909.8,195.8,859.4,238.1,801.8,238.1z M801.8,35.9c-46.5,0-75.6,39.9-75.6,87.9
			c0,51,29.4,88.8,75.6,88.8c50.1,0,76.8-40.8,76.8-88.5C878.6,70.4,846.2,35.9,801.8,35.9z"/>
		<path style="fill:#006EFA;" d="M942.8,16.4h51c41.7,0,80.4,19.5,80.4,60.3c0,32.7-27,52.5-57.9,57.9l84.9,98.4h-37.5l-80.1-94.8
			h-11.1V233h-29.7V16.4z M971.9,113l22.5-0.3c23.1-0.3,48.9-9.3,48.9-35.1c0-27.6-26.7-35.4-49.2-35.7l-22.2-0.3V113z"/>
	</g>
</g>
</svg>
