<?xml version="1.0" encoding="utf-8"?>
<!-- Generator: Adobe Illustrator 22.0.1, SVG Export Plug-In . SVG Version: 6.00 Build 0)  -->
<svg version="1.1" id="Ebene_1" xmlns="http://www.w3.org/2000/svg" xmlns:xlink="http://www.w3.org/1999/xlink" x="0px" y="0px"
	 viewBox="0 0 1282.4 250.5" enable-background="new 0 0 1282.4 250.5" xml:space="preserve">
<g id="Ebene_1_1_">
	<g>
		<path fill="#006EFA" d="M213.6,16.9h29.7l123.9,169.8h1.8V16.9h27.6v216.6h-30L242.7,62.8h-1.8v170.7h-27.3V16.9z"/>
		<path fill="#006EFA" d="M438.6,16.9h125.1v25.5h-95.4v67.5h91.2v25.2h-90.9v72H567v26.4H438.6V16.9z"/>
		<path fill="#006EFA" d="M693,233.5h-35.1L585,16.9h33L675,199h1.8l53.1-182.1h30.3L693,233.5z"/>
		<path fill="#006EFA" d="M787.2,16.9h125.1v25.5h-95.4v67.5h91.2v25.2h-90.9v72h98.4v26.4H787.2V16.9z"/>
		<path fill="#006EFA" d="M948.6,16.9h51c41.7,0,80.4,19.5,80.4,60.3c0,32.7-27,52.5-57.9,57.9l84.9,98.4h-37.5l-80.1-94.8h-11.1
			v94.8h-29.7V16.9z M977.7,113.5l22.5-0.3c23.1-0.3,48.9-9.3,48.9-35.1c0-27.6-26.7-35.4-49.2-35.7l-22.2-0.3V113.5z"/>
	</g>
</g>
<g id="Ebene_1_Kopie" display="none">
	<rect x="308.4" y="16.4" display="inline" fill="none" width="818.7" height="295.2"/>
	
		<text transform="matrix(1 0 0 1 308.399 233.0036)" display="inline" fill="#FF0080" font-family="'Agipo-Regular'" font-size="300px">PULL</text>
</g>
</svg>
