<?xml version="1.0" encoding="utf-8"?>
<!-- Generator: Adobe Illustrator 18.0.0, SVG Export Plug-In . SVG Version: 6.00 Build 0)  -->
<!DOCTYPE svg PUBLIC "-//W3C//DTD SVG 1.0//EN" "http://www.w3.org/TR/2001/REC-SVG-20010904/DTD/svg10.dtd">
<svg version="1.0" id="if" xmlns="http://www.w3.org/2000/svg" xmlns:xlink="http://www.w3.org/1999/xlink" x="0px" y="0px"
	 width="1282.4px" height="250.5px" viewBox="0 0 1282.4 250.5" style="enable-background:new 0 0 1282.4 250.5;"
	 xml:space="preserve">
<g id="else">
	<g>
		<path style="fill:#FF1414;" d="M326.7,233V41.9h-64.2V16.4H420v25.5h-63.6V233H326.7z"/>
		<path style="fill:#FF1414;" d="M447,16.4h51c41.7,0,80.4,19.5,80.4,60.3c0,32.7-27,52.5-57.9,57.9l84.9,98.4h-37.5l-80.1-94.8
			h-11.1V233H447V16.4z M476.1,113l22.5-0.3c23.1-0.3,48.9-9.3,48.9-35.1c0-27.6-26.7-35.4-49.2-35.7l-22.2-0.3V113z"/>
		<path style="fill:#FF1414;" d="M626.4,16.4h30V233h-30V16.4z"/>
		<path style="fill:#FF1414;" d="M731.1,178.1L713.7,233h-30.3l71.4-216.6h33L861.9,233h-30.3l-18.3-54.9H731.1z M805.2,153.8
			l-33-103.2h-1.8l-31.8,103.2H805.2z"/>
		<path style="fill:#FF1414;" d="M888.9,16.4h29.7v189.9l88.8-0.3v27H888.9V16.4z"/>
	</g>
</g>
</svg>
