<?xml version="1.0" encoding="utf-8"?>
<!-- Generator: Adobe Illustrator 18.0.0, SVG Export Plug-In . SVG Version: 6.00 Build 0)  -->
<!DOCTYPE svg PUBLIC "-//W3C//DTD SVG 1.0//EN" "http://www.w3.org/TR/2001/REC-SVG-20010904/DTD/svg10.dtd">
<svg version="1.0" id="if" xmlns="http://www.w3.org/2000/svg" xmlns:xlink="http://www.w3.org/1999/xlink" x="0px" y="0px"
	 width="1282.4px" height="250.5px" viewBox="0 0 1282.4 250.5" style="enable-background:new 0 0 1282.4 250.5;"
	 xml:space="preserve">
<g id="else">
	<g>
		<path style="fill:#FF1414;" d="M404.6,82.4c-1.2-21.3-16.8-44.1-50.4-44.1c-45.9,0-72.6,37.5-72.6,87.3
			c0,44.1,23.7,84.6,72.6,84.6c34.2,0,52.8-22.5,54-44.7h30.6c-4.8,42.6-41.1,71.1-84.9,71.1c-74.1,0-102.6-63.9-102.6-110.7
			c0-52.8,32.1-112.5,102.6-112.5c43.8,0,78,27.3,81.6,69H404.6z"/>
		<path style="fill:#FF1414;" d="M568.1,238.1c-57.9,0-106.8-45.3-106.8-114.9c0-58.5,41.4-112.5,107.1-112.5
			c65.7,0,107.7,52.2,107.7,113.7C676.1,195.8,625.7,238.1,568.1,238.1z M568.1,35.9c-46.5,0-75.6,39.9-75.6,87.9
			c0,51,29.4,88.8,75.6,88.8c50.1,0,76.8-40.8,76.8-88.5C644.9,70.4,612.5,35.9,568.1,35.9z"/>
		<path style="fill:#FF1414;" d="M709.1,16.4h56.4c44.4,0,82.2,22.2,82.2,66.3c0,46.8-40.2,68.1-85.2,68.1h-23.4V233h-30V16.4z
			 M738.8,125.6l23.7-0.3c19.8,0,53.7-7.2,53.7-42.6c0-33.9-32.7-41.4-50.1-41.7l-27.3-0.3V125.6z"/>
		<path style="fill:#FF1414;" d="M958.7,233h-30.3v-79.8c0-3-1.8-4.8-4.2-5.4L859.1,16.4h35.4l48.9,109.8h1.8l48-109.8h33
			l-63.6,131.4c-2.4,0.9-3.9,2.7-3.9,5.4V233z"/>
	</g>
</g>
</svg>
