<?xml version="1.0" encoding="utf-8"?>
<!-- Generator: Adobe Illustrator 18.0.0, SVG Export Plug-In . SVG Version: 6.00 Build 0)  -->
<!DOCTYPE svg PUBLIC "-//W3C//DTD SVG 1.0//EN" "http://www.w3.org/TR/2001/REC-SVG-20010904/DTD/svg10.dtd">
<svg version="1.0" id="if" xmlns="http://www.w3.org/2000/svg" xmlns:xlink="http://www.w3.org/1999/xlink" x="0px" y="0px"
	 width="1282.4px" height="250.5px" viewBox="0 0 1282.4 250.5" style="enable-background:new 0 0 1282.4 250.5;"
	 xml:space="preserve">
<g id="else">
	<g>
		<path style="fill:#006EFA;" d="M241.5,16.4l36,175.5h1.8l47.1-175.5h36.3l46.8,175.5h1.8l37.2-175.5h30.3l-51,216.6h-35.7
			L345,53.3h-1.8L294.6,233h-35.4L208.8,16.4H241.5z"/>
		<path style="fill:#006EFA;" d="M508.8,16.4h51c41.7,0,80.4,19.5,80.4,60.3c0,32.7-27,52.5-57.9,57.9l84.9,98.4h-37.5l-80.1-94.8
			h-11.1V233h-29.7V16.4z M537.9,113l22.5-0.3c23.1-0.3,48.9-9.3,48.9-35.1c0-27.6-26.7-35.4-49.2-35.7l-22.2-0.3V113z"/>
		<path style="fill:#006EFA;" d="M688.2,16.4h30V233h-30V16.4z"/>
		<path style="fill:#006EFA;" d="M809.4,233V41.9h-64.2V16.4h157.5v25.5h-63.6V233H809.4z"/>
		<path style="fill:#006EFA;" d="M929.7,16.4h125.1v25.5h-95.4v67.5h91.2v25.2h-90.9v72h98.4V233H929.7V16.4z"/>
	</g>
</g>
</svg>
