<?xml version="1.0" encoding="utf-8"?>
<!-- Generator: Adobe Illustrator 18.0.0, SVG Export Plug-In . SVG Version: 6.00 Build 0)  -->
<!DOCTYPE svg PUBLIC "-//W3C//DTD SVG 1.0//EN" "http://www.w3.org/TR/2001/REC-SVG-20010904/DTD/svg10.dtd">
<svg version="1.0" xmlns="http://www.w3.org/2000/svg" xmlns:xlink="http://www.w3.org/1999/xlink" x="0px" y="0px"
	 width="1282.4px" height="250.5px" viewBox="0 0 1282.4 250.5" style="enable-background:new 0 0 1282.4 250.5;"
	 xml:space="preserve">
<g id="Ebene_1_Kopie">
	<g>
		<path style="fill:#006EFA;" d="M329.4,16.4h56.4c44.4,0,82.2,22.2,82.2,66.3c0,46.8-40.2,68.1-85.2,68.1h-23.4V233h-30V16.4z
			 M359.1,125.6l23.7-0.3c19.8,0,53.7-7.2,53.7-42.6c0-33.9-32.7-41.4-50.1-41.7l-27.3-0.3V125.6z"/>
		<path style="fill:#006EFA;" d="M528,16.4v136.2c0,42.3,21,58.2,50.1,58.2c49.2,0,50.7-42.9,50.7-58.5V16.4h29.1v135.3
			c0,63.9-37.2,85.8-79.8,85.8c-47.1,0-80.1-27-80.1-85.2V16.4H528z"/>
		<path style="fill:#006EFA;" d="M699.9,16.4h29.7v189.9l88.8-0.3v27H699.9V16.4z"/>
		<path style="fill:#006EFA;" d="M845.4,16.4h29.7v189.9l88.8-0.3v27H845.4V16.4z"/>
	</g>
</g>
</svg>
