<?xml version="1.0" encoding="utf-8"?>
<!-- Generator: Adobe Illustrator 22.0.1, SVG Export Plug-In . SVG Version: 6.00 Build 0)  -->
<svg version="1.1" id="Ebene_1" xmlns="http://www.w3.org/2000/svg" xmlns:xlink="http://www.w3.org/1999/xlink" x="0px" y="0px"
	 viewBox="0 0 1282.4 250.5" enable-background="new 0 0 1282.4 250.5" xml:space="preserve">
<g id="Ebene_1_1_">
	<g>
		<path fill="#006EFA" d="M333.3,16.9v136.2c0,42.3,21,58.2,50.1,58.2c49.2,0,50.7-42.9,50.7-58.5V16.9h29.1v135.3
			c0,63.9-37.2,85.8-79.8,85.8c-47.1,0-80.1-27-80.1-85.2V16.9H333.3z"/>
		<path fill="#006EFA" d="M527.4,168.1c0.3,15.9,7.8,45,47.7,45c35.4,0,45.3-21.6,45.3-35.1c0-23.4-16.2-31.5-51.6-39.3
			c-38.1-8.4-69.3-28.2-69.3-64.2c0-40.5,32.1-63,72.3-63c39.6,0,70.8,21.9,73.2,63h-30.9c-1.5-27-21.6-38.1-42.9-38.1
			c-25.2,0-41.7,16.2-41.7,36.6c0,24.3,22.8,32.4,51.9,39c41.7,9.6,69.6,26.1,69.6,62.7c0,37.8-29.7,63.9-78.3,63.9
			c-34.2,0-75.6-16.8-76.5-70.5H527.4z"/>
		<path fill="#006EFA" d="M684,16.9h125.1v25.5h-95.4v67.5h91.2v25.2H714v72h98.4v26.4H684V16.9z"/>
		<path fill="#006EFA" d="M845.4,16.9h51c41.7,0,80.4,19.5,80.4,60.3c0,32.7-27,52.5-57.9,57.9l84.9,98.4h-37.5l-80.1-94.8h-11.1
			v94.8h-29.7V16.9z M874.5,113.5l22.5-0.3c23.1-0.3,48.9-9.3,48.9-35.1c0-27.6-26.7-35.4-49.2-35.7l-22.2-0.3V113.5z"/>
	</g>
</g>

</svg>
