<?xml version="1.0" encoding="utf-8"?>
<!-- Generator: Adobe Illustrator 22.0.1, SVG Export Plug-In . SVG Version: 6.00 Build 0)  -->
<svg version="1.1" id="Ebene_1" xmlns="http://www.w3.org/2000/svg" xmlns:xlink="http://www.w3.org/1999/xlink" x="0px" y="0px"
	 viewBox="0 0 1282.4 250.5" enable-background="new 0 0 1282.4 250.5" xml:space="preserve">
<g id="Ebene_1_1_">
	<g>
		<path fill="#FF1414" d="M291.9,16.9h29.7l123.9,169.8h1.8V16.9h27.6v216.6h-30L321,62.8h-1.8v170.7h-27.3V16.9z"/>
		<path fill="#FF1414" d="M614.7,238.6c-57.9,0-106.8-45.3-106.8-114.9c0-58.5,41.4-112.5,107.1-112.5
			c65.7,0,107.7,52.2,107.7,113.7C722.7,196.3,672.3,238.6,614.7,238.6z M614.7,36.4c-46.5,0-75.6,39.9-75.6,87.9
			c0,51,29.4,88.8,75.6,88.8c50.1,0,76.8-40.8,76.8-88.5C691.5,70.9,659.1,36.4,614.7,36.4z"/>
		<path fill="#FF1414" d="M768.9,16.9l36,175.5h1.8l47.1-175.5h36.3l46.8,175.5h1.8l37.2-175.5h30.3l-51,216.6h-35.7L872.4,53.8
			h-1.8L822,233.5h-35.4L736.2,16.9H768.9z"/>
	</g>
</g>
<g id="Ebene_1_Kopie" display="none">
	<rect x="308.4" y="16.4" display="inline" fill="none" width="818.7" height="295.2"/>
	
		<text transform="matrix(1 0 0 1 308.399 233.0036)" display="inline" fill="#FF1414" font-family="'Agipo-Regular'" font-size="300px">PULL</text>
</g>
</svg>
