<?xml version="1.0" encoding="utf-8"?>
<!-- Generator: Adobe Illustrator 24.0.1, SVG Export Plug-In . SVG Version: 6.00 Build 0)  -->
<svg version="1.1" id="Ebene_1" xmlns="http://www.w3.org/2000/svg" xmlns:xlink="http://www.w3.org/1999/xlink" x="0px" y="0px"
	 width="36.8px" height="49.6px" viewBox="0 0 36.8 49.6" style="enable-background:new 0 0 36.8 49.6;" xml:space="preserve">
<style type="text/css">
	.st0{fill:#006EFA;}
	.st1{fill:#FF1414;}
	.st2{fill:#FFFFFF;}
</style>
<g>
	<g id="Ebene_2_3_">
		<g id="Ebene_1-2_2_">
			<path class="st0" d="M13.6,22.5l5.4,1l8.3-5.8l2.6-4.7l-2.6-4.7L19,2.9l-5.4,0.7V22.5z M24.8,0l5.5,0.7l6.6,12.4l-6.6,10.4
				c0,0-7.4,1.9-10.2,2.6h-6.4v16.8l5.2,1.8l-0.1,1.8l-9.2-0.1l-9.3,0.1L0,44.7l5.2-1.8V3.6L0,1.8L0.2,0L24.8,0z"/>
			<g>
				<path class="st1" d="M23.8,49.6c4,0,7.3-3.2,7.3-7.3c0-4-3.2-7.3-7.3-7.3s-7.3,3.2-7.3,7.3C16.5,46.3,19.8,49.6,23.8,49.6
					C23.8,49.6,23.8,49.6,23.8,49.6"/>
			</g>
			<path class="st2" d="M22.4,42.1c0-0.5-0.4-0.8-0.9-0.8c-0.8,0-1.2,0.7-1.2,1.6c0,0.9,0.4,1.6,1.2,1.6c0.6,0,0.9-0.5,1-0.9h0.8
				c-0.1,0.8-0.7,1.5-1.8,1.5c-1.2,0-2-0.9-2-2.2c0-1.4,0.9-2.2,2-2.2c0.9,0,1.6,0.6,1.7,1.4L22.4,42.1z"/>
			<path class="st2" d="M24.1,38.9h0.8v1.8c0,0,0,0.3,0,0.7h0c0.3-0.5,0.8-0.8,1.3-0.8c0.5,0,1.4,0.2,1.4,1.5v2.7h-0.8v-2.7
				c0-0.6-0.3-0.9-0.7-0.9c-0.6,0-1.1,0.5-1.2,1.2v2.4h-0.8L24.1,38.9z"/>
		</g>
	</g>
</g>
</svg>
