<svg xmlns="http://www.w3.org/2000/svg" xmlns:xlink="http://www.w3.org/1999/xlink" width="24.6" height="20" viewBox="0 0 24.6 20"><g opacity=".3"><defs><path id="a" d="M0 0h24.6v20H0z"/></defs><clipPath id="b"><use xlink:href="#a" overflow="visible"/></clipPath><path d="M24.6 2.4c-.9.4-1.9.7-2.9.8 1-.6 1.8-1.6 2.2-2.8-1 .6-2.1 1-3.2 1.2C19.8.6 18.5 0 17 0c-2.8 0-5 2.3-5 5 0 .4 0 .8.1 1.2C7.9 6 4.2 4 1.7.9c-.4.8-.7 1.6-.7 2.6 0 1.8.9 3.3 2.2 4.2-.8-.1-1.5-.3-2.2-.7v.1c0 2.4 1.7 4.5 4.1 5-.4.1-.9.2-1.3.2-.3 0-.6 0-.9-.1.6 2 2.5 3.5 4.7 3.5-1.7 1.4-3.9 2.2-6.3 2.2-.4 0-.8 0-1.2-.1C2.2 19.2 4.9 20 7.7 20c9.3 0 14.4-7.7 14.4-14.4v-.7c1-.6 1.8-1.5 2.5-2.5" clip-path="url(#b)" fill="#010202"/></g></svg>