<?xml version="1.0" encoding="utf-8"?>
<!-- Generator: Adobe Illustrator 18.0.0, SVG Export Plug-In . SVG Version: 6.00 Build 0)  -->
<!DOCTYPE svg PUBLIC "-//W3C//DTD SVG 1.1//EN" "http://www.w3.org/Graphics/SVG/1.1/DTD/svg11.dtd">
<svg version="1.1" id="Ebene_1" xmlns="http://www.w3.org/2000/svg" xmlns:xlink="http://www.w3.org/1999/xlink" x="0px" y="0px"
	 width="28px" height="22px" viewBox="2 5 28 22" enable-background="new 2 5 28 22" xml:space="preserve">
<g>
	<defs>
		<rect id="SVGID_1_" x="2" y="5" width="26.9" height="21.9"/>
	</defs>
	<clipPath id="SVGID_2_">
		<use xlink:href="#SVGID_1_"  overflow="visible"/>
	</clipPath>
	<path clip-path="url(#SVGID_2_)" fill="#006EFA" d="M28.9,7.6c-1,0.4-2.1,0.8-3.2,0.9c1.1-0.6,2-1.8,2.4-3
		c-1.1,0.6-2.3,1.1-3.5,1.3c-1-1.1-2.4-1.8-4-1.8c-3,0-5.4,2.5-5.4,5.4c0,0.4,0,0.9,0.1,1.3C10.7,11.5,6.6,9.4,3.9,6
		C3.4,6.9,3.1,7.8,3.1,8.8c0,2,1,3.6,2.4,4.6c-0.9-0.1-1.6-0.4-2.4-0.8v0.1c0,2.6,1.9,4.9,4.5,5.4c-0.4,0.1-1,0.2-1.4,0.2
		c-0.4,0-0.6,0-1-0.1c0.6,2.2,2.8,3.8,5.2,3.8c-1.9,1.5-4.3,2.4-6.9,2.4c-0.4,0-0.9,0-1.3-0.1c2.3,1.5,5.3,2.4,8.3,2.4
		c10.2,0,15.7-8.4,15.7-15.7v-0.7C27.3,9.6,28.1,8.7,28.9,7.6"/>
</g>
</svg>
