<?xml version="1.0" encoding="utf-8"?>
<!-- Generator: Adobe Illustrator 18.0.0, SVG Export Plug-In . SVG Version: 6.00 Build 0)  -->
<!DOCTYPE svg PUBLIC "-//W3C//DTD SVG 1.1//EN" "http://www.w3.org/Graphics/SVG/1.1/DTD/svg11.dtd">
<svg version="1.1" id="Ebene_1" xmlns="http://www.w3.org/2000/svg" xmlns:xlink="http://www.w3.org/1999/xlink" x="0px" y="0px"
	 width="20.8px" height="11.8px" viewBox="-1.1 -1.8 20.8 11.8" enable-background="new -1.1 -1.8 20.8 11.8" xml:space="preserve">
<g opacity="0.4">
	<g>
		<g>
			<g>
				<defs>
					<rect id="SVGID_1_" x="-0.1" y="-1.8" width="19.5" height="11.7"/>
				</defs>
				<clipPath id="SVGID_2_">
					<use xlink:href="#SVGID_1_"  overflow="visible"/>
				</clipPath>
				<path clip-path="url(#SVGID_2_)" fill="#010202" d="M2.4,3.3L2.4,3.3c-0.7,0-1.3,0-2,0C0.2,3.3,0,3.2-0.1,2.9
					c0-0.2,0-0.4,0.1-0.6C1.2,1,2.2-0.3,3.3-1.6c0.2-0.4,0.7-0.4,1.1,0c0.4,0.5,0.8,0.9,1.2,1.4c0.7,0.8,1.4,1.6,2.1,2.5
					c0.4,0.4,0.1,0.9-0.4,1.1H7.1c-0.6,0-1.3,0-1.9,0H5v3.9h0.1c1.9,0,3.9,0,5.7,0c0,0,0,0,0.1,0s0.2,0,0.2,0.1
					c0.5,0.5,0.8,1.1,1.3,1.5c0.1,0.1,0.2,0.2,0.4,0.4c0.1,0.1,0.1,0.4,0,0.5c0,0-0.1,0.1-0.2,0.1l0,0H2.8l0,0
					c-0.2,0-0.4-0.1-0.4-0.4c0-0.1,0-0.1,0-0.2C2.4,7.4,2.4,5.4,2.4,3.3L2.4,3.3z"/>
			</g>
		</g>
		<g>
			<g>
				<defs>
					<rect id="SVGID_3_" x="-0.1" y="-1.8" width="19.5" height="11.7"/>
				</defs>
				<clipPath id="SVGID_4_">
					<use xlink:href="#SVGID_3_"  overflow="visible"/>
				</clipPath>
				<path clip-path="url(#SVGID_4_)" fill="#010202" d="M14.1,4.7v-4H14c-1.9,0-3.9,0-5.7,0c-0.1,0-0.2,0-0.4-0.1
					C7.5,0.1,7-0.6,6.4-1.2c0-0.1-0.1-0.1-0.1-0.2c0-0.2,0.2-0.4,0.4-0.4c0,0,0,0,0.1,0c3.3,0,6.4,0,9.7,0c0,0,0,0,0.1,0
					c0.1,0,0.2,0.1,0.4,0.2c0,0.1,0,0.1,0,0.2c0,2,0,4,0,6v0.1h0.1c0.6,0,1.3,0,1.9,0c0.4,0,0.6,0.2,0.7,0.5c0.1,0.2,0,0.5-0.1,0.6
					c-0.5,0.5-0.8,1.1-1.3,1.5c-0.7,0.8-1.3,1.6-2,2.3c-0.2,0.4-0.7,0.4-1.1,0c-1.1-1.3-2.1-2.6-3.2-3.9c-0.5-0.2-0.5-0.6-0.4-0.7
					c0.1-0.2,0.4-0.4,0.6-0.4s0.5,0,0.7,0H14.1L14.1,4.7z"/>
			</g>
		</g>
	</g>
</g>
</svg>
