<?xml version="1.0" encoding="utf-8"?>
<!-- Generator: Adobe Illustrator 24.0.1, SVG Export Plug-In . SVG Version: 6.00 Build 0)  -->
<svg version="1.1" id="Ebene_1" xmlns="http://www.w3.org/2000/svg" xmlns:xlink="http://www.w3.org/1999/xlink" x="0px" y="0px"
	 width="169.3px" height="74.8px" viewBox="0 0 169.3 74.8" style="enable-background:new 0 0 169.3 74.8;" xml:space="preserve">
<g id="Ebene_2_1_">
	<g id="Ebene_1-2">
		<path d="M0,6.4h7.4c5.8,0,10.8,2.9,10.8,8.7c0,6.2-5.3,9-11.2,9H3.9v10.8H0V6.4z M3.9,20.8l3.1,0c2.6,0,7.1-0.9,7.1-5.6
			c0-4.5-4.3-5.4-6.6-5.5l-3.6,0L3.9,20.8z"/>
		<path d="M22,20.3c0-1.7-0.1-3.5-0.2-5.2h3.6l0.2,5.2h0.2c0.7-2.6,2.9-5.5,5.8-5.5c0.9,0,1.7,0.2,2.5,0.6v3.4
			c-0.7-0.3-1.4-0.5-2.2-0.5c-3.8,0-5.9,3.7-6.1,7.9v8.8H22L22,20.3z"/>
		<path d="M45.1,14.6c6.8,0,9.8,6,9.8,10.5c0,5.3-3.4,10.5-9.8,10.5c-6.3,0-9.9-5-9.9-10.6C35.2,20.4,38.3,14.6,45.1,14.6z
			 M45.1,32.8c3,0,5.9-2.4,5.9-7.8c0-5-2.7-7.6-5.9-7.6c-2.6,0-6,1.7-6,7.6C39.1,29.1,40.9,32.8,45.1,32.8z"/>
		<path d="M56.5,15.1h3.2l0.7-5.9h2.9v5.9H69v2.8h-5.6v11.2c0,1.8,0.9,2.8,2.7,2.8c1,0,2-0.2,2.9-0.6v2.9c-1,0.6-2.1,1-3.3,1
			c-3.8,0-6-2.3-6-6.1V17.9h-3.2V15.1z"/>
		<path d="M80.9,14.6c6.8,0,9.8,6,9.8,10.5c0,5.3-3.4,10.5-9.8,10.5c-6.3,0-9.9-5-9.9-10.6C71,20.4,74,14.6,80.9,14.6z M80.8,32.8
			c3,0,5.9-2.4,5.9-7.8c0-5-2.7-7.6-5.9-7.6c-2.6,0-6,1.7-6,7.6C74.8,29.1,76.7,32.8,80.8,32.8z"/>
		<path d="M92.3,15.1h3.2l0.7-5.9h2.9v5.9h5.6v2.8h-5.6v11.2c0,1.8,0.9,2.8,2.7,2.8c1,0,2-0.2,2.9-0.6v2.9c-1,0.6-2.1,1-3.3,1
			c-3.8,0-6-2.3-6-6.1V17.9h-3.2L92.3,15.1z"/>
		<path d="M116.9,38.9c-1.2,3.1-3.2,4-5.6,4c-0.9,0-1.8-0.1-2.6-0.4v-3.2c0.7,0.2,1.4,0.3,2.1,0.4c1.3,0,2.1-0.5,2.6-1.6
			c0.5-1,0.9-2.1,1.2-3.2c0.2-0.9-0.4-1.4-1.1-1.3l-7.1-18.5h4.1l5.5,15.7h0.2l4.8-15.7h3.9C118.3,34.9,117.8,36.4,116.9,38.9z"/>
		<path d="M132,42.5h-3.7V18c0-0.8,0-2.1-0.1-2.9h3.5c0,0.8,0,2.2,0,3h0.2c1.3-2.1,3.3-3.3,5.9-3.3c5.5,0,8.5,4.9,8.5,10.3
			c0,5.7-3,10.3-8.3,10.3c-2.4,0-4.6-1.2-5.8-3.2h-0.2c0,0,0,1.4,0,2.7V42.5z M137,17.6c-2.8,0-4.9,2.9-5,4.9v4.8
			c0.1,2.2,2.1,5.3,5.2,5.3c3.6,0,5.3-3.4,5.3-7.5C142.4,20.6,140.6,17.6,137,17.6L137,17.6z"/>
		<path d="M153.1,25.5c0,4.1,2,7.1,5.8,7.1c2.4,0,4.3-1.6,4.7-3.8h3.6c-0.4,3.3-3.4,6.7-8.6,6.7c-5.6,0-9.3-4.2-9.3-10.7
			c0-5.6,3.5-10.3,9-10.3c7.3,0,9.3,6.3,8.8,10.9L153.1,25.5z M163.6,22.7c0-1.9-1-5.5-5-5.5c-2.6,0-4.9,1.9-5.3,5.6L163.6,22.7z"/>
		<path d="M0,45.9h15.9v3.4H4v9.4h11.2V62H4v12.4H0V45.9z"/>
		<path d="M35.9,54.6V71c0,1.1,0.1,2.3,0.3,3.4h-3.8c-0.1-1.1-0.1-2.3,0-3.4h-0.2c-1.3,2.3-3.8,3.7-6.4,3.7c-2.6,0-6.8-1.5-6.8-7.5
			V54.6h3.8v12.7c0,2.6,1.2,4.4,3.8,4.4c2.7,0,5-2.4,5.6-5.8V54.6H35.9z"/>
		<path d="M41.1,58c0-1.1-0.1-2.3-0.2-3.4h3.8V58H45c0.5-0.9,2.7-3.8,6.4-3.8c2.4,0,6.6,1.3,6.6,7.3v12.9h-3.8v-13
			c0-2.7-1.2-4.3-3.5-4.3c-2.7,0-5,2.5-5.8,5.8v11.5h-3.8L41.1,58z"/>
		<path d="M76.2,45.9h3.7v25.6c0,0.8,0,2.1,0.1,2.9h-3.4c0-0.8,0-2.1,0-2.9h-0.2c-1.3,2.1-3.3,3.3-5.9,3.3c-5.6,0-8.6-4.9-8.6-10.3
			c0-5.7,3-10.3,8.3-10.3c2.4,0,4.6,1.2,5.8,3.2h0.2c0,0,0-1.3,0-2.7V45.9z M71.2,71.9c2.8,0,4.8-2.8,5-4.9v-4.8
			c-0.1-2.2-2.1-5.3-5.2-5.3c-3.6,0-5.3,3.4-5.3,7.5C65.7,68.9,67.6,71.9,71.2,71.9z"/>
		<path d="M88.8,68.7c1.6,0,2.8,1.3,2.8,2.8c0,0,0,0,0,0c0,1.6-1.3,2.8-2.8,2.8c-1.6,0-2.8-1.3-2.8-2.8C85.9,70,87.2,68.8,88.8,68.7
			C88.7,68.7,88.8,68.7,88.8,68.7z"/>
		<path d="M109.7,60.9c-0.1-1.5-1.4-4-4.4-4c-3.7,0-5.5,3.4-5.5,7.6c0,4.1,1.9,7.4,5.5,7.4c2.8,0,4.3-2.2,4.6-4.2h3.8
			c-0.7,3.8-3.5,7.1-8.4,7.1c-5.7,0-9.4-4.5-9.4-10.3c0-6.4,4.2-10.5,9.5-10.5c4.3,0,7.7,3,8.1,6.9H109.7z"/>
		<path d="M117.4,45.9h3.7v8.7c0,0,0,1.6,0,3.4h0.2c0.5-0.9,2.6-3.8,6.3-3.8c2.2,0,6.6,1.2,6.6,7.3v12.9h-3.8v-13
			c0-2.7-1.2-4.3-3.5-4.3c-2.7,0-5,2.5-5.8,5.8v11.5h-3.8L117.4,45.9z"/>
	</g>
</g>
</svg>
