<?xml version="1.0" encoding="utf-8"?>
<!-- Generator: Adobe Illustrator 24.0.1, SVG Export Plug-In . SVG Version: 6.00 Build 0)  -->
<svg version="1.1" id="ch" xmlns="http://www.w3.org/2000/svg" xmlns:xlink="http://www.w3.org/1999/xlink" x="0px" y="0px"
	 width="118px" height="118px" viewBox="0 0 118 118" style="enable-background:new 0 0 118 118;" xml:space="preserve">
<style type="text/css">
	.st0{fill:#FF1414;}
	.st1{fill:#FFFFFF;}
</style>
<g>
	<path class="st0" d="M59,118c32.6,0,59-26.4,59-59c0-32.6-26.4-59-59-59S0,26.4,0,59C0,91.6,26.4,118,59,118C59,118,59,118,59,118"
		/>
</g>
<path class="st1" d="M48,57.2c-0.4-3.9-3.6-6.8-7.5-6.8c-6.3,0-9.4,5.8-9.4,13S34.4,76,40.5,76c4.8,0,7.3-3.8,7.9-7.1h6.4
	c-1.2,6.5-5.9,12.2-14.3,12.2c-9.7,0-16.1-7.6-16.1-17.7c0-11,7.1-17.9,16.2-17.9c7.3,0,13.2,5.1,13.9,11.7L48,57.2z"/>
<path class="st1" d="M61.2,31.5h6.3v14.8c0,0,0,2.7-0.1,5.8h0.4c2.2-3.9,6.3-6.3,10.8-6.4c3.8,0,11.3,2,11.3,12.4v22h-6.5V58
	c0-4.6-2.1-7.4-5.9-7.4c-4.6,0-8.6,4.3-9.9,9.9v19.7h-6.4L61.2,31.5z"/>
</svg>
