<?xml version="1.0" encoding="utf-8"?><!DOCTYPE svg PUBLIC "-//W3C//DTD SVG 1.1//EN" "http://www.w3.org/Graphics/SVG/1.1/DTD/svg11.dtd"><svg width="525" height="410" viewBox="0 0 525 410" xmlns="http://www.w3.org/2000/svg" xmlns:xlink="http://www.w3.org/1999/xlink"><svg id="arrow-2020-down" width="24.2" height="27.2" viewBox="0 0 24.2 27.2" xmlns="http://www.w3.org/2000/svg"><style>.ast0{fill:none;stroke:#000;stroke-width:2}</style><g id="aGruppe_70" transform="rotate(90 1035.824 385.824)"><path id="aPfad_33" class="ast0" d="M663.4 1398.2l11.4 11.4-11.4 11.4"/><path id="aLinie_2" class="ast0" d="M650 1409.5h24.8"/></g></svg><svg id="arrow-2020-up" width="24.2" height="27.2" viewBox="0 0 24.2 27.2" x="25" y="28" xmlns="http://www.w3.org/2000/svg"><style>.bst0{fill:none;stroke:#000;stroke-width:2}</style><g id="bGruppe_70" transform="rotate(90 1035.824 385.824)"><path id="bPfad_33" class="bst0" d="M663.4 1420.9l-11.4-11.4 11.4-11.4"/><path id="bLinie_2" class="bst0" d="M676.8 1409.6H652"/></g></svg><svg version="1" width="37" height="46.5" viewBox="0 0 37 46.5" id="logo-p" x="50" y="56" xmlns="http://www.w3.org/2000/svg"><path d="M24.8 0l5.4.7 6.6 11.1-6.5 11.7s-7.3 1.9-10.1 2.6h-6.4V44l6.5.7-.3 1.9-10.5-.2-9.3.1-.2-1.7 5.2-.7V2.5L0 1.8.2 0h24.6zM13.7 23.8h4.8l9.3-6.2 2.3-5-2.3-4.8L19 1.9l-5.4.5v21.4z" fill="#009ACF"/></svg><svg width="19.4" height="11" viewBox="0 0 19.4 11" id="nav-arrow" x="87" y="103" xmlns="http://www.w3.org/2000/svg"><path d="M13 11.1l-1.1-1.4s4-3.3 4.1-3.3H0V4.7h16v-.1c-.1 0-4.2-3.3-4.2-3.3L12.9 0l6.5 5.5-6.4 5.6z" fill="#010202"/></svg><svg width="36.9" height="21.1" viewBox="0 0 36.9 21.1" id="nav-arrow-big" x="107" y="114" xmlns="http://www.w3.org/2000/svg"><path d="M24.7 21.1l-2.1-2.6s7.6-6.2 7.8-6.2v-.2H0V9h30.4v-.2c-.2 0-8-6.2-8-6.2L24.6 0 37 10.6 24.7 21.1z" fill="#010202"/></svg><svg id="nav-arrow-big-back" width="36.9" height="21.1" viewBox="0 0 36.9 21.1" x="144" y="136" xmlns="http://www.w3.org/2000/svg"><style>.fst0{fill:#b3b3b3}</style><path class="fst0" d="M12.3 0l2.1 2.6S6.8 8.8 6.6 8.8V9H37v3.1H6.6v.2c.2 0 8 6.2 8 6.2l-2.2 2.6L0 10.5 12.3 0z"/></svg><svg id="nav-arrow-big-back-blue" width="36.9" height="21.1" viewBox="0 0 36.9 21.1" x="181" y="158" xmlns="http://www.w3.org/2000/svg"><style>.gst0{fill:#0a9dd1}</style><path class="gst0" d="M12.3 0l2.1 2.6S6.8 8.8 6.6 8.8V9H37v3.1H6.6v.2c.2 0 8 6.2 8 6.2l-2.2 2.6L0 10.5 12.3 0z"/></svg><svg id="nav-arrow-big-blue" width="36.9" height="21.1" viewBox="0 0 36.9 21.1" x="218" y="180" xmlns="http://www.w3.org/2000/svg"><style>.hst0{fill:#0a9dd1}</style><path class="hst0" d="M24.7 21.1l-2.1-2.6s7.6-6.2 7.8-6.2v-.2H0V9h30.4v-.2c-.2 0-8-6.2-8-6.2L24.6 0 37 10.6 24.7 21.1z"/></svg><svg id="nav-arrow-blue" width="19.4" height="11" viewBox="0 0 19.4 11" x="255" y="202" xmlns="http://www.w3.org/2000/svg"><style>.ist0{fill:#0a9dd1}</style><path class="ist0" d="M13 11.1l-1.1-1.4s4-3.3 4.1-3.3H0V4.7h16v-.1c-.1 0-4.2-3.3-4.2-3.3L12.9 0l6.5 5.5-6.4 5.6z"/></svg><svg width="13.9" height="7.9" viewBox="0 0 13.9 7.9" id="nav-arrow-small" x="275" y="213" xmlns="http://www.w3.org/2000/svg"><path d="M0 3.4h13.9v1.4H0z"/></svg><svg width="13.9" height="7.9" viewBox="0 0 13.9 7.9" id="nav-arrow-small-blue" x="289" y="221" xmlns="http://www.w3.org/2000/svg"><path fill="#09C" d="M0 3.4h13.9v1.4H0z"/></svg><svg width="35.1" height="22" viewBox="0 0.9 35.1 22" id="nav-eye" x="303" y="229" xmlns="http://www.w3.org/2000/svg"><path fill="#FF0080" d="M17.4 22.4c-10.8 0-15.7-9.2-15.9-9.7l-.5-.9.5-.8c.1-.3 5.1-9.6 15.9-9.6 11.6 0 15.9 9.3 16.1 9.7l.3.9-.5.9c0 .3-4.9 9.5-15.9 9.5zM5.3 11.9c1.3 2 5.3 6.7 12.1 6.7 7 0 10.9-4.8 12.2-6.7-1.2-2-4.9-6.7-12.2-6.7-6.8-.1-10.7 4.7-12.1 6.7z"/><path fill="#FF0080" d="M17.5 17.8c-3.3 0-5.9-2.6-5.9-5.9S14.2 6 17.5 6s5.9 2.6 5.9 5.9-2.7 5.9-5.9 5.9zm0-8.4c-1.4 0-2.6 1.1-2.6 2.6s1.1 2.6 2.6 2.6 2.6-1.1 2.6-2.6-1.3-2.6-2.6-2.6z"/></svg><svg width="24" height="23" viewBox="-0.2 -0.4 24 23" id="nav-reset" x="339" y="251" xmlns="http://www.w3.org/2000/svg"><path fill="#FF0080" d="M8.4 0H4.6L0 6.6l4.8 6.6h3.6L4 6.6"/><path fill="#FF0080" d="M14.5 22h-6v-3.9h6c2.6 0 4.9-2.2 4.9-4.9s-2.2-4.9-4.9-4.9h-1.8l-9.1.1V4.5l10.8-.1c4.9 0 8.8 3.9 8.8 8.8S19.3 22 14.5 22z"/></svg><svg width="24" height="23" viewBox="-0.6 0.2 24 23" id="nav-share" x="363" y="274" xmlns="http://www.w3.org/2000/svg"><path fill="#FF0080" d="M18.1 5.1L11.5.5 4.9 5.2v3.7L9.7 6l.1 10.3h4l-.2-10.2 4.5 2.8"/><path fill="#FF0080" d="M22.2 22.5H1.6v-9.8h3.9v5.9h12.9V12h3.9"/></svg><svg width="23.3" height="36" viewBox="0 0 23.3 36" id="nav-totop" x="387" y="297" xmlns="http://www.w3.org/2000/svg"><path fill="#E72580" d="M23.2 20.7l-11.6-7.6L0 20.6v-5.3l11.6-8.1 11.6 8.1"/><path fill="#E72580" d="M9.2 11h5v21h-5zM.2 0h23v5H.2z"/></svg><svg width="24.6" height="20" viewBox="0 0 24.6 20" id="nav-twitter" x="411" y="333" xmlns="http://www.w3.org/2000/svg"><g opacity=".3"><defs><path id="pa" d="M0 0h24.6v20H0z"/></defs><clipPath id="pb"><use xlink:href="#pa" overflow="visible"/></clipPath><path d="M24.6 2.4c-.9.4-1.9.7-2.9.8 1-.6 1.8-1.6 2.2-2.8-1 .6-2.1 1-3.2 1.2C19.8.6 18.5 0 17 0c-2.8 0-5 2.3-5 5 0 .4 0 .8.1 1.2C7.9 6 4.2 4 1.7.9c-.4.8-.7 1.6-.7 2.6 0 1.8.9 3.3 2.2 4.2-.8-.1-1.5-.3-2.2-.7v.1c0 2.4 1.7 4.5 4.1 5-.4.1-.9.2-1.3.2-.3 0-.6 0-.9-.1.6 2 2.5 3.5 4.7 3.5-1.7 1.4-3.9 2.2-6.3 2.2-.4 0-.8 0-1.2-.1C2.2 19.2 4.9 20 7.7 20c9.3 0 14.4-7.7 14.4-14.4v-.7c1-.6 1.8-1.5 2.5-2.5" clip-path="url(#pb)" fill="#010202"/></g></svg><svg width="28" height="22" viewBox="2 5 28 22" id="nav-twitter-big" x="436" y="353" xmlns="http://www.w3.org/2000/svg"><defs><path id="qa" d="M2 5h26.9v21.9H2z"/></defs><clipPath id="qb"><use xlink:href="#qa" overflow="visible"/></clipPath><path clip-path="url(#qb)" fill="#FF0080" d="M28.9 7.6c-1 .4-2.1.8-3.2.9 1.1-.6 2-1.8 2.4-3-1.1.6-2.3 1.1-3.5 1.3-1-1.1-2.4-1.8-4-1.8-3 0-5.4 2.5-5.4 5.4 0 .4 0 .9.1 1.3-4.6-.2-8.7-2.3-11.4-5.7-.5.9-.8 1.8-.8 2.8 0 2 1 3.6 2.4 4.6-.9-.1-1.6-.4-2.4-.8v.1c0 2.6 1.9 4.9 4.5 5.4-.4.1-1 .2-1.4.2-.4 0-.6 0-1-.1.6 2.2 2.8 3.8 5.2 3.8-1.9 1.5-4.3 2.4-6.9 2.4-.4 0-.9 0-1.3-.1 2.3 1.5 5.3 2.4 8.3 2.4 10.2 0 15.7-8.4 15.7-15.7v-.7c1.1-.7 1.9-1.6 2.7-2.7"/></svg><svg width="20.8" height="11.8" viewBox="-1.1 -1.8 20.8 11.8" id="news-retweet" x="464" y="375" xmlns="http://www.w3.org/2000/svg"><g opacity=".4"><defs><path id="ra" d="M-.1-1.8h19.5V9.9H-.1z"/></defs><clipPath id="rb"><use xlink:href="#ra" overflow="visible"/></clipPath><path clip-path="url(#rb)" fill="#010202" d="M2.4 3.3h-2c-.2 0-.4-.1-.5-.4 0-.2 0-.4.1-.6C1.2 1 2.2-.3 3.3-1.6c.2-.4.7-.4 1.1 0 .4.5.8.9 1.2 1.4.7.8 1.4 1.6 2.1 2.5.4.4.1.9-.4 1.1H5v3.9H10.9c.1 0 .2 0 .2.1.5.5.8 1.1 1.3 1.5l.4.4c.1.1.1.4 0 .5 0 0-.1.1-.2.1H2.8c-.2 0-.4-.1-.4-.4v-.2-6z"/><g><defs><path id="rc" d="M-.1-1.8h19.5V9.9H-.1z"/></defs><clipPath id="rd"><use xlink:href="#rc" overflow="visible"/></clipPath><path clip-path="url(#rd)" fill="#010202" d="M14.1 4.7v-4H8.3c-.1 0-.2 0-.4-.1C7.5.1 7-.6 6.4-1.2c0-.1-.1-.1-.1-.2 0-.2.2-.4.4-.4H16.6c.1 0 .2.1.4.2v6.3h2c.4 0 .6.2.7.5.1.2 0 .5-.1.6-.5.5-.8 1.1-1.3 1.5-.7.8-1.3 1.6-2 2.3-.2.4-.7.4-1.1 0C14.1 8.3 13.1 7 12 5.7c-.5-.2-.5-.6-.4-.7.1-.2.4-.4.6-.4h1.9v.1z"/></g></g></svg><svg id="news-topost" width="19.4" height="11" viewBox="0 0 19.4 11" x="485" y="387" xmlns="http://www.w3.org/2000/svg"><style>.sst0{fill:#b3b3b3}</style><path class="sst0" d="M13 11.1l-1.1-1.4s4-3.3 4.1-3.3H0V4.7h16v-.1c-.1 0-4.2-3.3-4.2-3.3L12.9 0l6.5 5.5-6.4 5.6z"/></svg><svg id="news-topost-new" width="19.4" height="11.1" viewBox="0 0 19.4 11.1" x="505" y="398" xmlns="http://www.w3.org/2000/svg"><style>.tst0{fill:#0a9dd1}</style><path class="tst0" d="M13 11.1l-1.1-1.4s4-3.3 4.1-3.3H0V4.7h16v-.1c-.1 0-4.2-3.3-4.2-3.3L12.9 0l6.5 5.5-6.4 5.6z"/></svg></svg>