<?xml version="1.0" encoding="utf-8"?><!DOCTYPE svg PUBLIC "-//W3C//DTD SVG 1.1//EN" "http://www.w3.org/Graphics/SVG/1.1/DTD/svg11.dtd"><svg width="380" height="301" viewBox="0 0 380 301" xmlns="http://www.w3.org/2000/svg" xmlns:xlink="http://www.w3.org/1999/xlink"><svg version="1" width="37" height="46.5" viewBox="0 0 37 46.5" id="logo-p" xmlns="http://www.w3.org/2000/svg"><path d="M24.8 0l5.4.7 6.6 11.1-6.5 11.7s-7.3 1.9-10.1 2.6h-6.4V44l6.5.7-.3 1.9-10.5-.2-9.3.1-.2-1.7 5.2-.7V2.5L0 1.8.2 0h24.6zM13.7 23.8h4.8l9.3-6.2 2.3-5-2.3-4.8L19 1.9l-5.4.5v21.4z" fill="#009ACF"/></svg><svg width="19.4" height="11" viewBox="0 0 19.4 11" id="nav-arrow" x="37" y="47" xmlns="http://www.w3.org/2000/svg"><path d="M13 11.1l-1.1-1.4s4-3.3 4.1-3.3H0V4.7h16v-.1c-.1 0-4.2-3.3-4.2-3.3L12.9 0l6.5 5.5-6.4 5.6z" fill="#010202"/></svg><svg width="36.9" height="21.1" viewBox="0 0 36.9 21.1" id="nav-arrow-big" x="57" y="58" xmlns="http://www.w3.org/2000/svg"><path d="M24.7 21.1l-2.1-2.6s7.6-6.2 7.8-6.2v-.2H0V9h30.4v-.2c-.2 0-8-6.2-8-6.2L24.6 0 37 10.6 24.7 21.1z" fill="#010202"/></svg><svg id="nav-arrow-big-back" width="36.9" height="21.1" viewBox="0 0 36.9 21.1" x="94" y="80" xmlns="http://www.w3.org/2000/svg"><style>.dst0{fill:#b3b3b3}</style><path class="dst0" d="M12.3 0l2.1 2.6S6.8 8.8 6.6 8.8V9H37v3.1H6.6v.2c.2 0 8 6.2 8 6.2l-2.2 2.6L0 10.5 12.3 0z"/></svg><svg width="13.9" height="7.9" viewBox="0 0 13.9 7.9" id="nav-arrow-small" x="131" y="102" xmlns="http://www.w3.org/2000/svg"><path d="M0 3.4h13.9v1.4H0z"/></svg><svg width="13.9" height="7.9" viewBox="0 0 13.9 7.9" id="nav-arrow-small-blue" x="145" y="110" xmlns="http://www.w3.org/2000/svg"><path fill="#09C" d="M0 3.4h13.9v1.4H0z"/></svg><svg width="35.1" height="22" viewBox="0 0.9 35.1 22" id="nav-eye" x="159" y="118" xmlns="http://www.w3.org/2000/svg"><path fill="#FF0080" d="M17.4 22.4c-10.8 0-15.7-9.2-15.9-9.7l-.5-.9.5-.8c.1-.3 5.1-9.6 15.9-9.6 11.6 0 15.9 9.3 16.1 9.7l.3.9-.5.9c0 .3-4.9 9.5-15.9 9.5zM5.3 11.9c1.3 2 5.3 6.7 12.1 6.7 7 0 10.9-4.8 12.2-6.7-1.2-2-4.9-6.7-12.2-6.7-6.8-.1-10.7 4.7-12.1 6.7z"/><path fill="#FF0080" d="M17.5 17.8c-3.3 0-5.9-2.6-5.9-5.9S14.2 6 17.5 6s5.9 2.6 5.9 5.9-2.7 5.9-5.9 5.9zm0-8.4c-1.4 0-2.6 1.1-2.6 2.6s1.1 2.6 2.6 2.6 2.6-1.1 2.6-2.6-1.3-2.6-2.6-2.6z"/></svg><svg width="24" height="23" viewBox="-0.2 -0.4 24 23" id="nav-reset" x="195" y="140" xmlns="http://www.w3.org/2000/svg"><path fill="#FF0080" d="M8.4 0H4.6L0 6.6l4.8 6.6h3.6L4 6.6"/><path fill="#FF0080" d="M14.5 22h-6v-3.9h6c2.6 0 4.9-2.2 4.9-4.9s-2.2-4.9-4.9-4.9h-1.8l-9.1.1V4.5l10.8-.1c4.9 0 8.8 3.9 8.8 8.8S19.3 22 14.5 22z"/></svg><svg width="24" height="23" viewBox="-0.6 0.2 24 23" id="nav-share" x="219" y="163" xmlns="http://www.w3.org/2000/svg"><path fill="#FF0080" d="M18.1 5.1L11.5.5 4.9 5.2v3.7L9.7 6l.1 10.3h4l-.2-10.2 4.5 2.8"/><path fill="#FF0080" d="M22.2 22.5H1.6v-9.8h3.9v5.9h12.9V12h3.9"/></svg><svg width="23.3" height="36" viewBox="0 0 23.3 36" id="nav-totop" x="243" y="186" xmlns="http://www.w3.org/2000/svg"><path fill="#E72580" d="M23.2 20.7l-11.6-7.6L0 20.6v-5.3l11.6-8.1 11.6 8.1"/><path fill="#E72580" d="M9.2 11h5v21h-5zM.2 0h23v5H.2z"/></svg><svg width="24.6" height="20" viewBox="0 0 24.6 20" id="nav-twitter" x="267" y="222" xmlns="http://www.w3.org/2000/svg"><g opacity=".3"><defs><path id="ka" d="M0 0h24.6v20H0z"/></defs><clipPath id="kb"><use xlink:href="#ka" overflow="visible"/></clipPath><path d="M24.6 2.4c-.9.4-1.9.7-2.9.8 1-.6 1.8-1.6 2.2-2.8-1 .6-2.1 1-3.2 1.2C19.8.6 18.5 0 17 0c-2.8 0-5 2.3-5 5 0 .4 0 .8.1 1.2C7.9 6 4.2 4 1.7.9c-.4.8-.7 1.6-.7 2.6 0 1.8.9 3.3 2.2 4.2-.8-.1-1.5-.3-2.2-.7v.1c0 2.4 1.7 4.5 4.1 5-.4.1-.9.2-1.3.2-.3 0-.6 0-.9-.1.6 2 2.5 3.5 4.7 3.5-1.7 1.4-3.9 2.2-6.3 2.2-.4 0-.8 0-1.2-.1C2.2 19.2 4.9 20 7.7 20c9.3 0 14.4-7.7 14.4-14.4v-.7c1-.6 1.8-1.5 2.5-2.5" clip-path="url(#kb)" fill="#010202"/></g></svg><svg width="28" height="22" viewBox="2 5 28 22" id="nav-twitter-big" x="292" y="242" xmlns="http://www.w3.org/2000/svg"><defs><path id="la" d="M2 5h26.9v21.9H2z"/></defs><clipPath id="lb"><use xlink:href="#la" overflow="visible"/></clipPath><path clip-path="url(#lb)" fill="#FF0080" d="M28.9 7.6c-1 .4-2.1.8-3.2.9 1.1-.6 2-1.8 2.4-3-1.1.6-2.3 1.1-3.5 1.3-1-1.1-2.4-1.8-4-1.8-3 0-5.4 2.5-5.4 5.4 0 .4 0 .9.1 1.3-4.6-.2-8.7-2.3-11.4-5.7-.5.9-.8 1.8-.8 2.8 0 2 1 3.6 2.4 4.6-.9-.1-1.6-.4-2.4-.8v.1c0 2.6 1.9 4.9 4.5 5.4-.4.1-1 .2-1.4.2-.4 0-.6 0-1-.1.6 2.2 2.8 3.8 5.2 3.8-1.9 1.5-4.3 2.4-6.9 2.4-.4 0-.9 0-1.3-.1 2.3 1.5 5.3 2.4 8.3 2.4 10.2 0 15.7-8.4 15.7-15.7v-.7c1.1-.7 1.9-1.6 2.7-2.7"/></svg><svg width="20.8" height="11.8" viewBox="-1.1 -1.8 20.8 11.8" id="news-retweet" x="320" y="264" xmlns="http://www.w3.org/2000/svg"><g opacity=".4"><defs><path id="ma" d="M-.1-1.8h19.5V9.9H-.1z"/></defs><clipPath id="mb"><use xlink:href="#ma" overflow="visible"/></clipPath><path clip-path="url(#mb)" fill="#010202" d="M2.4 3.3h-2c-.2 0-.4-.1-.5-.4 0-.2 0-.4.1-.6C1.2 1 2.2-.3 3.3-1.6c.2-.4.7-.4 1.1 0 .4.5.8.9 1.2 1.4.7.8 1.4 1.6 2.1 2.5.4.4.1.9-.4 1.1H5v3.9H10.9c.1 0 .2 0 .2.1.5.5.8 1.1 1.3 1.5l.4.4c.1.1.1.4 0 .5 0 0-.1.1-.2.1H2.8c-.2 0-.4-.1-.4-.4v-.2-6z"/><g><defs><path id="mc" d="M-.1-1.8h19.5V9.9H-.1z"/></defs><clipPath id="md"><use xlink:href="#mc" overflow="visible"/></clipPath><path clip-path="url(#md)" fill="#010202" d="M14.1 4.7v-4H8.3c-.1 0-.2 0-.4-.1C7.5.1 7-.6 6.4-1.2c0-.1-.1-.1-.1-.2 0-.2.2-.4.4-.4H16.6c.1 0 .2.1.4.2v6.3h2c.4 0 .6.2.7.5.1.2 0 .5-.1.6-.5.5-.8 1.1-1.3 1.5-.7.8-1.3 1.6-2 2.3-.2.4-.7.4-1.1 0C14.1 8.3 13.1 7 12 5.7c-.5-.2-.5-.6-.4-.7.1-.2.4-.4.6-.4h1.9v.1z"/></g></g></svg><svg width="18.5" height="11.3" viewBox="0 0 18.5 11.3" id="news-topost" x="341" y="276" xmlns="http://www.w3.org/2000/svg"><g opacity=".3"><defs><path id="na" d="M0 0h18.5v11.3H0z"/></defs><clipPath id="nb"><use xlink:href="#na" overflow="visible"/></clipPath><path d="M12 10.6l-1-1.2s3.6-2.9 3.7-2.9v-.1H.5V4.9h14.2v-.1c-.1 0-3.7-2.9-3.7-2.9l1-1.2 5.8 4.9-5.8 5z" clip-path="url(#nb)" fill="#010202"/><defs><path id="nc" d="M0 0h18.5v11.3H0z"/></defs><clipPath id="nd"><use xlink:href="#nc" overflow="visible"/></clipPath><path d="M12 10.6l-1-1.2s3.6-2.9 3.7-2.9v-.1H.5V4.9h14.2v-.1c-.1 0-3.7-2.9-3.7-2.9l1-1.2 5.8 4.9-5.8 5z" clip-path="url(#nd)" fill="none" stroke="#010202" stroke-miterlimit="10"/></g></svg><svg id="news-topost-new" width="19.9" height="12.8" viewBox="0 0 19.9 12.8" x="360" y="288" xmlns="http://www.w3.org/2000/svg"><style>.ost0,.ost1,.ost2{clip-path:url(#oSVGID_2_);fill:#b2b2b2}.ost1,.ost2{fill:#0099cf}.ost2{fill:none;stroke:#0099cf;stroke-miterlimit:10}</style><defs><path id="oSVGID_1_" transform="matrix(1 -.0059 .0059 1 -.038 .059)" d="M0 .1h19.8v12.7H0z"/></defs><clipPath id="oSVGID_2_"><use xlink:href="#oSVGID_1_" overflow="visible"/></clipPath><path class="ost0" d="M12.5 2.2l-.3.4c.3.2.6.5 1 .8.7.6 1.6 1.2 2 1.6.1 0 .1.1.2.1h.4v1.1H1.5v.5l14.2-.1v1.1h-.3c-.1.1-.2.2-.4.3-.3.3-.8.6-1.2 1-.5.4-1.1.9-1.4 1.1l.3.4 4.9-4.2-5.1-4.1z"/><path class="ost1" d="M12.4.8l-1.6 2 .4.3L13 4.5c.3.2.6.4.8.6L.5 5.2v2.5l13.3-.1c-1.1.9-2.6 2.1-2.6 2.1l-.3.3 1.6 2 .4-.3L19 6.4 12.4.8zm-.2 1.8l.3-.4 5 4.2-4.9 4.2-.3-.4c.3-.3.9-.7 1.4-1.1.4-.4.9-.7 1.2-1 .2-.1.3-.2.4-.3h.3V6.7H1.5v-.5l14.2-.1V5h-.4s-.1-.1-.2-.1c-.4-.3-1.3-1-2-1.6-.3-.2-.6-.5-.9-.7"/><path class="ost2" d="M12.4.8l-1.6 2 .4.3L13 4.5c.3.2.6.4.8.6L.5 5.2v2.5l13.3-.1c-1.1.9-2.6 2.1-2.6 2.1l-.3.3 1.6 2 .4-.3L19 6.4 12.4.8zm-.2 1.8l.3-.4 5 4.2-4.9 4.2-.3-.4c.3-.3.9-.7 1.4-1.1.4-.4.9-.7 1.2-1 .2-.1.3-.2.4-.3h.3V6.7H1.5v-.5l14.2-.1V5h-.4s-.1-.1-.2-.1c-.4-.3-1.3-1-2-1.6-.3-.2-.6-.5-.9-.7"/></svg></svg>